<svg width="48" height="48" viewBox="0 0 48 48" fill="none" xmlns="http://www.w3.org/2000/svg">
<rect width="48" height="48" rx="24" fill="#E5FFED"/>
<path d="M27.7944 21.9223C28.0276 21.6679 28.0104 21.2725 27.756 21.0393C27.5015 20.806 27.1062 20.8232 26.8729 21.0777L22.7307 25.5965L21.1089 23.9747C20.8649 23.7306 20.4691 23.7306 20.2251 23.9747C19.981 24.2188 19.981 24.6145 20.2251 24.8586L22.3084 26.9419C22.4289 27.0625 22.5935 27.1285 22.7639 27.1248C22.9343 27.1211 23.0959 27.048 23.211 26.9223L27.7944 21.9223Z" fill="#00A468"/>
<path fill-rule="evenodd" clip-rule="evenodd" d="M24.0003 32.9583C19.0528 32.9583 15.042 28.9475 15.042 24C15.042 19.0524 19.0528 15.0417 24.0003 15.0417C28.9479 15.0417 32.9587 19.0524 32.9587 24C32.9587 28.9475 28.9479 32.9583 24.0003 32.9583ZM16.292 24C16.292 28.2572 19.7431 31.7083 24.0003 31.7083C28.2575 31.7083 31.7087 28.2572 31.7087 24C31.7087 19.7428 28.2575 16.2917 24.0003 16.2917C19.7431 16.2917 16.292 19.7428 16.292 24Z" fill="#00A468"/>
</svg>
