<svg width="56" height="57" viewBox="0 0 56 57" fill="none" xmlns="http://www.w3.org/2000/svg">
<path d="M8.75896 13.1084C9.18973 13.1084 9.6205 13.0137 10.0034 12.777H10.0513C10.9128 12.2561 11.3914 11.3092 11.2957 10.4096L19.0974 5.95886L33.6957 14.2921V20.2106H35.8017V13.0137L19.0974 3.49677L10.2427 8.563C9.47691 8.04217 8.42392 7.94748 7.51451 8.42096H7.46666C6.27008 9.13118 5.8393 10.6463 6.55725 11.83C7.03588 12.6823 7.89742 13.1084 8.75896 13.1084Z" fill="url(#paint0_linear_8311_2771)"/>
<path d="M23.6924 52.3599C22.783 51.8391 21.73 51.9338 20.9642 52.5019L12.6839 47.9092V27.3128H10.5779V48.4774V49.0929L19.9591 54.3012C19.8633 55.2481 20.342 56.1951 21.2514 56.6686H21.2992C21.6822 56.9053 22.1129 57 22.5437 57C23.4052 57 24.2668 56.5265 24.7454 55.7216C25.3197 54.5379 24.889 53.0228 23.6924 52.3599Z" fill="url(#paint1_linear_8311_2771)"/>
<path d="M47.6718 43.5058C46.7145 44.074 46.2359 45.0683 46.3795 46.0626L37.1897 51.4603L19.1931 41.1858L18.1401 42.985L37.2376 53.8751L47.4803 47.8619C47.9111 48.1933 48.4854 48.3353 49.0119 48.3353C49.4906 48.3353 49.9213 48.2406 50.3521 47.9566C51.5965 47.199 52.0273 45.6365 51.2615 44.4055C50.5436 43.1744 48.9162 42.7483 47.6718 43.5058Z" fill="url(#paint2_linear_8311_2771)"/>
<path d="M56 18.6955V18.6481C56 17.275 54.8513 16.186 53.4632 16.186C52.0752 16.186 50.9743 17.3224 50.9743 18.6955V18.7428C50.9743 19.7371 51.5966 20.5894 52.4581 20.9682L52.6017 32.095L34.6051 42.3695L35.6581 44.1687L54.7555 33.2787L54.6119 20.9208C55.4256 20.5894 56 19.6898 56 18.6955Z" fill="url(#paint3_linear_8311_2771)"/>
<path d="M31.9727 4.63311C32.4035 4.86985 32.8343 5.0119 33.265 5.0119C33.7915 5.0119 34.318 4.86985 34.7009 4.53842L43.412 9.50996V27.881L39.3437 30.2484L37.3813 33.8942L28.6702 37.3979L23.3573 33.7521L21.6821 28.97L18.1881 25.5609L16.7043 27.0287L19.8633 30.059L21.5864 35.0305L28.4308 39.6706L38.9129 35.504L40.971 31.7162L45.5659 29.0173V8.27891L35.8018 2.73919C35.8975 1.79223 35.4189 0.845271 34.5573 0.371791L34.5095 0.324443C33.3129 -0.338429 31.7813 0.0403549 31.0633 1.22405C30.3454 2.40775 30.7761 3.97024 31.9727 4.63311Z" fill="url(#paint4_linear_8311_2771)"/>
<path d="M3.63761 35.646V24.9454L20.8205 15.097L22.6872 16.1387L23.1658 20.7788L26.4684 23.9984L30.9675 25.7977L33.0735 28.97L35.2273 30.5798L36.4718 28.9226L34.6051 27.5495L32.3556 24.1405L27.6649 22.2466L25.1761 19.8318L24.6496 14.9076L20.7726 12.7296L1.48376 23.809V35.6934C0.622225 36.0722 0 36.9718 0 37.9661V38.0134C0 39.3865 1.14871 40.5229 2.53675 40.5229C3.92478 40.5229 5.07351 39.3865 5.07351 38.0134V37.9661C5.07351 36.8771 4.49915 36.0248 3.63761 35.646Z" fill="url(#paint5_linear_8311_2771)"/>
<defs>
<linearGradient id="paint0_linear_8311_2771" x1="11.2325" y1="3.75509" x2="54.0103" y2="42.327" gradientUnits="userSpaceOnUse">
<stop stop-color="#11CEC8"/>
<stop offset="0.0270988" stop-color="#10CAC8"/>
<stop offset="0.5039" stop-color="#0080C0"/>
<stop offset="0.9951" stop-color="#61269D"/>
</linearGradient>
<linearGradient id="paint1_linear_8311_2771" x1="-5.92119" y1="22.7794" x2="36.8565" y2="61.3513" gradientUnits="userSpaceOnUse">
<stop stop-color="#11CEC8"/>
<stop offset="0.0270988" stop-color="#10CAC8"/>
<stop offset="0.5039" stop-color="#0080C0"/>
<stop offset="0.9951" stop-color="#61269D"/>
</linearGradient>
<linearGradient id="paint2_linear_8311_2771" x1="1.62191" y1="14.4136" x2="44.3997" y2="52.9855" gradientUnits="userSpaceOnUse">
<stop stop-color="#11CEC8"/>
<stop offset="0.0270988" stop-color="#10CAC8"/>
<stop offset="0.5039" stop-color="#0080C0"/>
<stop offset="0.9951" stop-color="#61269D"/>
</linearGradient>
<linearGradient id="paint3_linear_8311_2771" x1="12.9391" y1="1.86241" x2="55.7169" y2="40.4344" gradientUnits="userSpaceOnUse">
<stop stop-color="#11CEC8"/>
<stop offset="0.0270988" stop-color="#10CAC8"/>
<stop offset="0.5039" stop-color="#0080C0"/>
<stop offset="0.9951" stop-color="#61269D"/>
</linearGradient>
<linearGradient id="paint4_linear_8311_2771" x1="12.1435" y1="2.74492" x2="54.9212" y2="41.3168" gradientUnits="userSpaceOnUse">
<stop stop-color="#11CEC8"/>
<stop offset="0.0270988" stop-color="#10CAC8"/>
<stop offset="0.5039" stop-color="#0080C0"/>
<stop offset="0.9951" stop-color="#61269D"/>
</linearGradient>
<linearGradient id="paint5_linear_8311_2771" x1="0.0909398" y1="16.1115" x2="42.8687" y2="54.6835" gradientUnits="userSpaceOnUse">
<stop stop-color="#11CEC8"/>
<stop offset="0.0270988" stop-color="#10CAC8"/>
<stop offset="0.5039" stop-color="#0080C0"/>
<stop offset="0.9951" stop-color="#61269D"/>
</linearGradient>
</defs>
</svg>
