<?xml version="1.0" encoding="utf-8"?>
<!-- Generator: Adobe Illustrator 27.3.1, SVG Export Plug-In . SVG Version: 6.00 Build 0)  -->
<svg version="1.1" id="Layer_1" xmlns="http://www.w3.org/2000/svg" xmlns:xlink="http://www.w3.org/1999/xlink" x="0px" y="0px"
	 viewBox="0 0 381 222" style="enable-background:new 0 0 381 222;" xml:space="preserve">
<style type="text/css">
	.st0{fill:#001C71;}
	.st1{fill:url(#SVGID_1_);}
	.st2{fill:url(#SVGID_00000113335033613407621240000003621160312929287857_);}
	.st3{fill:url(#SVGID_00000021108803976003464670000010447513627809825697_);}
	.st4{fill:url(#SVGID_00000023278173311235994940000002882272976986823101_);}
	.st5{fill:url(#SVGID_00000145055124548711429630000016132698120619536304_);}
	.st6{fill:url(#SVGID_00000109709847245124408890000005058426680247624602_);}
</style>
<g>
	<g>
		<path class="st0" d="M16.8,182.8c-0.2-0.4-0.4-0.7-0.6-1c-0.2-0.3-0.5-0.5-0.8-0.7c-0.3-0.2-0.6-0.4-1-0.5c-0.3-0.2-0.7-0.3-1-0.4
			c-0.3-0.1-0.7-0.3-1-0.4c-0.3-0.1-0.6-0.3-0.8-0.4c-0.2-0.1-0.4-0.3-0.5-0.5c-0.1-0.2-0.2-0.4-0.2-0.7c0-0.3,0.1-0.6,0.2-0.9
			c0.1-0.2,0.3-0.4,0.5-0.6c0.2-0.2,0.4-0.3,0.7-0.4c0.3-0.1,0.6-0.1,0.9-0.1c0.5,0,1,0.1,1.5,0.2c0.5,0.1,0.9,0.3,1.4,0.5l0.3-2.3
			c-0.5-0.2-1.1-0.3-1.7-0.4c-0.6-0.1-1.1-0.1-1.7-0.1c-0.6,0-1.2,0.1-1.8,0.2c-0.6,0.1-1.1,0.4-1.6,0.7c-0.3,0.2-0.5,0.4-0.7,0.7
			c-0.2,0.3-0.4,0.5-0.5,0.8c-0.1,0.3-0.2,0.6-0.3,0.9c-0.1,0.3-0.1,0.6-0.1,1c0,0.4,0,0.7,0.1,1.1c0.1,0.3,0.2,0.6,0.4,0.9
			c0.2,0.3,0.4,0.5,0.6,0.7c0.2,0.2,0.5,0.4,0.9,0.6c0.2,0.1,0.4,0.2,0.5,0.3c0.2,0.1,0.4,0.2,0.6,0.2c0.4,0.1,0.7,0.3,1.1,0.4
			c0.4,0.1,0.7,0.3,1,0.5c0.1,0.1,0.3,0.2,0.4,0.3c0.1,0.1,0.2,0.2,0.3,0.3c0.1,0.1,0.1,0.3,0.2,0.4c0,0.2,0.1,0.3,0.1,0.5
			c0,0.3-0.1,0.6-0.2,0.8c-0.2,0.2-0.4,0.4-0.6,0.6c-0.2,0.1-0.5,0.3-0.8,0.3s-0.6,0.1-0.8,0.1c-0.6,0-1.1-0.1-1.6-0.2
			s-1.1-0.4-1.5-0.6l-0.3,2.5c0.6,0.2,1.2,0.3,1.8,0.4c0.6,0.1,1.2,0.2,1.8,0.2c0.7,0,1.4-0.1,2-0.2c0.6-0.2,1.2-0.4,1.7-0.7
			c0.5-0.3,0.9-0.8,1.2-1.3c0.3-0.5,0.4-1.2,0.4-2c0-0.2,0-0.5,0-0.8C17,183.3,16.9,183.1,16.8,182.8z"/>
		<path class="st0" d="M23.7,174.4l-5.5,14h2.9l1.2-3.2H28l1.2,3.2h3.1l-5.5-14H23.7z M23.1,183l2-5.8h0l2,5.8H23.1z"/>
		<path class="st0" d="M42.7,182.5c0,0.5,0,1-0.1,1.5c-0.1,0.5-0.2,0.9-0.4,1.3c-0.2,0.4-0.5,0.7-0.9,0.9c-0.4,0.2-0.9,0.3-1.5,0.3
			c-0.6,0-1.1-0.1-1.4-0.3c-0.4-0.2-0.7-0.5-0.9-0.9c-0.2-0.4-0.4-0.8-0.5-1.3c-0.1-0.5-0.1-1-0.1-1.5v-8.1h-2.8v9
			c0,0.9,0.1,1.7,0.4,2.4c0.3,0.7,0.6,1.2,1.1,1.6c0.5,0.4,1.1,0.7,1.8,0.9c0.7,0.2,1.5,0.3,2.4,0.3c0.9,0,1.7-0.1,2.4-0.3
			c0.7-0.2,1.3-0.5,1.8-0.9c0.5-0.4,0.9-1,1.1-1.6c0.3-0.7,0.4-1.5,0.4-2.4v-9h-2.8V182.5z"/>
		<path class="st0" d="M60.1,178.2c-0.2-0.5-0.4-0.9-0.7-1.4c-0.3-0.4-0.7-0.8-1.2-1.1c-0.4-0.3-0.8-0.5-1.3-0.7
			c-0.4-0.2-0.9-0.3-1.4-0.4c-0.5-0.1-1-0.2-1.4-0.2c-0.5,0-1-0.1-1.4-0.1h-4v14h3.8c1.2,0,2.3-0.1,3.3-0.4c1-0.2,1.8-0.6,2.6-1.2
			c0.7-0.6,1.3-1.3,1.7-2.2c0.4-0.9,0.6-2,0.6-3.3c0-0.5,0-1.1-0.1-1.6C60.4,179.2,60.3,178.7,60.1,178.2z M57.3,183.3
			c-0.2,0.6-0.5,1.1-0.9,1.5c-0.4,0.4-0.9,0.8-1.5,1c-0.6,0.2-1.2,0.4-1.9,0.4h-1.6v-9.6H53c0.7,0,1.3,0.1,1.9,0.4
			c0.6,0.2,1.1,0.6,1.5,1c0.4,0.4,0.7,0.9,0.9,1.5c0.2,0.6,0.3,1.2,0.3,1.9C57.7,182,57.6,182.7,57.3,183.3z"/>
		<rect x="62.9" y="174.4" class="st0" width="2.8" height="14"/>
		<polygon class="st0" points="77.2,182.2 82.2,182.2 82.2,180 77.2,180 77.2,176.6 82.6,176.6 82.6,174.4 74.3,174.4 74.3,188.4 
			82.7,188.4 82.7,186.2 77.2,186.2 		"/>
		<polygon class="st0" points="88.3,174.4 85.5,174.4 85.5,188.4 93.8,188.4 93.8,186.2 88.3,186.2 		"/>
		<polygon class="st0" points="98.4,182.2 103.4,182.2 103.4,180 98.4,180 98.4,176.6 103.9,176.6 103.9,174.4 95.6,174.4 
			95.6,188.4 103.9,188.4 103.9,186.2 98.4,186.2 		"/>
		<path class="st0" d="M116.1,186.1c-0.3,0.1-0.5,0.1-0.8,0.2c-0.3,0-0.5,0.1-0.8,0.1c-0.3,0-0.5,0-0.8,0c-0.7,0-1.4-0.1-2-0.4
			c-0.6-0.3-1.1-0.6-1.5-1c-0.4-0.4-0.7-1-0.9-1.6c-0.2-0.6-0.3-1.3-0.3-2c0-0.7,0.1-1.4,0.3-2c0.2-0.6,0.5-1.2,0.9-1.6
			c0.4-0.5,0.9-0.8,1.5-1.1c0.6-0.3,1.2-0.4,2-0.4c0.3,0,0.6,0,0.8,0c0.3,0,0.5,0.1,0.7,0.1c0.2,0.1,0.5,0.1,0.7,0.2
			c0.2,0.1,0.5,0.2,0.8,0.4l0.2-2.4c-0.5-0.2-1-0.3-1.6-0.4c-0.5-0.1-1.1-0.2-1.6-0.2c-0.9,0-1.8,0.1-2.6,0.3
			c-0.8,0.2-1.5,0.5-2.2,0.9c-0.6,0.4-1.2,1-1.7,1.6c-0.5,0.7-0.8,1.5-1,2.4c-0.1,0.4-0.1,0.7-0.2,1.1c0,0.4-0.1,0.7-0.1,1.1
			c0,0.5,0,1,0.1,1.5c0.1,0.5,0.2,1,0.4,1.4c0.2,0.4,0.4,0.9,0.7,1.3c0.3,0.4,0.6,0.8,1,1.1c0.4,0.3,0.8,0.6,1.3,0.8
			c0.4,0.2,0.9,0.4,1.3,0.5c0.5,0.1,0.9,0.2,1.4,0.3c0.5,0.1,1,0.1,1.5,0.1c0.5,0,1.1,0,1.6-0.1c0.5-0.1,1.1-0.2,1.6-0.3l-0.1-2.4
			C116.6,185.9,116.4,186,116.1,186.1z"/>
		<polygon class="st0" points="117.6,176.6 121.6,176.6 121.6,188.4 124.4,188.4 124.4,176.6 128.4,176.6 128.4,174.4 117.6,174.4 
					"/>
		<path class="st0" d="M138,182.4c-0.1-0.2-0.2-0.3-0.3-0.4c-0.1-0.1-0.3-0.2-0.4-0.3c-0.2-0.1-0.3-0.2-0.5-0.2v0
			c0.4-0.1,0.8-0.2,1.2-0.4c0.4-0.2,0.7-0.4,0.9-0.7c0.3-0.3,0.5-0.6,0.6-1c0.1-0.4,0.2-0.8,0.2-1.2c0-0.6-0.1-1.1-0.2-1.5
			c-0.2-0.4-0.4-0.8-0.6-1.1c-0.3-0.3-0.6-0.5-1-0.7c-0.4-0.2-0.8-0.3-1.2-0.4c-0.4-0.1-0.9-0.1-1.3-0.1c-0.5,0-0.9,0-1.4,0H130v14
			h2.8v-5.8h0.9c0.3,0,0.6,0,0.8,0.1c0.2,0,0.4,0.1,0.5,0.2c0.1,0.1,0.3,0.3,0.4,0.5c0.1,0.2,0.2,0.4,0.3,0.7l1.7,4.4h3.1l-2.2-5.5
			C138.1,182.7,138,182.6,138,182.4z M136.6,178.9c0,0.2-0.1,0.4-0.2,0.5c-0.1,0.2-0.3,0.4-0.5,0.5s-0.5,0.2-0.7,0.3
			c-0.3,0.1-0.5,0.1-0.8,0.1c-0.3,0-0.5,0-0.7,0h-0.9v-3.8h0.9c0.3,0,0.7,0,1,0c0.4,0,0.7,0.1,1,0.2c0.3,0.1,0.5,0.3,0.7,0.5
			c0.2,0.2,0.3,0.6,0.3,1C136.7,178.6,136.7,178.7,136.6,178.9z"/>
		<path class="st0" d="M153.8,176.1c-0.6-0.6-1.3-1.1-2.2-1.5c-0.9-0.3-1.8-0.5-2.9-0.5c-1.1,0-2.1,0.2-3,0.5
			c-0.9,0.3-1.6,0.8-2.2,1.5c-0.6,0.6-1,1.4-1.3,2.3c-0.3,0.9-0.4,1.9-0.4,3c0,1.1,0.1,2.1,0.4,3c0.3,0.9,0.7,1.7,1.3,2.3
			c0.6,0.6,1.3,1.1,2.2,1.5c0.9,0.4,1.8,0.5,3,0.5c1.1,0,2.1-0.2,2.9-0.5c0.9-0.4,1.6-0.9,2.2-1.5c0.6-0.6,1-1.4,1.3-2.3
			c0.3-0.9,0.5-1.9,0.5-2.9c0-1.1-0.2-2.1-0.5-2.9C154.8,177.5,154.3,176.7,153.8,176.1z M152.4,183.2c-0.1,0.6-0.4,1.2-0.7,1.6
			c-0.3,0.5-0.7,0.9-1.2,1.2c-0.5,0.3-1.1,0.4-1.8,0.4c-0.7,0-1.3-0.1-1.8-0.4c-0.5-0.3-0.9-0.7-1.2-1.1c-0.3-0.5-0.5-1-0.7-1.6
			c-0.1-0.6-0.2-1.2-0.2-1.8c0-0.6,0.1-1.2,0.2-1.8c0.1-0.6,0.4-1.1,0.7-1.6c0.3-0.5,0.7-0.9,1.2-1.2c0.5-0.3,1.1-0.4,1.8-0.4
			c0.7,0,1.3,0.1,1.8,0.4c0.5,0.3,0.9,0.7,1.2,1.1c0.3,0.5,0.5,1,0.7,1.6c0.1,0.6,0.2,1.2,0.2,1.8
			C152.6,181.9,152.5,182.6,152.4,183.2z"/>
		<polygon class="st0" points="166.8,184.9 166.8,184.9 161.4,174.4 158,174.4 158,188.4 160.7,188.4 160.7,177.9 160.7,177.9 
			166.1,188.4 169.5,188.4 169.5,174.4 166.8,174.4 		"/>
		<rect x="172.4" y="174.4" class="st0" width="2.8" height="14"/>
		<path class="st0" d="M187.6,186.1c-0.3,0.1-0.5,0.1-0.8,0.2c-0.3,0-0.5,0.1-0.8,0.1c-0.3,0-0.5,0-0.8,0c-0.7,0-1.4-0.1-2-0.4
			c-0.6-0.3-1.1-0.6-1.5-1c-0.4-0.4-0.7-1-0.9-1.6s-0.3-1.3-0.3-2c0-0.7,0.1-1.4,0.3-2c0.2-0.6,0.5-1.2,0.9-1.6
			c0.4-0.5,0.9-0.8,1.5-1.1c0.6-0.3,1.2-0.4,2-0.4c0.3,0,0.6,0,0.8,0c0.3,0,0.5,0.1,0.7,0.1c0.2,0.1,0.5,0.1,0.7,0.2
			c0.2,0.1,0.5,0.2,0.8,0.4l0.2-2.4c-0.5-0.2-1-0.3-1.6-0.4c-0.5-0.1-1.1-0.2-1.6-0.2c-0.9,0-1.8,0.1-2.6,0.3
			c-0.8,0.2-1.5,0.5-2.2,0.9s-1.2,1-1.7,1.6c-0.5,0.7-0.8,1.5-1,2.4c-0.1,0.4-0.1,0.7-0.2,1.1c0,0.4-0.1,0.7-0.1,1.1
			c0,0.5,0,1,0.1,1.5c0.1,0.5,0.2,1,0.4,1.4c0.2,0.4,0.4,0.9,0.7,1.3c0.3,0.4,0.6,0.8,1,1.1c0.4,0.3,0.8,0.6,1.3,0.8
			c0.4,0.2,0.9,0.4,1.3,0.5c0.5,0.1,0.9,0.2,1.4,0.3c0.5,0.1,1,0.1,1.5,0.1c0.5,0,1.1,0,1.6-0.1c0.5-0.1,1.1-0.2,1.6-0.3l-0.1-2.4
			C188.1,185.9,187.9,186,187.6,186.1z"/>
		<path class="st0" d="M204.6,182.5c0,0.5,0,1-0.1,1.5c-0.1,0.5-0.2,0.9-0.4,1.3c-0.2,0.4-0.5,0.7-0.9,0.9c-0.4,0.2-0.9,0.3-1.5,0.3
			c-0.6,0-1.1-0.1-1.4-0.3c-0.4-0.2-0.7-0.5-0.9-0.9c-0.2-0.4-0.4-0.8-0.5-1.3c-0.1-0.5-0.1-1-0.1-1.5v-8.1H196v9
			c0,0.9,0.1,1.7,0.4,2.4c0.3,0.7,0.6,1.2,1.1,1.6c0.5,0.4,1.1,0.7,1.8,0.9c0.7,0.2,1.5,0.3,2.4,0.3c0.9,0,1.7-0.1,2.4-0.3
			c0.7-0.2,1.3-0.5,1.8-0.9c0.5-0.4,0.9-1,1.1-1.6c0.3-0.7,0.4-1.5,0.4-2.4v-9h-2.8V182.5z"/>
		<polygon class="st0" points="222,174.4 219.3,174.4 219.3,184.9 219.2,184.9 213.9,174.4 210.4,174.4 210.4,188.4 213.1,188.4 
			213.1,177.9 213.2,177.9 218.5,188.4 222,188.4 		"/>
		<rect x="224.8" y="174.4" class="st0" width="2.8" height="14"/>
		<polygon class="st0" points="237.5,188.4 242.3,174.4 239.5,174.4 235.9,185.4 235.9,185.4 232.3,174.4 229.2,174.4 234.1,188.4 
					"/>
		<polygon class="st0" points="252.4,176.6 252.4,174.4 244.1,174.4 244.1,188.4 252.4,188.4 252.4,186.2 246.9,186.2 246.9,182.2 
			251.9,182.2 251.9,180 246.9,180 246.9,176.6 		"/>
		<path class="st0" d="M263,182.4c-0.1-0.2-0.2-0.3-0.3-0.4c-0.1-0.1-0.3-0.2-0.4-0.3c-0.2-0.1-0.3-0.2-0.5-0.2v0
			c0.4-0.1,0.8-0.2,1.2-0.4s0.7-0.4,0.9-0.7c0.3-0.3,0.5-0.6,0.6-1c0.1-0.4,0.2-0.8,0.2-1.2c0-0.6-0.1-1.1-0.2-1.5
			c-0.2-0.4-0.4-0.8-0.6-1.1c-0.3-0.3-0.6-0.5-1-0.7c-0.4-0.2-0.8-0.3-1.2-0.4c-0.4-0.1-0.9-0.1-1.3-0.1c-0.5,0-0.9,0-1.4,0H255v14
			h2.8v-5.8h0.9c0.3,0,0.6,0,0.8,0.1c0.2,0,0.4,0.1,0.5,0.2s0.3,0.3,0.4,0.5c0.1,0.2,0.2,0.4,0.3,0.7l1.7,4.4h3.1l-2.2-5.5
			C263.2,182.7,263.1,182.6,263,182.4z M261.7,178.9c0,0.2-0.1,0.4-0.2,0.5c-0.1,0.2-0.3,0.4-0.5,0.5s-0.5,0.2-0.7,0.3
			c-0.3,0.1-0.5,0.1-0.8,0.1c-0.3,0-0.5,0-0.7,0h-0.9v-3.8h0.9c0.3,0,0.7,0,1,0c0.4,0,0.7,0.1,1,0.2c0.3,0.1,0.5,0.3,0.7,0.5
			c0.2,0.2,0.3,0.6,0.3,1C261.7,178.6,261.7,178.7,261.7,178.9z"/>
		<path class="st0" d="M276.1,184.4c0-0.2,0-0.5,0-0.8c0-0.3-0.1-0.5-0.2-0.8c-0.2-0.4-0.4-0.7-0.6-1c-0.2-0.3-0.5-0.5-0.8-0.7
			c-0.3-0.2-0.6-0.4-1-0.5c-0.3-0.2-0.7-0.3-1-0.4c-0.3-0.1-0.7-0.3-1-0.4c-0.3-0.1-0.6-0.3-0.8-0.4c-0.2-0.1-0.4-0.3-0.5-0.5
			c-0.1-0.2-0.2-0.4-0.2-0.7c0-0.3,0.1-0.6,0.2-0.9c0.1-0.2,0.3-0.4,0.5-0.6c0.2-0.2,0.4-0.3,0.7-0.4c0.3-0.1,0.6-0.1,0.9-0.1
			c0.5,0,1,0.1,1.5,0.2c0.5,0.1,0.9,0.3,1.4,0.5l0.3-2.3c-0.5-0.2-1.1-0.3-1.7-0.4c-0.6-0.1-1.1-0.1-1.7-0.1c-0.6,0-1.2,0.1-1.8,0.2
			c-0.6,0.1-1.1,0.4-1.6,0.7c-0.3,0.2-0.5,0.4-0.7,0.7c-0.2,0.3-0.4,0.5-0.5,0.8c-0.1,0.3-0.2,0.6-0.3,0.9c-0.1,0.3-0.1,0.6-0.1,1
			c0,0.4,0,0.7,0.1,1.1c0.1,0.3,0.2,0.6,0.4,0.9c0.2,0.3,0.4,0.5,0.6,0.7c0.2,0.2,0.5,0.4,0.9,0.6c0.2,0.1,0.4,0.2,0.5,0.3
			c0.2,0.1,0.4,0.2,0.6,0.2c0.4,0.1,0.7,0.3,1.1,0.4c0.4,0.1,0.7,0.3,1,0.5c0.1,0.1,0.3,0.2,0.4,0.3c0.1,0.1,0.2,0.2,0.3,0.3
			c0.1,0.1,0.1,0.3,0.2,0.4c0,0.2,0.1,0.3,0.1,0.5c0,0.3-0.1,0.6-0.2,0.8c-0.2,0.2-0.4,0.4-0.6,0.6c-0.2,0.1-0.5,0.3-0.8,0.3
			s-0.6,0.1-0.8,0.1c-0.6,0-1.1-0.1-1.6-0.2c-0.5-0.2-1.1-0.4-1.5-0.6l-0.3,2.5c0.6,0.2,1.2,0.3,1.8,0.4c0.6,0.1,1.2,0.2,1.8,0.2
			c0.7,0,1.4-0.1,2-0.2c0.6-0.2,1.2-0.4,1.7-0.7c0.5-0.3,0.9-0.8,1.2-1.3C276,185.8,276.1,185.2,276.1,184.4z"/>
		<rect x="278.5" y="174.4" class="st0" width="2.8" height="14"/>
		<polygon class="st0" points="289.7,188.4 289.7,176.6 293.7,176.6 293.7,174.4 282.8,174.4 282.8,176.6 286.8,176.6 286.8,188.4 
					"/>
		<polygon class="st0" points="299.2,188.4 302,188.4 302,182.8 307,174.4 304.1,174.4 300.7,180.2 297.4,174.4 294.1,174.4 
			299.2,182.8 		"/>
		<path class="st0" d="M10.9,146.3c0.1,0.1,0.3,0.3,0.5,0.3c0.2,0.1,0.4,0.1,0.6,0.1c0.2,0,0.4,0,0.6-0.1c0.2-0.1,0.4-0.2,0.5-0.3
			c0.1-0.1,0.3-0.3,0.3-0.5c0.1-0.2,0.1-0.4,0.1-0.6c0-0.2,0-0.4-0.1-0.6c-0.1-0.2-0.2-0.4-0.3-0.5c-0.1-0.1-0.3-0.3-0.5-0.3
			c-0.2-0.1-0.4-0.1-0.6-0.1c-0.2,0-0.4,0-0.6,0.1c-0.2,0.1-0.4,0.2-0.5,0.3c-0.1,0.1-0.3,0.3-0.3,0.5c-0.1,0.2-0.1,0.4-0.1,0.6
			c0,0.2,0,0.4,0.1,0.6C10.7,145.9,10.8,146.1,10.9,146.3z"/>
		<path class="st0" d="M14.7,146.3c0.1,0.1,0.3,0.3,0.5,0.3c0.2,0.1,0.4,0.1,0.6,0.1c0.2,0,0.4,0,0.6-0.1c0.2-0.1,0.4-0.2,0.5-0.3
			c0.1-0.1,0.3-0.3,0.3-0.5c0.1-0.2,0.1-0.4,0.1-0.6c0-0.2,0-0.4-0.1-0.6c-0.1-0.2-0.2-0.4-0.3-0.5c-0.1-0.1-0.3-0.3-0.5-0.3
			c-0.2-0.1-0.4-0.1-0.6-0.1c-0.2,0-0.4,0-0.6,0.1c-0.2,0.1-0.4,0.2-0.5,0.3c-0.1,0.1-0.3,0.3-0.3,0.5c-0.1,0.2-0.1,0.4-0.1,0.6
			c0,0.2,0,0.4,0.1,0.6C14.4,145.9,14.5,146.1,14.7,146.3z"/>
		<path class="st0" d="M9.7,159.6c0.6,0.2,1.1,0.2,1.7,0.2c0.6,0,1.1-0.1,1.6-0.2c0.5-0.1,1-0.3,1.6-0.6c0.1,0.2,0.3,0.4,0.4,0.6
			c0.2,0.2,0.4,0.4,0.7,0.5c0.3,0.1,0.6,0.3,1,0.3c0.4,0.1,0.9,0.1,1.5,0.1h1.4h0.1h2.4c0.6,0,1.2-0.1,1.6-0.3
			c0.4-0.2,0.8-0.4,1.1-0.8c0.4,0.3,1,0.6,1.6,0.7c0.5,0.2,1.1,0.2,1.8,0.3c0.1,0,0.2,0,0.3,0c0,0,0,0,0,0h0.1h0.1H35v-10.3h-3.3
			v7.5h-3.1h-0.1h0c-0.5,0-1,0-1.5-0.1c-0.5-0.1-0.9-0.2-1.3-0.4c0-0.1,0-0.3,0-0.4c0-0.1,0-0.3,0-0.4v-6.1h-3.3v5.7
			c0,0.3,0,0.6-0.1,0.9c-0.1,0.2-0.1,0.4-0.3,0.6c-0.1,0.1-0.3,0.2-0.5,0.3c-0.2,0.1-0.4,0.1-0.7,0.1h-1.3h-0.1h-0.8
			c-0.3,0-0.5,0-0.6-0.1c-0.2-0.1-0.3-0.1-0.4-0.3c-0.1-0.1-0.1-0.3-0.2-0.5c0-0.2,0-0.4,0-0.7v-8.1h-3.2v1.4
			c-0.5,0.1-1,0.3-1.6,0.4c-0.6,0.2-1.2,0.4-1.7,0.6c-0.6,0.2-1.1,0.5-1.7,0.8c-0.5,0.3-1,0.7-1.4,1.1c-0.4,0.4-0.8,0.9-1,1.4
			c-0.3,0.5-0.4,1.1-0.4,1.7c0,0.7,0.1,1.3,0.4,1.8c0.3,0.5,0.7,0.9,1.1,1.3C8.6,159.2,9.1,159.5,9.7,159.6z M10,154.4
			c0.2-0.3,0.5-0.6,1-0.9c0.4-0.3,0.9-0.5,1.5-0.7c0.6-0.2,1.2-0.4,1.9-0.5v4.2c-0.3,0.2-0.7,0.4-1.2,0.5c-0.4,0.1-0.9,0.2-1.4,0.2
			c-0.3,0-0.5,0-0.8-0.1c-0.3-0.1-0.5-0.2-0.7-0.3c-0.2-0.1-0.4-0.3-0.5-0.5c-0.1-0.2-0.2-0.5-0.2-0.8C9.7,155.1,9.8,154.8,10,154.4
			z"/>
		<path class="st0" d="M26.5,162.8c-0.2-0.1-0.4-0.1-0.6-0.1c-0.2,0-0.4,0-0.6,0.1c-0.2,0.1-0.4,0.2-0.5,0.3
			c-0.1,0.1-0.3,0.3-0.3,0.5c-0.1,0.2-0.1,0.4-0.1,0.6c0,0.2,0,0.4,0.1,0.6c0.1,0.2,0.2,0.4,0.3,0.5c0.1,0.1,0.3,0.3,0.5,0.3
			c0.2,0.1,0.4,0.1,0.6,0.1c0.2,0,0.4,0,0.6-0.1c0.2-0.1,0.4-0.2,0.5-0.3c0.1-0.1,0.3-0.3,0.3-0.5c0.1-0.2,0.1-0.4,0.1-0.6
			c0-0.2,0-0.4-0.1-0.6s-0.2-0.4-0.3-0.5C26.8,163,26.7,162.9,26.5,162.8z"/>
		<path class="st0" d="M22.7,162.8c-0.2-0.1-0.4-0.1-0.6-0.1c-0.2,0-0.4,0-0.6,0.1c-0.2,0.1-0.4,0.2-0.5,0.3
			c-0.1,0.1-0.3,0.3-0.3,0.5s-0.1,0.4-0.1,0.6c0,0.2,0,0.4,0.1,0.6c0.1,0.2,0.2,0.4,0.3,0.5c0.1,0.1,0.3,0.3,0.5,0.3
			c0.2,0.1,0.4,0.1,0.6,0.1c0.2,0,0.4,0,0.6-0.1c0.2-0.1,0.4-0.2,0.5-0.3c0.1-0.1,0.3-0.3,0.3-0.5c0.1-0.2,0.1-0.4,0.1-0.6
			c0-0.2,0-0.4-0.1-0.6s-0.2-0.4-0.3-0.5C23.1,163,22.9,162.9,22.7,162.8z"/>
		<path class="st0" d="M32.2,146.9c0.1,0.1,0.3,0.3,0.5,0.3c0.2,0.1,0.4,0.1,0.6,0.1c0.2,0,0.4,0,0.6-0.1c0.2-0.1,0.4-0.2,0.5-0.3
			c0.1-0.1,0.3-0.3,0.3-0.5c0.1-0.2,0.1-0.4,0.1-0.6c0-0.2,0-0.4-0.1-0.6c-0.1-0.2-0.2-0.4-0.3-0.5c-0.1-0.1-0.3-0.3-0.5-0.3
			c-0.2-0.1-0.4-0.1-0.6-0.1c-0.2,0-0.4,0-0.6,0.1c-0.2,0.1-0.4,0.2-0.5,0.3c-0.1,0.1-0.3,0.3-0.3,0.5c-0.1,0.2-0.1,0.4-0.1,0.6
			c0,0.2,0,0.4,0.1,0.6C31.9,146.6,32,146.8,32.2,146.9z"/>
		<path class="st0" d="M49.9,158.2V156c0-0.8-0.1-1.5-0.2-2.2c-0.2-0.6-0.4-1.1-0.6-1.6c-0.3-0.4-0.6-0.8-0.9-1.1
			c-0.3-0.3-0.7-0.5-1.1-0.7c-0.4-0.2-0.8-0.3-1.2-0.4c-0.4-0.1-0.8-0.1-1.2-0.1c-0.8,0-1.6,0.1-2.3,0.4c-0.7,0.3-1.3,0.7-1.9,1.2
			c-0.5,0.5-1,1.1-1.3,1.8c-0.3,0.7-0.5,1.5-0.5,2.3c0,0.6,0.1,1.1,0.3,1.7c0.2,0.6,0.5,1.1,1,1.6c0.5,0.5,1.1,0.9,1.8,1.2
			c0.7,0.3,1.6,0.5,2.7,0.5c0.2,0,0.5,0,0.9-0.1c0.4,0,0.7-0.1,1-0.1c-0.2,0.4-0.4,0.7-0.8,1c-0.4,0.3-0.8,0.6-1.3,0.9
			c-0.5,0.3-1.1,0.5-1.7,0.6c-0.6,0.2-1.3,0.3-2,0.4h-0.3l0.3,2.7c1.4-0.1,2.6-0.4,3.7-0.7c1.1-0.3,2.1-0.8,2.9-1.4
			c0.8-0.6,1.5-1.4,1.9-2.4C49.7,160.8,49.9,159.6,49.9,158.2z M46.7,157.8c-0.1,0-0.2,0.1-0.3,0.1c-0.1,0-0.3,0.1-0.4,0.1
			c-0.2,0-0.3,0-0.5,0.1c-0.2,0-0.3,0-0.5,0c-0.5,0-1-0.1-1.4-0.2c-0.4-0.1-0.7-0.3-1-0.6c-0.3-0.2-0.4-0.5-0.6-0.9
			c-0.1-0.3-0.2-0.7-0.2-1.1c0-0.4,0.1-0.8,0.2-1.1c0.1-0.3,0.3-0.6,0.5-0.9c0.2-0.2,0.5-0.4,0.8-0.6c0.3-0.1,0.6-0.2,0.9-0.2
			c0.3,0,0.6,0.1,0.9,0.2c0.3,0.1,0.5,0.3,0.8,0.6c0.2,0.3,0.4,0.7,0.5,1.3c0.1,0.5,0.2,1.2,0.2,2.1V157.8z"/>
		<path class="st0" d="M61.8,146.9c0.1,0.1,0.3,0.3,0.5,0.3c0.2,0.1,0.4,0.1,0.6,0.1c0.2,0,0.4,0,0.6-0.1c0.2-0.1,0.4-0.2,0.5-0.3
			c0.1-0.1,0.3-0.3,0.3-0.5c0.1-0.2,0.1-0.4,0.1-0.6c0-0.2,0-0.4-0.1-0.6c-0.1-0.2-0.2-0.4-0.3-0.5c-0.1-0.1-0.3-0.3-0.5-0.3
			c-0.2-0.1-0.4-0.1-0.6-0.1c-0.2,0-0.4,0-0.6,0.1c-0.2,0.1-0.4,0.2-0.5,0.3c-0.1,0.1-0.3,0.3-0.3,0.5c-0.1,0.2-0.1,0.4-0.1,0.6
			c0,0.2,0,0.4,0.1,0.6C61.5,146.6,61.6,146.8,61.8,146.9z"/>
		<path class="st0" d="M65.5,146.9c0.1,0.1,0.3,0.3,0.5,0.3c0.2,0.1,0.4,0.1,0.6,0.1c0.2,0,0.4,0,0.6-0.1c0.2-0.1,0.4-0.2,0.5-0.3
			c0.1-0.1,0.3-0.3,0.3-0.5c0.1-0.2,0.1-0.4,0.1-0.6c0-0.2,0-0.4-0.1-0.6c-0.1-0.2-0.2-0.4-0.3-0.5c-0.1-0.1-0.3-0.3-0.5-0.3
			c-0.2-0.1-0.4-0.1-0.6-0.1c-0.2,0-0.4,0-0.6,0.1c-0.2,0.1-0.4,0.2-0.5,0.3c-0.1,0.1-0.3,0.3-0.3,0.5c-0.1,0.2-0.1,0.4-0.1,0.6
			c0,0.2,0,0.4,0.1,0.6C65.3,146.6,65.4,146.8,65.5,146.9z"/>
		<path class="st0" d="M77.5,159.4c0.5,0.4,1,0.7,1.7,1c0.6,0.2,1.3,0.4,2.2,0.4c0,0,0,0,0,0c0.1,0,0.1,0,0.2,0h0h0.1h6.1v-18h-3.3
			V158h-2.9h-0.1c-0.6,0-1.1-0.1-1.7-0.2c-0.5-0.1-1-0.3-1.5-0.5c0.1-0.3,0.1-0.6,0.1-0.9c0-0.5-0.1-1-0.2-1.5
			c-0.2-0.5-0.4-0.9-0.7-1.4c-0.3-0.5-0.7-0.9-1.2-1.4c-0.5-0.4-1.1-0.9-1.7-1.4l3.8-6.6l-2.4-1.5l-5.4,9.1c0.8,0.5,1.4,0.9,2,1.3
			c0.6,0.4,1.1,0.8,1.5,1.2c0.4,0.4,0.7,0.8,0.9,1.1c0.2,0.4,0.3,0.7,0.3,1.1c0,0.2,0,0.5-0.1,0.7c-0.1,0.2-0.2,0.4-0.4,0.5
			c-0.2,0.1-0.4,0.2-0.8,0.3c-0.3,0.1-0.7,0.1-1.2,0.1h-3.7h-0.1h0c-0.5,0-1,0-1.5-0.1c-0.5-0.1-0.9-0.2-1.3-0.4c0-0.1,0-0.3,0-0.4
			c0-0.1,0-0.3,0-0.4v-6.1h-3.3v5.7c0,0.3,0,0.6-0.1,0.9c-0.1,0.2-0.1,0.4-0.3,0.6c-0.1,0.1-0.3,0.2-0.5,0.3
			c-0.2,0.1-0.4,0.1-0.7,0.1h-1.3h-0.1h-2.4v-7.5h-3.3v8.6c0,0.6,0,1.1-0.1,1.5c-0.1,0.4-0.3,0.8-0.5,1.1c-0.2,0.3-0.6,0.6-1,0.8
			c-0.5,0.2-1,0.4-1.8,0.5l0.4,2.8c0.9-0.1,1.7-0.3,2.4-0.6c0.7-0.3,1.3-0.6,1.8-1c0.5-0.4,0.9-0.9,1.2-1.5c0.3-0.6,0.5-1.3,0.7-2.1
			h2.6h0.1h2.4c0.6,0,1.2-0.1,1.6-0.3c0.4-0.2,0.8-0.4,1.1-0.8c0.4,0.3,1,0.6,1.6,0.7c0.5,0.2,1.1,0.2,1.8,0.3c0.1,0,0.2,0,0.3,0
			c0,0,0,0,0,0h0.1h0.1h4c1,0,1.8-0.1,2.5-0.4C76.5,160.1,77.1,159.8,77.5,159.4z"/>
		<polygon class="st0" points="106.4,142.8 103.2,142.8 103.2,158 99.9,158 99.9,147 96.6,147 96.6,158 91,158 91,160.7 
			106.4,160.7 		"/>
		<path class="st0" d="M96,167.4h4.7v-1.5h-0.7c-0.5,0-0.9-0.1-1.1-0.3s-0.4-0.5-0.4-0.7s0.1-0.5,0.3-0.6c0.2-0.1,0.4-0.2,0.6-0.2
			c0.1,0,0.3,0,0.5,0c0.2,0,0.4,0.1,0.5,0.1l0.3-1.5c-0.3-0.1-0.5-0.1-0.8-0.1c-0.2,0-0.4,0-0.6,0c-0.4,0-0.8,0.1-1.1,0.2
			c-0.3,0.1-0.6,0.3-0.8,0.4c-0.2,0.2-0.4,0.4-0.5,0.6c-0.1,0.2-0.1,0.5-0.1,0.7c0,0.3,0.1,0.5,0.2,0.8c0.1,0.2,0.2,0.4,0.4,0.6H96
			V167.4z"/>
		<rect x="110" y="142.8" class="st0" width="3.3" height="18"/>
		<path class="st0" d="M131,160.2c0.3,0.1,0.6,0.3,1,0.3c0.4,0.1,0.9,0.1,1.5,0.1h1.4h0.1h6.4v-10.3h-3.3v7.5H135h-0.1h-0.8
			c-0.3,0-0.5,0-0.6-0.1c-0.2-0.1-0.3-0.1-0.4-0.3s-0.1-0.3-0.2-0.5c0-0.2,0-0.4,0-0.7v-8.1h-3.2v1.4c-0.5,0.1-1,0.3-1.6,0.4
			c-0.6,0.2-1.2,0.4-1.7,0.6c-0.6,0.2-1.1,0.5-1.7,0.8c-0.5,0.3-1,0.7-1.4,1.1c-0.4,0.4-0.8,0.9-1,1.4c-0.3,0.5-0.4,1.1-0.4,1.7
			c0,0.7,0.1,1.3,0.4,1.8c0.3,0.5,0.7,0.9,1.1,1.3c0.5,0.3,1,0.6,1.6,0.7c0.6,0.2,1.1,0.2,1.7,0.2c0.6,0,1.1-0.1,1.6-0.2
			c0.5-0.1,1-0.3,1.6-0.6c0.1,0.2,0.3,0.4,0.4,0.6C130.5,159.9,130.7,160.1,131,160.2z M129.6,156.5c-0.3,0.2-0.7,0.4-1.2,0.5
			c-0.4,0.1-0.9,0.2-1.4,0.2c-0.3,0-0.5,0-0.8-0.1c-0.3-0.1-0.5-0.2-0.7-0.3c-0.2-0.1-0.4-0.3-0.5-0.5c-0.1-0.2-0.2-0.5-0.2-0.8
			c0-0.4,0.1-0.8,0.3-1.1c0.2-0.3,0.5-0.6,1-0.9c0.4-0.3,0.9-0.5,1.5-0.7c0.6-0.2,1.2-0.4,1.9-0.5V156.5z"/>
		<path class="st0" d="M126.2,146.3c0.1,0.1,0.3,0.3,0.5,0.3c0.2,0.1,0.4,0.1,0.6,0.1s0.4,0,0.6-0.1c0.2-0.1,0.4-0.2,0.5-0.3
			c0.1-0.1,0.3-0.3,0.3-0.5c0.1-0.2,0.1-0.4,0.1-0.6c0-0.2,0-0.4-0.1-0.6c-0.1-0.2-0.2-0.4-0.3-0.5c-0.1-0.1-0.3-0.3-0.5-0.3
			c-0.2-0.1-0.4-0.1-0.6-0.1s-0.4,0-0.6,0.1c-0.2,0.1-0.4,0.2-0.5,0.3c-0.1,0.1-0.3,0.3-0.3,0.5c-0.1,0.2-0.1,0.4-0.1,0.6
			c0,0.2,0,0.4,0.1,0.6C125.9,145.9,126,146.1,126.2,146.3z"/>
		<path class="st0" d="M129.9,146.3c0.1,0.1,0.3,0.3,0.5,0.3c0.2,0.1,0.4,0.1,0.6,0.1c0.2,0,0.4,0,0.6-0.1c0.2-0.1,0.4-0.2,0.5-0.3
			c0.1-0.1,0.3-0.3,0.3-0.5c0.1-0.2,0.1-0.4,0.1-0.6c0-0.2,0-0.4-0.1-0.6c-0.1-0.2-0.2-0.4-0.3-0.5c-0.1-0.1-0.3-0.3-0.5-0.3
			c-0.2-0.1-0.4-0.1-0.6-0.1c-0.2,0-0.4,0-0.6,0.1c-0.2,0.1-0.4,0.2-0.5,0.3c-0.1,0.1-0.3,0.3-0.3,0.5c-0.1,0.2-0.1,0.4-0.1,0.6
			c0,0.2,0,0.4,0.1,0.6C129.7,145.9,129.8,146.1,129.9,146.3z"/>
		<path class="st0" d="M138,162.8c-0.2-0.1-0.4-0.1-0.6-0.1c-0.2,0-0.4,0-0.6,0.1c-0.2,0.1-0.4,0.2-0.5,0.3
			c-0.1,0.1-0.3,0.3-0.3,0.5s-0.1,0.4-0.1,0.6c0,0.2,0,0.4,0.1,0.6c0.1,0.2,0.2,0.4,0.3,0.5c0.1,0.1,0.3,0.3,0.5,0.3
			c0.2,0.1,0.4,0.1,0.6,0.1c0.2,0,0.4,0,0.6-0.1c0.2-0.1,0.4-0.2,0.5-0.3c0.1-0.1,0.3-0.3,0.3-0.5c0.1-0.2,0.1-0.4,0.1-0.6
			c0-0.2,0-0.4-0.1-0.6s-0.2-0.4-0.3-0.5C138.3,163,138.1,162.9,138,162.8z"/>
		<path class="st0" d="M142.6,164.9c0.1-0.2,0.1-0.4,0.1-0.6c0-0.2,0-0.4-0.1-0.6c-0.1-0.2-0.2-0.4-0.3-0.5
			c-0.1-0.1-0.3-0.3-0.5-0.3c-0.2-0.1-0.4-0.1-0.6-0.1c-0.2,0-0.4,0-0.6,0.1c-0.2,0.1-0.4,0.2-0.5,0.3c-0.1,0.1-0.3,0.3-0.3,0.5
			c-0.1,0.2-0.1,0.4-0.1,0.6c0,0.2,0,0.4,0.1,0.6c0.1,0.2,0.2,0.4,0.3,0.5c0.1,0.1,0.3,0.3,0.5,0.3c0.2,0.1,0.4,0.1,0.6,0.1
			c0.2,0,0.4,0,0.6-0.1c0.2-0.1,0.4-0.2,0.5-0.3C142.4,165.3,142.5,165.1,142.6,164.9z"/>
		<path class="st0" d="M150.8,160.4c0.7-0.2,1.3-0.6,1.7-1s0.8-0.9,1-1.4s0.3-1.1,0.3-1.7c0-1.1-0.4-2.3-1.3-3.6
			c-0.9-1.3-2.1-2.6-3.7-3.9l-2.4,2.3c0.5,0.4,1,0.8,1.5,1.3c0.5,0.5,0.9,0.9,1.3,1.4c0.4,0.5,0.7,1,1,1.4c0.2,0.5,0.4,0.9,0.4,1.3
			c0,0.2,0,0.4-0.1,0.6c-0.1,0.2-0.2,0.4-0.3,0.5c-0.2,0.1-0.4,0.2-0.7,0.3c-0.3,0.1-0.7,0.1-1.2,0.1h-4.8v2.7h4.7
			C149.2,160.7,150.1,160.6,150.8,160.4z"/>
		<path class="st0" d="M215.3,142.8h-3.3V158h-2.9h-0.1h0c-0.5,0-1,0-1.5-0.1c-0.5-0.1-0.9-0.2-1.3-0.4c0-0.1,0-0.3,0-0.4
			c0-0.1,0-0.3,0-0.4v-6.1h-3.2v5.7c0,0.3,0,0.6-0.1,0.9c-0.1,0.2-0.1,0.4-0.3,0.6c-0.1,0.1-0.3,0.2-0.5,0.3
			c-0.2,0.1-0.4,0.1-0.7,0.1c-0.4,0-0.8-0.1-1.3-0.2c-0.4-0.1-0.9-0.3-1.3-0.6c0-0.1,0-0.2,0-0.3c0-0.1,0-0.2,0-0.3v-4.8h-3.3v4.3
			c0,0.3,0,0.6-0.1,0.9c-0.1,0.2-0.1,0.4-0.3,0.6c-0.1,0.1-0.3,0.2-0.5,0.3c-0.2,0.1-0.4,0.1-0.7,0.1c-0.4,0-0.9-0.1-1.3-0.2
			c-0.5-0.1-0.9-0.3-1.4-0.6c0-0.1,0-0.2,0-0.3c0-0.1,0-0.2,0-0.3V153h-3.3v3.2c0,0.3,0,0.6-0.1,0.9c-0.1,0.2-0.1,0.4-0.3,0.6
			c-0.1,0.1-0.3,0.2-0.5,0.3c-0.2,0.1-0.4,0.1-0.7,0.1h-2.5h-0.1H183c-0.3,0-0.6,0-1,0c-0.3,0-0.6-0.1-1-0.1c-0.3,0-0.6-0.1-0.9-0.1
			c-0.3-0.1-0.5-0.1-0.7-0.2c0.6-0.6,1-1.1,1.4-1.7c0.4-0.5,0.6-1,0.9-1.4c0.2-0.4,0.4-0.8,0.4-1.2c0.1-0.3,0.1-0.6,0.1-0.9
			c0-0.5-0.1-0.9-0.4-1.2c-0.3-0.3-0.6-0.6-1-0.8s-0.9-0.4-1.4-0.5c-0.5-0.1-1-0.1-1.5-0.1c-0.6,0-1.2,0-1.8,0.1
			c-0.6,0.1-1.1,0.2-1.6,0.3c-0.5,0.1-0.9,0.3-1.3,0.5c-0.4,0.2-0.7,0.3-1,0.5c-0.1,0.1-0.2,0.2-0.4,0.4c-0.1,0.2-0.2,0.4-0.3,0.6
			c-0.1,0.2-0.2,0.5-0.3,0.7c-0.1,0.2-0.1,0.4-0.2,0.6c0.1,0.1,0.2,0.2,0.3,0.4c0.1,0.2,0.3,0.4,0.6,0.7c0.1,0.2,0.3,0.4,0.5,0.7
			c0.2,0.3,0.4,0.5,0.6,0.8c0.2,0.3,0.5,0.5,0.7,0.8c0.2,0.3,0.5,0.5,0.7,0.7c-0.3,0.1-0.7,0.2-1.3,0.3c-0.5,0.1-1.2,0.1-1.8,0.1
			h-1.7h-0.1h-2.2V156c0-0.8-0.1-1.5-0.2-2.2c-0.2-0.6-0.4-1.1-0.6-1.6c-0.3-0.4-0.6-0.8-0.9-1.1c-0.3-0.3-0.7-0.5-1.1-0.7
			c-0.4-0.2-0.8-0.3-1.2-0.4c-0.4-0.1-0.8-0.1-1.1-0.1c-0.9,0-1.7,0.2-2.4,0.5c-0.7,0.3-1.3,0.7-1.9,1.2c-0.5,0.5-0.9,1.1-1.2,1.8
			c-0.3,0.7-0.4,1.4-0.4,2.2c0,0.6,0.1,1.1,0.3,1.7c0.2,0.6,0.6,1.1,1,1.6c0.5,0.5,1.1,0.9,1.9,1.2c0.8,0.3,1.7,0.5,2.8,0.5h1.5
			c-0.2,0.4-0.5,0.7-0.9,1c-0.4,0.3-0.8,0.6-1.3,0.8c-0.5,0.3-1.1,0.5-1.7,0.6c-0.7,0.2-1.4,0.3-2.1,0.3l0.3,2.7
			c1.1-0.1,2.1-0.3,3-0.6c1-0.3,1.8-0.7,2.6-1.1c0.8-0.5,1.5-1,2.1-1.6s1-1.3,1.3-2.1h2.4h0.1h1.5c0.6,0,1.1,0,1.6-0.1
			c0.5-0.1,1-0.2,1.5-0.3c0.5-0.1,0.9-0.3,1.3-0.4c0.4-0.2,0.8-0.3,1.1-0.5c0.3,0.1,0.6,0.3,0.9,0.4c0.4,0.2,0.8,0.3,1.3,0.4
			c0.5,0.1,1,0.3,1.6,0.3c0.6,0.1,1.2,0.1,1.8,0.1h1.8h0.1h3.6c0.7,0,1.3-0.1,1.8-0.3c0.5-0.2,0.8-0.5,1.1-0.9
			c0.5,0.4,1.1,0.7,1.7,0.9c0.7,0.2,1.4,0.4,2.3,0.4h0.5c0.7,0,1.3-0.1,1.8-0.3c0.5-0.2,0.8-0.5,1.1-0.9c0.5,0.4,1.1,0.7,1.7,0.9
			c0.7,0.2,1.4,0.3,2.2,0.3h0.5c0.6,0,1.2-0.1,1.6-0.3c0.4-0.2,0.8-0.4,1.1-0.8c0.4,0.3,1,0.6,1.6,0.7c0.5,0.2,1.1,0.2,1.8,0.3
			c0.1,0,0.2,0,0.3,0c0,0,0,0,0,0h0h0.1h6.1V142.8z M164.2,158h-1.8c-1,0-1.8-0.2-2.3-0.7c-0.5-0.5-0.7-1.1-0.7-1.9
			c0-0.4,0.1-0.8,0.2-1.1c0.1-0.3,0.3-0.6,0.5-0.9c0.2-0.2,0.5-0.4,0.8-0.6c0.3-0.1,0.6-0.2,0.9-0.2c0.3,0,0.6,0.1,0.9,0.2
			c0.3,0.1,0.5,0.3,0.8,0.6c0.2,0.3,0.4,0.7,0.5,1.3c0.1,0.5,0.2,1.2,0.2,2.1V158z M179.1,154.1c-0.1,0.2-0.2,0.5-0.4,0.7
			c-0.2,0.3-0.4,0.5-0.7,0.8s-0.6,0.6-1,0.9c-0.3-0.2-0.6-0.5-0.9-0.8c-0.3-0.3-0.6-0.6-0.9-1c-0.3-0.3-0.5-0.7-0.8-1
			c-0.2-0.3-0.4-0.6-0.5-0.8c0.2-0.1,0.5-0.2,0.8-0.3c0.3-0.1,0.5-0.2,0.8-0.2c0.3-0.1,0.5-0.1,0.8-0.1c0.3,0,0.5-0.1,0.7-0.1
			c0.3,0,0.6,0,0.9,0.1c0.3,0.1,0.5,0.2,0.7,0.3c0.2,0.1,0.4,0.3,0.5,0.4c0.1,0.2,0.2,0.3,0.2,0.5
			C179.2,153.7,179.2,153.9,179.1,154.1z"/>
		<rect x="218.6" y="142.8" class="st0" width="3.2" height="18"/>
		<path class="st0" d="M234.8,146.3c0.1,0.1,0.3,0.3,0.5,0.3c0.2,0.1,0.4,0.1,0.6,0.1c0.2,0,0.4,0,0.6-0.1c0.2-0.1,0.4-0.2,0.5-0.3
			c0.1-0.1,0.3-0.3,0.3-0.5c0.1-0.2,0.1-0.4,0.1-0.6c0-0.2,0-0.4-0.1-0.6c-0.1-0.2-0.2-0.4-0.3-0.5c-0.1-0.1-0.3-0.3-0.5-0.3
			s-0.4-0.1-0.6-0.1c-0.2,0-0.4,0-0.6,0.1c-0.2,0.1-0.4,0.2-0.5,0.3c-0.1,0.1-0.3,0.3-0.3,0.5c-0.1,0.2-0.1,0.4-0.1,0.6
			c0,0.2,0,0.4,0.1,0.6C234.6,145.9,234.7,146.1,234.8,146.3z"/>
		<path class="st0" d="M232.1,158.9c0.5,0.3,1,0.6,1.6,0.7c0.6,0.2,1.1,0.2,1.7,0.2c0.6,0,1.1-0.1,1.6-0.2c0.5-0.1,1-0.3,1.6-0.6
			c0.1,0.2,0.3,0.4,0.4,0.6c0.2,0.2,0.4,0.4,0.7,0.5c0.3,0.1,0.6,0.3,1,0.3c0.4,0.1,0.9,0.1,1.5,0.1h1.4h0.1h1.5
			c0.5,0,1.1,0,1.6-0.1c0.5-0.1,1-0.2,1.5-0.3c0.5-0.1,0.9-0.3,1.3-0.4c0.4-0.2,0.8-0.3,1.1-0.5c0.2,0.1,0.6,0.3,0.9,0.4
			c0.4,0.2,0.8,0.3,1.3,0.4c0.5,0.1,1,0.3,1.6,0.3c0.6,0.1,1.2,0.1,1.8,0.1h1.8h0.1h0.9c1.4,0,2.5-0.5,3.2-1.6
			c0.2,0.2,0.5,0.4,0.8,0.6c0.3,0.2,0.6,0.4,1,0.6c0.4,0.2,0.8,0.3,1.3,0.4c0.5,0.1,1,0.2,1.6,0.2c0.8,0,1.6-0.1,2.2-0.4
			c0.6-0.3,1.2-0.7,1.6-1.1c0.4-0.5,0.8-1,1-1.6c0.2-0.6,0.3-1.2,0.3-1.9c0-0.4,0-0.8-0.1-1.3c-0.1-0.4-0.2-0.9-0.4-1.3
			c-0.2-0.4-0.4-0.8-0.7-1.2c-0.3-0.4-0.6-0.7-1-1c-0.4-0.3-0.9-0.5-1.4-0.7c-0.5-0.2-1.1-0.2-1.7-0.2c-0.4,0-0.9,0.1-1.5,0.2
			c-0.5,0.2-1.1,0.5-1.6,0.9s-1.1,1.1-1.6,1.9c-0.5,0.8-1,1.9-1.4,3.3c-0.1,0.5-0.4,0.8-0.7,1c-0.3,0.2-0.7,0.3-1.1,0.3h-0.5H258
			h-1.2c-0.3,0-0.6,0-1,0c-0.3,0-0.6-0.1-1-0.1c-0.3,0-0.6-0.1-0.9-0.1c-0.3-0.1-0.5-0.1-0.7-0.2c0.6-0.6,1-1.1,1.4-1.7
			c0.4-0.5,0.6-1,0.9-1.4c0.2-0.4,0.3-0.8,0.4-1.2c0.1-0.3,0.1-0.6,0.1-0.9c0-0.5-0.1-0.9-0.4-1.2c-0.3-0.3-0.6-0.6-1-0.8
			s-0.9-0.4-1.4-0.5c-0.5-0.1-1-0.1-1.5-0.1c-0.6,0-1.2,0-1.8,0.1c-0.6,0.1-1.1,0.2-1.6,0.3c-0.5,0.1-0.9,0.3-1.3,0.5
			c-0.4,0.2-0.7,0.3-1,0.5c-0.1,0.1-0.2,0.2-0.4,0.4c-0.1,0.2-0.2,0.4-0.3,0.6c-0.1,0.2-0.2,0.5-0.3,0.7c-0.1,0.2-0.1,0.4-0.2,0.6
			c0.1,0.1,0.2,0.2,0.3,0.4c0.1,0.2,0.3,0.4,0.5,0.7c0.1,0.2,0.3,0.4,0.5,0.7c0.2,0.3,0.4,0.5,0.6,0.8c0.2,0.3,0.5,0.5,0.7,0.8
			c0.2,0.3,0.5,0.5,0.7,0.7c-0.3,0.1-0.7,0.2-1.3,0.3c-0.5,0.1-1.2,0.1-1.8,0.1h-1.7h-0.1h-0.8c-0.3,0-0.5,0-0.6-0.1
			c-0.2-0.1-0.3-0.1-0.4-0.3s-0.1-0.3-0.2-0.5c0-0.2,0-0.4,0-0.7v-8.1h-3.2v1.4c-0.5,0.1-1,0.3-1.6,0.4c-0.6,0.2-1.2,0.4-1.7,0.6
			c-0.6,0.2-1.1,0.5-1.7,0.8c-0.5,0.3-1,0.7-1.4,1.1c-0.4,0.4-0.8,0.9-1,1.4c-0.3,0.5-0.4,1.1-0.4,1.7c0,0.7,0.1,1.3,0.4,1.8
			C231.2,158.2,231.6,158.6,232.1,158.9z M263.6,155.6c0.2-0.5,0.4-1,0.7-1.4c0.3-0.4,0.6-0.7,0.9-1s0.7-0.4,1.1-0.4
			c0.4,0,0.8,0.1,1.1,0.3c0.3,0.2,0.6,0.4,0.8,0.7c0.2,0.3,0.4,0.6,0.5,0.9c0.1,0.3,0.2,0.7,0.2,0.9c0,0.4-0.1,0.8-0.2,1.1
			c-0.1,0.3-0.3,0.5-0.5,0.7c-0.2,0.2-0.5,0.3-0.9,0.4c-0.3,0.1-0.7,0.1-1.1,0.1c-0.3,0-0.6,0-0.9-0.1c-0.3-0.1-0.6-0.1-0.9-0.2
			c-0.3-0.1-0.5-0.2-0.8-0.3c-0.2-0.1-0.4-0.2-0.5-0.3C263.3,156.7,263.5,156.1,263.6,155.6z M248.4,153.8c-0.2-0.3-0.4-0.6-0.5-0.8
			c0.2-0.1,0.5-0.2,0.8-0.3c0.3-0.1,0.5-0.2,0.8-0.2c0.3-0.1,0.5-0.1,0.8-0.1c0.3,0,0.5-0.1,0.7-0.1c0.3,0,0.6,0,0.9,0.1
			c0.3,0.1,0.5,0.2,0.7,0.3c0.2,0.1,0.4,0.3,0.5,0.4c0.1,0.2,0.2,0.3,0.2,0.5c0,0.1,0,0.3-0.1,0.6c-0.1,0.2-0.2,0.5-0.4,0.7
			c-0.2,0.3-0.4,0.5-0.7,0.8c-0.3,0.3-0.6,0.6-1,0.9c-0.3-0.2-0.6-0.5-0.9-0.8c-0.3-0.3-0.6-0.6-0.9-1
			C248.9,154.4,248.6,154.1,248.4,153.8z M233.9,154.4c0.2-0.3,0.5-0.6,1-0.9c0.4-0.3,0.9-0.5,1.5-0.7c0.6-0.2,1.2-0.4,1.9-0.5v4.2
			c-0.3,0.2-0.7,0.4-1.2,0.5c-0.4,0.1-0.9,0.2-1.4,0.2c-0.3,0-0.5,0-0.8-0.1c-0.3-0.1-0.5-0.2-0.7-0.3c-0.2-0.1-0.4-0.3-0.5-0.5
			c-0.1-0.2-0.2-0.5-0.2-0.8C233.6,155.1,233.7,154.8,233.9,154.4z"/>
		<path class="st0" d="M238.6,146.3c0.1,0.1,0.3,0.3,0.5,0.3c0.2,0.1,0.4,0.1,0.6,0.1c0.2,0,0.4,0,0.6-0.1c0.2-0.1,0.4-0.2,0.5-0.3
			c0.1-0.1,0.3-0.3,0.3-0.5c0.1-0.2,0.1-0.4,0.1-0.6c0-0.2,0-0.4-0.1-0.6c-0.1-0.2-0.2-0.4-0.3-0.5c-0.1-0.1-0.3-0.3-0.5-0.3
			c-0.2-0.1-0.4-0.1-0.6-0.1c-0.2,0-0.4,0-0.6,0.1c-0.2,0.1-0.4,0.2-0.5,0.3c-0.1,0.1-0.3,0.3-0.3,0.5c-0.1,0.2-0.1,0.4-0.1,0.6
			c0,0.2,0,0.4,0.1,0.6C238.3,145.9,238.4,146.1,238.6,146.3z"/>
		<path class="st0" d="M275.6,159.6c0.3,0.4,0.7,0.6,1.2,0.8c0.5,0.2,1.1,0.3,1.8,0.3h1.3h0.1h12.9h0.1h6.1v-18h-3.3V158H293h-0.1
			h-1.1c-0.2,0-0.4-0.1-0.5-0.3c-0.1-0.2-0.3-0.5-0.4-0.9c-0.1-0.4-0.2-0.8-0.3-1.2c-0.1-0.5-0.2-1-0.2-1.5
			c-0.1-0.6-0.3-1.2-0.5-1.7s-0.6-1-1-1.4c-0.4-0.4-0.9-0.7-1.4-0.9c-0.6-0.2-1.2-0.3-1.9-0.3c-0.7,0-1.4,0.1-2,0.2
			c-0.6,0.1-1.2,0.3-1.8,0.5v2.6c0.3-0.1,0.5-0.2,0.8-0.3c0.3-0.1,0.6-0.2,0.9-0.2c0.3-0.1,0.5-0.1,0.8-0.1c0.3,0,0.5,0,0.6,0
			c0.5,0,0.9,0.1,1.2,0.4c0.3,0.2,0.6,0.5,0.8,0.9c0.2,0.4,0.3,0.8,0.4,1.3c0.1,0.5,0.2,0.9,0.2,1.4c0.1,0.3,0.1,0.6,0.2,0.9
			c0.1,0.3,0.2,0.6,0.3,0.8H280H280h-0.6c-0.3,0-0.5,0-0.7-0.1c-0.2-0.1-0.3-0.2-0.5-0.3c-0.1-0.2-0.2-0.4-0.3-0.6
			c-0.1-0.3-0.1-0.6-0.1-1v-13.1h-3.3v13.8c0,0.6,0.1,1.2,0.2,1.7C275.1,158.8,275.3,159.2,275.6,159.6z"/>
		<path class="st0" d="M285.2,165.8c0.2,0.1,0.4,0.1,0.6,0.1c0.2,0,0.4,0,0.6-0.1c0.2-0.1,0.4-0.2,0.5-0.3c0.1-0.1,0.3-0.3,0.3-0.5
			c0.1-0.2,0.1-0.4,0.1-0.6c0-0.2,0-0.4-0.1-0.6c-0.1-0.2-0.2-0.4-0.3-0.5c-0.1-0.1-0.3-0.3-0.5-0.3c-0.2-0.1-0.4-0.1-0.6-0.1
			c-0.2,0-0.4,0-0.6,0.1c-0.2,0.1-0.4,0.2-0.5,0.3c-0.1,0.1-0.3,0.3-0.3,0.5c-0.1,0.2-0.1,0.4-0.1,0.6c0,0.2,0,0.4,0.1,0.6
			c0.1,0.2,0.2,0.4,0.3,0.5C284.9,165.6,285.1,165.7,285.2,165.8z"/>
		<rect x="302.4" y="142.8" class="st0" width="3.3" height="18"/>
		<path class="st0" d="M224.6,208.1c0.5-0.6,1-1.1,1.5-1.7c0.2-0.3,0.4-0.5,0.6-0.8c0.2-0.3,0.4-0.6,0.5-0.9c0.1-0.3,0.3-0.7,0.3-1
			s0.1-0.7,0.1-1c0-0.6-0.1-1.2-0.3-1.6s-0.4-0.8-0.8-1.1c-0.3-0.3-0.8-0.5-1.2-0.7c-0.5-0.1-1-0.2-1.6-0.2c-0.7,0-1.3,0.1-1.9,0.2
			c-0.6,0.2-1.2,0.4-1.8,0.7l0.2,2.1c0.4-0.3,0.9-0.5,1.4-0.7c0.5-0.2,1-0.3,1.5-0.3c0.3,0,0.5,0,0.8,0.1c0.2,0.1,0.5,0.2,0.7,0.3
			c0.2,0.1,0.3,0.3,0.5,0.5s0.2,0.5,0.2,0.8c0,0.4-0.1,0.8-0.3,1.2c-0.2,0.4-0.5,0.9-0.8,1.3c-0.3,0.4-0.7,0.9-1.1,1.3
			c-0.4,0.4-0.8,0.8-1.2,1.2c-0.4,0.4-0.8,0.8-1.2,1.1c-0.4,0.3-0.7,0.6-0.9,0.9v2.1h8.4v-2H223
			C223.5,209.2,224.1,208.6,224.6,208.1z"/>
		<path class="st0" d="M238.1,202.4c-0.1-0.5-0.3-0.9-0.5-1.4c-0.2-0.4-0.5-0.8-0.8-1.1c-0.3-0.3-0.7-0.6-1.2-0.8
			c-0.5-0.2-1-0.3-1.6-0.3c-0.6,0-1.1,0.1-1.6,0.3c-0.4,0.2-0.8,0.4-1.1,0.8c-0.3,0.3-0.6,0.7-0.8,1.1c-0.2,0.4-0.4,0.9-0.5,1.4
			c-0.1,0.5-0.2,1-0.3,1.5c-0.1,0.5-0.1,1-0.1,1.5c0,0.5,0,1,0.1,1.5c0,0.5,0.1,1,0.3,1.5c0.1,0.5,0.3,0.9,0.5,1.4
			c0.2,0.4,0.5,0.8,0.8,1.1c0.3,0.3,0.7,0.6,1.2,0.8s1,0.3,1.6,0.3c0.6,0,1.1-0.1,1.6-0.3c0.5-0.2,0.8-0.4,1.2-0.8
			c0.3-0.3,0.6-0.7,0.8-1.1c0.2-0.4,0.4-0.9,0.5-1.4c0.1-0.5,0.2-1,0.3-1.5c0.1-0.5,0.1-1,0.1-1.5c0-0.5,0-1-0.1-1.5
			C238.3,203.4,238.2,202.9,238.1,202.4z M235.9,206.8c0,0.2,0,0.5-0.1,0.8c0,0.3-0.1,0.5-0.1,0.8c-0.1,0.2-0.1,0.4-0.2,0.6
			c-0.1,0.2-0.2,0.4-0.3,0.5c-0.1,0.2-0.3,0.3-0.5,0.4c-0.2,0.1-0.4,0.1-0.7,0.1c-0.3,0-0.6-0.1-0.8-0.3c-0.2-0.2-0.4-0.4-0.5-0.7
			c-0.1-0.3-0.2-0.6-0.3-0.9c-0.1-0.3-0.1-0.7-0.2-1c0-0.3-0.1-0.7-0.1-1c0-0.3,0-0.6,0-0.8s0-0.5,0-0.8c0-0.3,0-0.6,0.1-1
			c0-0.3,0.1-0.7,0.2-1c0.1-0.3,0.2-0.7,0.3-0.9c0.1-0.3,0.3-0.5,0.5-0.7c0.2-0.2,0.5-0.3,0.8-0.3c0.3,0,0.6,0.1,0.8,0.2
			c0.2,0.1,0.4,0.3,0.5,0.5c0.1,0.2,0.2,0.5,0.3,0.8c0.1,0.3,0.1,0.6,0.2,0.9c0,0.3,0.1,0.6,0.1,0.9c0,0.3,0,0.6,0,0.8V206.8z"/>
		<polygon class="st0" points="240.5,202 241.7,203.7 243.8,202 243.8,211.7 246.4,211.7 246.4,199.1 244.1,199.1 		"/>
		<polygon class="st0" points="250.5,202 251.7,203.7 253.9,202 253.9,211.7 256.4,211.7 256.4,199.1 254.2,199.1 		"/>
		<rect x="259.7" y="205.8" class="st0" width="4.7" height="2"/>
		<polygon class="st0" points="266.5,202 267.8,203.7 269.9,202 269.9,211.7 272.4,211.7 272.4,199.1 270.2,199.1 		"/>
		<path class="st0" d="M283.2,199.1h-3.1l-4.7,7.9v2h5.4v2.6h2.4v-2.6h1.6v-1.9h-1.6V199.1z M280.8,207.2h-3.1l3.1-5.5h0V207.2z"/>
		<path class="st0" d="M293.4,206.1c-0.2-0.3-0.4-0.5-0.7-0.6c-0.3-0.2-0.7-0.3-1.1-0.3v0c0.4-0.1,0.7-0.3,1-0.5
			c0.3-0.2,0.5-0.4,0.7-0.6c0.2-0.2,0.4-0.5,0.5-0.8c0.1-0.3,0.2-0.7,0.2-1.1c0-0.6-0.1-1.1-0.4-1.5c-0.2-0.4-0.5-0.7-0.9-1
			c-0.4-0.3-0.8-0.4-1.3-0.5c-0.5-0.1-1-0.2-1.5-0.2c-0.6,0-1.2,0-1.8,0.1c-0.6,0.1-1.2,0.3-1.7,0.5l0.1,2c0.4-0.2,0.9-0.4,1.4-0.5
			c0.5-0.1,1-0.2,1.5-0.2c0.3,0,0.6,0,0.8,0.1c0.3,0.1,0.5,0.1,0.7,0.3c0.2,0.1,0.4,0.3,0.5,0.5c0.1,0.2,0.2,0.5,0.2,0.8
			c0,0.3,0,0.5-0.1,0.7c-0.1,0.2-0.2,0.3-0.4,0.5c-0.2,0.1-0.4,0.2-0.6,0.3c-0.2,0.1-0.5,0.1-0.7,0.2c-0.2,0-0.5,0.1-0.7,0.1
			c-0.2,0-0.5,0-0.7,0c-0.1,0-0.2,0-0.4,0c-0.1,0-0.2,0-0.3,0v2c0.1,0,0.3,0,0.4,0c0.2,0,0.3,0,0.5,0c0.4,0,0.7,0,1.1,0.1
			c0.4,0,0.7,0.1,1,0.3c0.3,0.1,0.5,0.3,0.7,0.6c0.2,0.3,0.3,0.6,0.3,1.1c0,0.3-0.1,0.6-0.3,0.8c-0.2,0.2-0.4,0.4-0.7,0.6
			c-0.3,0.1-0.5,0.2-0.9,0.3c-0.3,0.1-0.6,0.1-0.9,0.1c-0.5,0-0.9,0-1.4-0.1c-0.5-0.1-0.9-0.2-1.4-0.4l-0.1,2.1
			c0.5,0.2,1.1,0.3,1.6,0.3c0.6,0.1,1.1,0.1,1.7,0.1c0.9,0,1.7-0.1,2.5-0.4c0.1,0,0.2-0.1,0.4-0.1c0.1,0,0.2-0.1,0.4-0.2
			c0.3-0.2,0.5-0.3,0.7-0.5c0.2-0.2,0.4-0.5,0.5-0.7c0.1-0.3,0.2-0.5,0.3-0.8c0.1-0.3,0.1-0.6,0.1-0.9c0-0.4,0-0.8-0.1-1.1
			S293.6,206.4,293.4,206.1z"/>
		<path class="st0" d="M300.7,208.1c0.5-0.6,1-1.1,1.5-1.7c0.2-0.3,0.4-0.5,0.6-0.8c0.2-0.3,0.4-0.6,0.5-0.9c0.1-0.3,0.3-0.7,0.3-1
			c0.1-0.3,0.1-0.7,0.1-1c0-0.6-0.1-1.2-0.3-1.6c-0.2-0.5-0.4-0.8-0.8-1.1c-0.3-0.3-0.8-0.5-1.2-0.7c-0.5-0.1-1-0.2-1.6-0.2
			c-0.7,0-1.3,0.1-1.9,0.2c-0.6,0.2-1.2,0.4-1.8,0.7l0.2,2.1c0.4-0.3,0.9-0.5,1.4-0.7c0.5-0.2,1-0.3,1.5-0.3c0.3,0,0.5,0,0.8,0.1
			c0.2,0.1,0.5,0.2,0.7,0.3s0.3,0.3,0.5,0.5s0.2,0.5,0.2,0.8c0,0.4-0.1,0.8-0.3,1.2c-0.2,0.4-0.5,0.9-0.8,1.3
			c-0.3,0.4-0.7,0.9-1.1,1.3c-0.4,0.4-0.8,0.8-1.2,1.2c-0.4,0.4-0.8,0.8-1.2,1.1c-0.4,0.3-0.7,0.6-0.9,0.9v2.1h8.4v-2h-5.1
			C299.7,209.2,300.2,208.6,300.7,208.1z"/>
	</g>
	<g>
		<g>
			<linearGradient id="SVGID_1_" gradientUnits="userSpaceOnUse" x1="281.068" y1="18.0456" x2="371.3095" y2="98.5388">
				<stop  offset="0" style="stop-color:#11CEC8"/>
				<stop  offset="2.709881e-02" style="stop-color:#10CAC8"/>
				<stop  offset="0.5039" style="stop-color:#0080C0"/>
				<stop  offset="0.9951" style="stop-color:#61269D"/>
			</linearGradient>
			<path class="st1" d="M275.9,37.8c0.9,0,1.8-0.2,2.6-0.7l0.1,0c1.8-1.1,2.8-3.1,2.6-5l16.3-9.4l30.5,17.6v12.5h4.4V37.6
				l-34.9-20.1L279,28.2c-1.6-1.1-3.8-1.3-5.7-0.3l-0.1,0c-2.5,1.5-3.4,4.7-1.9,7.2C272.3,36.9,274.1,37.8,275.9,37.8z"/>
			
				<linearGradient id="SVGID_00000098194325982203825670000008624883782419857562_" gradientUnits="userSpaceOnUse" x1="245.2287" y1="58.2253" x2="335.4702" y2="138.7185">
				<stop  offset="0" style="stop-color:#11CEC8"/>
				<stop  offset="2.709881e-02" style="stop-color:#10CAC8"/>
				<stop  offset="0.5039" style="stop-color:#0080C0"/>
				<stop  offset="0.9951" style="stop-color:#61269D"/>
			</linearGradient>
			<path style="fill:url(#SVGID_00000098194325982203825670000008624883782419857562_);" d="M307.1,120.7L307.1,120.7
				c-1.9-1.1-4.1-0.9-5.7,0.3l-17.3-9.7V67.8h-4.4v44.7v1.3l19.6,11c-0.2,2,0.8,4,2.7,5l0.1,0c0.8,0.5,1.7,0.7,2.6,0.7
				c1.8,0,3.6-1,4.6-2.7C310.5,125.3,309.6,122.1,307.1,120.7z"/>
			
				<linearGradient id="SVGID_00000119823428686519155680000017749121187246854030_" gradientUnits="userSpaceOnUse" x1="260.9887" y1="40.5566" x2="351.2303" y2="121.0498">
				<stop  offset="0" style="stop-color:#11CEC8"/>
				<stop  offset="2.709881e-02" style="stop-color:#10CAC8"/>
				<stop  offset="0.5039" style="stop-color:#0080C0"/>
				<stop  offset="0.9951" style="stop-color:#61269D"/>
			</linearGradient>
			<path style="fill:url(#SVGID_00000119823428686519155680000017749121187246854030_);" d="M357.2,102L357.2,102
				c-2,1.2-3,3.3-2.7,5.4l-19.2,11.4l-37.6-21.7l-2.2,3.8l39.9,23l21.4-12.7c0.9,0.7,2.1,1,3.2,1c1,0,1.9-0.2,2.8-0.8l0,0
				c2.6-1.6,3.5-4.9,1.9-7.5C363.2,101.3,359.8,100.4,357.2,102z"/>
			
				<linearGradient id="SVGID_00000170973400475241645010000011850182946236805000_" gradientUnits="userSpaceOnUse" x1="284.6335" y1="14.0482" x2="374.8751" y2="94.5415">
				<stop  offset="0" style="stop-color:#11CEC8"/>
				<stop  offset="2.709881e-02" style="stop-color:#10CAC8"/>
				<stop  offset="0.5039" style="stop-color:#0080C0"/>
				<stop  offset="0.9951" style="stop-color:#61269D"/>
			</linearGradient>
			<path style="fill:url(#SVGID_00000170973400475241645010000011850182946236805000_);" d="M374.6,49.6l0-0.1
				c0-2.9-2.4-5.2-5.3-5.2c-2.9,0-5.2,2.4-5.2,5.3l0,0.1c0,2.1,1.3,3.9,3.1,4.7l0.3,23.5l-37.6,21.7l2.2,3.8l39.9-23l-0.3-26.1
				C373.4,53.6,374.6,51.7,374.6,49.6z"/>
			
				<linearGradient id="SVGID_00000120535974683349797120000000817274840665757584_" gradientUnits="userSpaceOnUse" x1="282.971" y1="15.9121" x2="373.2126" y2="96.4053">
				<stop  offset="0" style="stop-color:#11CEC8"/>
				<stop  offset="2.709881e-02" style="stop-color:#10CAC8"/>
				<stop  offset="0.5039" style="stop-color:#0080C0"/>
				<stop  offset="0.9951" style="stop-color:#61269D"/>
			</linearGradient>
			<path style="fill:url(#SVGID_00000120535974683349797120000000817274840665757584_);" d="M324.4,19.9L324.4,19.9
				c0.9,0.5,1.8,0.8,2.7,0.8c1.1,0,2.2-0.3,3-1l18.2,10.5V69l-8.5,5l-4.1,7.7l-18.2,7.4l-11.1-7.7l-3.5-10.1l-7.3-7.2l-3.1,3.1
				l6.6,6.4l3.6,10.5l14.3,9.8l21.9-8.8l4.3-8l9.6-5.7V27.6l-20.4-11.7c0.2-2-0.8-4-2.6-5l-0.1-0.1c-2.5-1.4-5.7-0.6-7.2,1.9
				S321.9,18.5,324.4,19.9z"/>
			
				<linearGradient id="SVGID_00000182507164943729255320000003000754520895175559_" gradientUnits="userSpaceOnUse" x1="257.79" y1="44.1427" x2="348.0315" y2="124.636">
				<stop  offset="0" style="stop-color:#11CEC8"/>
				<stop  offset="2.709881e-02" style="stop-color:#10CAC8"/>
				<stop  offset="0.5039" style="stop-color:#0080C0"/>
				<stop  offset="0.9951" style="stop-color:#61269D"/>
			</linearGradient>
			<path style="fill:url(#SVGID_00000182507164943729255320000003000754520895175559_);" d="M265.2,85.4V62.8L301.1,42l3.9,2.2
				l1,9.8l6.9,6.8l9.4,3.8l4.4,6.7l4.5,3.4l2.6-3.5l-3.9-2.9l-4.7-7.2l-9.8-4l-5.2-5.1l-1.1-10.4l-8.1-4.6l-40.3,23.4v25.1
				c-1.8,0.8-3.1,2.7-3.1,4.8v0.1c0,2.9,2.4,5.3,5.3,5.3c2.9,0,5.3-2.4,5.3-5.3v-0.1C268.2,88,267,86.2,265.2,85.4z"/>
		</g>
	</g>
	<g>
		<path class="st0" d="M22.5,117.6c0,0.4,0,0.8,0.1,1.1c0,0.3,0.1,0.5,0.3,0.7c0.1,0.2,0.3,0.3,0.5,0.4c0.2,0.1,0.5,0.1,0.9,0.1h1.3
			c0.3,0,0.6,0,0.8,0.1c0.2,0,0.3,0.1,0.4,0.2c0.1,0.1,0.1,0.2,0.2,0.4c0,0.2,0,0.4,0,0.6v1.3c0,0.3,0,0.6-0.1,0.7
			c0,0.2-0.1,0.3-0.2,0.4c-0.1,0.1-0.3,0.2-0.4,0.2c-0.2,0-0.4,0-0.7,0h-2.1c-0.8,0-1.5-0.1-2.1-0.2c-0.6-0.1-1.1-0.3-1.5-0.5
			c-0.4-0.2-0.8-0.5-1-0.7c-0.3-0.3-0.5-0.6-0.6-0.9c-0.8,0.4-1.6,0.7-2.3,0.9c-0.7,0.2-1.5,0.3-2.3,0.3c-0.8,0-1.6-0.1-2.5-0.3
			c-0.8-0.2-1.6-0.6-2.3-1.1c-0.7-0.5-1.2-1.1-1.7-1.8c-0.4-0.7-0.6-1.6-0.6-2.7c0-0.9,0.2-1.8,0.5-2.5c0.4-0.7,0.9-1.4,1.5-2
			c0.6-0.6,1.3-1.1,2.1-1.6c0.8-0.5,1.6-0.9,2.4-1.2c0.8-0.3,1.7-0.6,2.5-0.9c0.8-0.2,1.6-0.5,2.3-0.6v-2.1h4.7V117.6z M17.8,111.6
			c-1,0.2-2,0.5-2.8,0.8c-0.8,0.3-1.6,0.6-2.2,1s-1.1,0.8-1.4,1.3c-0.3,0.5-0.5,1-0.5,1.6c0,0.5,0.1,0.9,0.3,1.2
			c0.2,0.3,0.4,0.6,0.7,0.8c0.3,0.2,0.6,0.3,1,0.4c0.4,0.1,0.8,0.1,1.1,0.1c0.7,0,1.4-0.1,2-0.3c0.6-0.2,1.2-0.5,1.7-0.8V111.6z
			 M12.1,101.1c0-0.3,0.1-0.6,0.2-0.9c0.1-0.3,0.3-0.5,0.5-0.7c0.2-0.2,0.5-0.4,0.7-0.5c0.3-0.1,0.6-0.2,0.9-0.2
			c0.3,0,0.6,0.1,0.9,0.2c0.3,0.1,0.5,0.3,0.7,0.5c0.2,0.2,0.4,0.5,0.5,0.7c0.1,0.3,0.2,0.6,0.2,0.9c0,0.3-0.1,0.6-0.2,0.9
			c-0.1,0.3-0.3,0.5-0.5,0.7c-0.2,0.2-0.5,0.4-0.7,0.5c-0.3,0.1-0.6,0.2-0.9,0.2c-0.3,0-0.6-0.1-0.9-0.2c-0.3-0.1-0.5-0.3-0.7-0.5
			c-0.2-0.2-0.4-0.5-0.5-0.7C12.1,101.7,12.1,101.4,12.1,101.1z M17.5,101.1c0-0.3,0.1-0.6,0.2-0.9c0.1-0.3,0.3-0.5,0.5-0.7
			c0.2-0.2,0.5-0.4,0.7-0.5c0.3-0.1,0.6-0.2,0.9-0.2c0.3,0,0.6,0.1,0.9,0.2c0.3,0.1,0.5,0.3,0.7,0.5c0.2,0.2,0.4,0.5,0.5,0.7
			c0.1,0.3,0.2,0.6,0.2,0.9c0,0.3-0.1,0.6-0.2,0.9c-0.1,0.3-0.3,0.5-0.5,0.7c-0.2,0.2-0.5,0.4-0.7,0.5c-0.3,0.1-0.6,0.2-0.9,0.2
			c-0.3,0-0.6-0.1-0.9-0.2c-0.3-0.1-0.5-0.3-0.7-0.5c-0.2-0.2-0.4-0.5-0.5-0.7C17.6,101.7,17.5,101.4,17.5,101.1z"/>
		<path class="st0" d="M34.5,117.9c0,0.2,0,0.4,0,0.6c0,0.2,0,0.4-0.1,0.6c0.6,0.2,1.2,0.4,1.9,0.5c0.7,0.1,1.4,0.2,2.1,0.2h0.1
			c0.3,0,0.6,0,0.8,0.1c0.2,0,0.3,0.1,0.4,0.2c0.1,0.1,0.1,0.2,0.2,0.4c0,0.2,0,0.4,0,0.6v1.3c0,0.3,0,0.6-0.1,0.7
			c0,0.2-0.1,0.3-0.2,0.4c-0.1,0.1-0.3,0.2-0.4,0.2c-0.2,0-0.4,0-0.7,0h-0.2c-1.2,0-2.3-0.1-3.1-0.4c-0.9-0.3-1.6-0.6-2.3-1.1
			c-0.4,0.5-1,0.8-1.6,1.1c-0.6,0.3-1.4,0.4-2.3,0.4h-3.7c-0.3,0-0.5,0-0.7,0c-0.2,0-0.3-0.1-0.4-0.2c-0.1-0.1-0.2-0.2-0.2-0.4
			c0-0.2-0.1-0.4-0.1-0.7v-1.3c0-0.2,0-0.4,0-0.6c0-0.2,0.1-0.3,0.2-0.4c0.1-0.1,0.2-0.2,0.4-0.2c0.2,0,0.5-0.1,0.8-0.1h2.1
			c0.4,0,0.7,0,1-0.1c0.3-0.1,0.5-0.2,0.7-0.4c0.2-0.2,0.3-0.5,0.4-0.8c0.1-0.3,0.1-0.8,0.1-1.3v-8.3h4.8V117.9z M26.8,129.1
			c0-0.3,0.1-0.6,0.2-0.9c0.1-0.3,0.3-0.5,0.5-0.7c0.2-0.2,0.5-0.4,0.7-0.5c0.3-0.1,0.6-0.2,0.9-0.2c0.3,0,0.6,0.1,0.9,0.2
			c0.3,0.1,0.5,0.3,0.7,0.5c0.2,0.2,0.4,0.5,0.5,0.7c0.1,0.3,0.2,0.6,0.2,0.9c0,0.3-0.1,0.6-0.2,0.9c-0.1,0.3-0.3,0.5-0.5,0.7
			c-0.2,0.2-0.5,0.4-0.7,0.5c-0.3,0.1-0.6,0.2-0.9,0.2c-0.3,0-0.6-0.1-0.9-0.2c-0.3-0.1-0.5-0.3-0.7-0.5c-0.2-0.2-0.4-0.5-0.5-0.7
			C26.8,129.8,26.8,129.5,26.8,129.1z M32.2,129.1c0-0.3,0.1-0.6,0.2-0.9c0.1-0.3,0.3-0.5,0.5-0.7c0.2-0.2,0.5-0.4,0.7-0.5
			c0.3-0.1,0.6-0.2,0.9-0.2c0.3,0,0.6,0.1,0.9,0.2c0.3,0.1,0.5,0.3,0.7,0.5c0.2,0.2,0.4,0.5,0.5,0.7c0.1,0.3,0.2,0.6,0.2,0.9
			c0,0.3-0.1,0.6-0.2,0.9c-0.1,0.3-0.3,0.5-0.5,0.7c-0.2,0.2-0.5,0.4-0.7,0.5c-0.3,0.1-0.6,0.2-0.9,0.2c-0.3,0-0.6-0.1-0.9-0.2
			c-0.3-0.1-0.5-0.3-0.7-0.5c-0.2-0.2-0.4-0.5-0.5-0.7C32.3,129.8,32.2,129.5,32.2,129.1z"/>
		<path class="st0" d="M58.4,123.9c-1.4,0-2.7-0.1-4-0.2c-1.3-0.1-2.4-0.2-3.3-0.4c-0.7,0.1-1.5,0.2-2.3,0.3
			c-0.8,0.1-1.7,0.1-2.5,0.2c-0.9,0-1.8,0.1-2.7,0.1c-0.9,0-1.8,0-2.6,0h-2.5c-0.3,0-0.5,0-0.7,0c-0.2,0-0.4-0.1-0.5-0.2
			c-0.1-0.1-0.2-0.2-0.2-0.4c0-0.2-0.1-0.4-0.1-0.7v-1.3c0-0.2,0-0.4,0-0.6c0-0.2,0.1-0.3,0.2-0.4c0.1-0.1,0.2-0.2,0.4-0.2
			c0.2,0,0.5-0.1,0.8-0.1h4.6c-0.2-0.3-0.5-0.7-0.6-1c-0.2-0.4-0.3-0.7-0.5-1.1c-0.1-0.4-0.2-0.7-0.3-1.1c-0.1-0.3-0.1-0.6-0.1-0.9
			c0-1,0.2-2,0.6-2.9c0.4-0.9,1-1.7,1.7-2.4c0.8-0.7,1.7-1.3,2.7-1.7c1.1-0.4,2.3-0.6,3.6-0.6c1.2,0,2.2,0.2,3.1,0.5
			c0.9,0.4,1.7,0.9,2.3,1.5c0.6,0.6,1.1,1.4,1.4,2.2c0.3,0.8,0.5,1.7,0.5,2.7c0,0.4,0,0.8-0.1,1.3c-0.1,0.4-0.2,0.9-0.3,1.3
			c-0.1,0.4-0.2,0.8-0.4,1.2c-0.1,0.4-0.3,0.7-0.4,1h4.4c0.3,0,0.6,0,0.8,0.1c0.2,0,0.4,0.1,0.5,0.2c0.1,0.1,0.2,0.2,0.2,0.4
			c0,0.2,0,0.4,0,0.6v1.3c0,0.3,0,0.6-0.1,0.7c0,0.2-0.1,0.3-0.2,0.4c-0.1,0.1-0.3,0.2-0.5,0.2c-0.2,0-0.4,0-0.7,0H58.4z M44.5,102
			c0-0.3,0.1-0.6,0.2-0.9c0.1-0.3,0.3-0.5,0.5-0.7c0.2-0.2,0.5-0.4,0.7-0.5c0.3-0.1,0.6-0.2,0.9-0.2c0.3,0,0.6,0.1,0.9,0.2
			c0.3,0.1,0.5,0.3,0.7,0.5c0.2,0.2,0.4,0.5,0.5,0.7c0.1,0.3,0.2,0.6,0.2,0.9c0,0.3-0.1,0.6-0.2,0.9c-0.1,0.3-0.3,0.5-0.5,0.7
			c-0.2,0.2-0.5,0.4-0.7,0.5c-0.3,0.1-0.6,0.2-0.9,0.2c-0.3,0-0.6-0.1-0.9-0.2c-0.3-0.1-0.5-0.3-0.7-0.5c-0.2-0.2-0.4-0.5-0.5-0.7
			C44.5,102.7,44.5,102.4,44.5,102z M46.2,115.4c0,0.7,0.1,1.3,0.4,1.8c0.2,0.5,0.6,1,1,1.4c0.4,0.4,0.9,0.7,1.5,0.9
			c0.6,0.2,1.2,0.3,1.8,0.3h0.7c0.1-0.2,0.3-0.5,0.4-0.8c0.1-0.3,0.3-0.7,0.4-1c0.1-0.4,0.2-0.7,0.3-1.2c0.1-0.4,0.1-0.8,0.1-1.2
			c0-0.6-0.1-1.2-0.3-1.7c-0.2-0.5-0.4-0.9-0.7-1.2c-0.3-0.3-0.6-0.6-1-0.7c-0.4-0.2-0.8-0.2-1.2-0.2c-0.4,0-0.9,0.1-1.3,0.2
			c-0.4,0.1-0.8,0.4-1.1,0.6c-0.3,0.3-0.6,0.7-0.8,1.1C46.3,114.3,46.2,114.8,46.2,115.4z M50,102c0-0.3,0.1-0.6,0.2-0.9
			c0.1-0.3,0.3-0.5,0.5-0.7c0.2-0.2,0.5-0.4,0.7-0.5c0.3-0.1,0.6-0.2,0.9-0.2c0.3,0,0.6,0.1,0.9,0.2c0.3,0.1,0.5,0.3,0.7,0.5
			c0.2,0.2,0.4,0.5,0.5,0.7c0.1,0.3,0.2,0.6,0.2,0.9c0,0.3-0.1,0.6-0.2,0.9c-0.1,0.3-0.3,0.5-0.5,0.7c-0.2,0.2-0.5,0.4-0.7,0.5
			c-0.3,0.1-0.6,0.2-0.9,0.2c-0.3,0-0.6-0.1-0.9-0.2c-0.3-0.1-0.5-0.3-0.7-0.5c-0.2-0.2-0.4-0.5-0.5-0.7C50,102.7,50,102.4,50,102z"
			/>
		<path class="st0" d="M70,117.9c0,0.2,0,0.4,0,0.6c0,0.2,0,0.4-0.1,0.6c0.6,0.2,1.2,0.4,1.9,0.5c0.7,0.1,1.4,0.2,2.1,0.2h0.1
			c0.3,0,0.6,0,0.8,0.1c0.2,0,0.3,0.1,0.4,0.2c0.1,0.1,0.1,0.2,0.2,0.4c0,0.2,0,0.4,0,0.6v1.3c0,0.3,0,0.6-0.1,0.7
			c0,0.2-0.1,0.3-0.2,0.4c-0.1,0.1-0.3,0.2-0.4,0.2c-0.2,0-0.4,0-0.7,0h-0.2c-1.2,0-2.3-0.1-3.1-0.4c-0.9-0.3-1.6-0.6-2.3-1.1
			c-0.4,0.5-1,0.8-1.6,1.1c-0.6,0.3-1.4,0.4-2.3,0.4h-3.7c-0.3,0-0.5,0-0.7,0c-0.2,0-0.3-0.1-0.4-0.2c-0.1-0.1-0.2-0.2-0.2-0.4
			c0-0.2-0.1-0.4-0.1-0.7v-1.3c0-0.2,0-0.4,0-0.6c0-0.2,0.1-0.3,0.2-0.4c0.1-0.1,0.2-0.2,0.4-0.2c0.2,0,0.5-0.1,0.8-0.1H63
			c0.4,0,0.7,0,1-0.1c0.3-0.1,0.5-0.2,0.7-0.4c0.2-0.2,0.3-0.5,0.4-0.8c0.1-0.3,0.1-0.8,0.1-1.3v-8.3H70V117.9z M62.2,129.1
			c0-0.3,0.1-0.6,0.2-0.9c0.1-0.3,0.3-0.5,0.5-0.7c0.2-0.2,0.5-0.4,0.7-0.5c0.3-0.1,0.6-0.2,0.9-0.2c0.3,0,0.6,0.1,0.9,0.2
			c0.3,0.1,0.5,0.3,0.7,0.5c0.2,0.2,0.4,0.5,0.5,0.7c0.1,0.3,0.2,0.6,0.2,0.9c0,0.3-0.1,0.6-0.2,0.9c-0.1,0.3-0.3,0.5-0.5,0.7
			c-0.2,0.2-0.5,0.4-0.7,0.5c-0.3,0.1-0.6,0.2-0.9,0.2c-0.3,0-0.6-0.1-0.9-0.2c-0.3-0.1-0.5-0.3-0.7-0.5c-0.2-0.2-0.4-0.5-0.5-0.7
			C62.3,129.8,62.2,129.5,62.2,129.1z M67.7,129.1c0-0.3,0.1-0.6,0.2-0.9c0.1-0.3,0.3-0.5,0.5-0.7c0.2-0.2,0.5-0.4,0.7-0.5
			c0.3-0.1,0.6-0.2,0.9-0.2c0.3,0,0.6,0.1,0.9,0.2c0.3,0.1,0.5,0.3,0.7,0.5c0.2,0.2,0.4,0.5,0.5,0.7c0.1,0.3,0.2,0.6,0.2,0.9
			c0,0.3-0.1,0.6-0.2,0.9c-0.1,0.3-0.3,0.5-0.5,0.7c-0.2,0.2-0.5,0.4-0.7,0.5c-0.3,0.1-0.6,0.2-0.9,0.2c-0.3,0-0.6-0.1-0.9-0.2
			c-0.3-0.1-0.5-0.3-0.7-0.5c-0.2-0.2-0.4-0.5-0.5-0.7C67.7,129.8,67.7,129.5,67.7,129.1z"/>
		<path class="st0" d="M83,117.9c0,0.2,0,0.4,0,0.6c0,0.2,0,0.4-0.1,0.6c0.6,0.2,1.2,0.4,1.9,0.5c0.7,0.1,1.4,0.2,2.1,0.2h0.1
			c0.3,0,0.6,0,0.8,0.1c0.2,0,0.3,0.1,0.4,0.2c0.1,0.1,0.1,0.2,0.2,0.4c0,0.2,0,0.4,0,0.6v1.3c0,0.3,0,0.6-0.1,0.7
			c0,0.2-0.1,0.3-0.2,0.4c-0.1,0.1-0.3,0.2-0.4,0.2c-0.2,0-0.4,0-0.7,0H87c-1.2,0-2.3-0.1-3.1-0.4c-0.9-0.3-1.6-0.6-2.3-1.1
			c-0.4,0.5-1,0.8-1.6,1.1c-0.6,0.3-1.4,0.4-2.3,0.4H74c-0.3,0-0.5,0-0.7,0c-0.2,0-0.3-0.1-0.4-0.2c-0.1-0.1-0.2-0.2-0.2-0.4
			c0-0.2-0.1-0.4-0.1-0.7v-1.3c0-0.2,0-0.4,0-0.6c0-0.2,0.1-0.3,0.2-0.4c0.1-0.1,0.2-0.2,0.4-0.2c0.2,0,0.5-0.1,0.8-0.1H76
			c0.4,0,0.7,0,1-0.1c0.3-0.1,0.5-0.2,0.7-0.4c0.2-0.2,0.3-0.5,0.4-0.8c0.1-0.3,0.1-0.8,0.1-1.3v-8.3H83V117.9z M78.3,129.1
			c0-0.3,0.1-0.6,0.2-0.9c0.1-0.3,0.3-0.5,0.5-0.7c0.2-0.2,0.5-0.4,0.7-0.5c0.3-0.1,0.6-0.2,0.9-0.2c0.3,0,0.6,0.1,0.9,0.2
			c0.3,0.1,0.5,0.3,0.7,0.5c0.2,0.2,0.4,0.5,0.5,0.7c0.1,0.3,0.2,0.6,0.2,0.9c0,0.3-0.1,0.6-0.2,0.9c-0.1,0.3-0.3,0.5-0.5,0.7
			c-0.2,0.2-0.5,0.4-0.7,0.5c-0.3,0.1-0.6,0.2-0.9,0.2c-0.3,0-0.6-0.1-0.9-0.2c-0.3-0.1-0.5-0.3-0.7-0.5c-0.2-0.2-0.4-0.5-0.5-0.7
			C78.4,129.8,78.3,129.5,78.3,129.1z"/>
		<path class="st0" d="M87,123.9c-0.3,0-0.5,0-0.7,0c-0.2,0-0.3-0.1-0.4-0.2c-0.1-0.1-0.2-0.2-0.2-0.4c0-0.2-0.1-0.4-0.1-0.7v-1.3
			c0-0.2,0-0.4,0-0.6c0-0.2,0.1-0.3,0.2-0.4c0.1-0.1,0.2-0.2,0.4-0.2c0.2,0,0.5-0.1,0.8-0.1h3.9c0.2-0.5,0.4-1,0.7-1.6
			c0.3-0.6,0.6-1.1,0.9-1.7V97.6h4.8v12.9c1-0.9,2.2-1.6,3.5-2.2c1.3-0.6,2.6-0.8,4.1-0.8c1.4,0,2.6,0.2,3.6,0.7
			c1,0.5,1.9,1.2,2.6,2c0.7,0.9,1.2,1.9,1.5,3c0.3,1.2,0.5,2.4,0.5,3.7v2.8h3.1c0.3,0,0.6,0,0.8,0.1c0.2,0,0.3,0.1,0.4,0.2
			c0.1,0.1,0.1,0.2,0.2,0.4c0,0.2,0,0.4,0,0.6v1.3c0,0.3,0,0.6-0.1,0.7c0,0.2-0.1,0.3-0.2,0.4c-0.1,0.1-0.3,0.2-0.4,0.2
			c-0.2,0-0.4,0-0.7,0H87z M108.4,117.4c0-1.1-0.1-2.1-0.3-2.9c-0.2-0.8-0.5-1.4-0.9-1.8c-0.4-0.5-0.9-0.8-1.4-1
			c-0.5-0.2-1.1-0.3-1.7-0.3c-0.8,0-1.6,0.2-2.5,0.7c-0.8,0.5-1.6,1.1-2.4,1.8c-0.7,0.8-1.4,1.7-2.1,2.7c-0.6,1-1.1,2.1-1.5,3.2
			h12.8V117.4z"/>
		<path class="st0" d="M125.1,117.9c0,0.2,0,0.4,0,0.6c0,0.2,0,0.4-0.1,0.6c0.6,0.2,1.2,0.4,1.9,0.5c0.7,0.1,1.4,0.2,2.1,0.2h0.1
			c0.3,0,0.6,0,0.8,0.1c0.2,0,0.3,0.1,0.4,0.2c0.1,0.1,0.1,0.2,0.2,0.4c0,0.2,0,0.4,0,0.6v1.3c0,0.3,0,0.6-0.1,0.7
			c0,0.2-0.1,0.3-0.2,0.4c-0.1,0.1-0.3,0.2-0.4,0.2c-0.2,0-0.4,0-0.7,0H129c-1.2,0-2.3-0.1-3.1-0.4c-0.9-0.3-1.6-0.6-2.3-1.1
			c-0.4,0.5-1,0.8-1.6,1.1c-0.6,0.3-1.4,0.4-2.3,0.4H116c-0.3,0-0.5,0-0.7,0c-0.2,0-0.3-0.1-0.4-0.2c-0.1-0.1-0.2-0.2-0.2-0.4
			c0-0.2-0.1-0.4-0.1-0.7v-1.3c0-0.2,0-0.4,0-0.6c0-0.2,0.1-0.3,0.2-0.4c0.1-0.1,0.2-0.2,0.4-0.2c0.2,0,0.5-0.1,0.8-0.1h2.1
			c0.4,0,0.7,0,1-0.1c0.3-0.1,0.5-0.2,0.7-0.4c0.2-0.2,0.3-0.5,0.4-0.8c0.1-0.3,0.1-0.8,0.1-1.3v-8.3h4.8V117.9z M117.4,102
			c0-0.3,0.1-0.6,0.2-0.9c0.1-0.3,0.3-0.5,0.5-0.7c0.2-0.2,0.5-0.4,0.7-0.5c0.3-0.1,0.6-0.2,0.9-0.2c0.3,0,0.6,0.1,0.9,0.2
			c0.3,0.1,0.5,0.3,0.7,0.5c0.2,0.2,0.4,0.5,0.5,0.7c0.1,0.3,0.2,0.6,0.2,0.9c0,0.3-0.1,0.6-0.2,0.9c-0.1,0.3-0.3,0.5-0.5,0.7
			c-0.2,0.2-0.5,0.4-0.7,0.5c-0.3,0.1-0.6,0.2-0.9,0.2c-0.3,0-0.6-0.1-0.9-0.2c-0.3-0.1-0.5-0.3-0.7-0.5c-0.2-0.2-0.4-0.5-0.5-0.7
			C117.5,102.7,117.4,102.4,117.4,102z M122.9,102c0-0.3,0.1-0.6,0.2-0.9c0.1-0.3,0.3-0.5,0.5-0.7c0.2-0.2,0.5-0.4,0.7-0.5
			c0.3-0.1,0.6-0.2,0.9-0.2c0.3,0,0.6,0.1,0.9,0.2c0.3,0.1,0.5,0.3,0.7,0.5c0.2,0.2,0.4,0.5,0.5,0.7c0.1,0.3,0.2,0.6,0.2,0.9
			c0,0.3-0.1,0.6-0.2,0.9c-0.1,0.3-0.3,0.5-0.5,0.7c-0.2,0.2-0.5,0.4-0.7,0.5c-0.3,0.1-0.6,0.2-0.9,0.2c-0.3,0-0.6-0.1-0.9-0.2
			c-0.3-0.1-0.5-0.3-0.7-0.5c-0.2-0.2-0.4-0.5-0.5-0.7C123,102.7,122.9,102.4,122.9,102z"/>
		<path class="st0" d="M129.1,123.9c-0.3,0-0.5,0-0.7,0c-0.2,0-0.3-0.1-0.4-0.2c-0.1-0.1-0.2-0.2-0.2-0.4c0-0.2-0.1-0.4-0.1-0.7
			v-1.3c0-0.2,0-0.4,0-0.6c0-0.2,0.1-0.3,0.2-0.4c0.1-0.1,0.2-0.2,0.4-0.2c0.2,0,0.5-0.1,0.8-0.1h4.3V97.6h4.8v26.3H129.1z"/>
		<path class="st0" d="M142.9,97.6h4.8v26.3h-4.8V97.6z"/>
		<path class="st0" d="M176.4,117.6c0,0.4,0,0.8,0.1,1.1c0,0.3,0.1,0.5,0.3,0.7c0.1,0.2,0.3,0.3,0.5,0.4c0.2,0.1,0.5,0.1,0.9,0.1
			h1.3c0.3,0,0.6,0,0.8,0.1c0.2,0,0.3,0.1,0.4,0.2c0.1,0.1,0.1,0.2,0.2,0.4c0,0.2,0,0.4,0,0.6v1.3c0,0.3,0,0.6-0.1,0.7
			c0,0.2-0.1,0.3-0.2,0.4c-0.1,0.1-0.3,0.2-0.4,0.2c-0.2,0-0.4,0-0.7,0h-2.1c-0.8,0-1.5-0.1-2.1-0.2c-0.6-0.1-1.1-0.3-1.5-0.5
			c-0.4-0.2-0.8-0.5-1-0.7c-0.3-0.3-0.5-0.6-0.6-0.9c-0.8,0.4-1.6,0.7-2.3,0.9c-0.7,0.2-1.5,0.3-2.3,0.3c-0.8,0-1.6-0.1-2.5-0.3
			c-0.8-0.2-1.6-0.6-2.3-1.1c-0.7-0.5-1.2-1.1-1.7-1.8c-0.4-0.7-0.6-1.6-0.6-2.7c0-0.9,0.2-1.8,0.5-2.5c0.4-0.7,0.9-1.4,1.5-2
			c0.6-0.6,1.3-1.1,2.1-1.6c0.8-0.5,1.6-0.9,2.4-1.2c0.8-0.3,1.7-0.6,2.5-0.9c0.8-0.2,1.6-0.5,2.3-0.6v-2.1h4.7V117.6z M171.7,111.6
			c-1,0.2-2,0.5-2.8,0.8c-0.8,0.3-1.6,0.6-2.2,1c-0.6,0.4-1.1,0.8-1.4,1.3c-0.3,0.5-0.5,1-0.5,1.6c0,0.5,0.1,0.9,0.3,1.2
			c0.2,0.3,0.4,0.6,0.7,0.8c0.3,0.2,0.6,0.3,1,0.4c0.4,0.1,0.8,0.1,1.1,0.1c0.7,0,1.4-0.1,2-0.3c0.6-0.2,1.2-0.5,1.7-0.8V111.6z
			 M166,101.1c0-0.3,0.1-0.6,0.2-0.9c0.1-0.3,0.3-0.5,0.5-0.7c0.2-0.2,0.5-0.4,0.7-0.5c0.3-0.1,0.6-0.2,0.9-0.2
			c0.3,0,0.6,0.1,0.9,0.2c0.3,0.1,0.5,0.3,0.7,0.5c0.2,0.2,0.4,0.5,0.5,0.7c0.1,0.3,0.2,0.6,0.2,0.9c0,0.3-0.1,0.6-0.2,0.9
			c-0.1,0.3-0.3,0.5-0.5,0.7c-0.2,0.2-0.5,0.4-0.7,0.5c-0.3,0.1-0.6,0.2-0.9,0.2c-0.3,0-0.6-0.1-0.9-0.2c-0.3-0.1-0.5-0.3-0.7-0.5
			c-0.2-0.2-0.4-0.5-0.5-0.7C166,101.7,166,101.4,166,101.1z M171.5,101.1c0-0.3,0.1-0.6,0.2-0.9c0.1-0.3,0.3-0.5,0.5-0.7
			c0.2-0.2,0.5-0.4,0.7-0.5c0.3-0.1,0.6-0.2,0.9-0.2c0.3,0,0.6,0.1,0.9,0.2c0.3,0.1,0.5,0.3,0.7,0.5c0.2,0.2,0.4,0.5,0.5,0.7
			c0.1,0.3,0.2,0.6,0.2,0.9c0,0.3-0.1,0.6-0.2,0.9c-0.1,0.3-0.3,0.5-0.5,0.7c-0.2,0.2-0.5,0.4-0.7,0.5c-0.3,0.1-0.6,0.2-0.9,0.2
			c-0.3,0-0.6-0.1-0.9-0.2c-0.3-0.1-0.5-0.3-0.7-0.5c-0.2-0.2-0.4-0.5-0.5-0.7C171.5,101.7,171.5,101.4,171.5,101.1z"/>
		<path class="st0" d="M188.4,117.9c0,0.2,0,0.4,0,0.6c0,0.2,0,0.4-0.1,0.6c0.6,0.2,1.2,0.4,1.9,0.5c0.7,0.1,1.4,0.2,2.1,0.2h0.1
			c0.3,0,0.6,0,0.8,0.1c0.2,0,0.3,0.1,0.4,0.2c0.1,0.1,0.1,0.2,0.2,0.4c0,0.2,0,0.4,0,0.6v1.3c0,0.3,0,0.6-0.1,0.7
			c0,0.2-0.1,0.3-0.2,0.4c-0.1,0.1-0.3,0.2-0.4,0.2c-0.2,0-0.4,0-0.7,0h-0.2c-1.2,0-2.3-0.1-3.1-0.4c-0.9-0.3-1.6-0.6-2.3-1.1
			c-0.4,0.5-1,0.8-1.6,1.1c-0.6,0.3-1.4,0.4-2.3,0.4h-3.7c-0.3,0-0.5,0-0.7,0c-0.2,0-0.3-0.1-0.4-0.2c-0.1-0.1-0.2-0.2-0.2-0.4
			c0-0.2-0.1-0.4-0.1-0.7v-1.3c0-0.2,0-0.4,0-0.6c0-0.2,0.1-0.3,0.2-0.4c0.1-0.1,0.2-0.2,0.4-0.2c0.2,0,0.5-0.1,0.8-0.1h2.1
			c0.4,0,0.7,0,1-0.1c0.3-0.1,0.5-0.2,0.7-0.4c0.2-0.2,0.3-0.5,0.4-0.8c0.1-0.3,0.1-0.8,0.1-1.3v-8.3h4.8V117.9z M180.7,129.1
			c0-0.3,0.1-0.6,0.2-0.9c0.1-0.3,0.3-0.5,0.5-0.7c0.2-0.2,0.5-0.4,0.7-0.5c0.3-0.1,0.6-0.2,0.9-0.2s0.6,0.1,0.9,0.2
			c0.3,0.1,0.5,0.3,0.7,0.5c0.2,0.2,0.4,0.5,0.5,0.7c0.1,0.3,0.2,0.6,0.2,0.9c0,0.3-0.1,0.6-0.2,0.9c-0.1,0.3-0.3,0.5-0.5,0.7
			c-0.2,0.2-0.5,0.4-0.7,0.5c-0.3,0.1-0.6,0.2-0.9,0.2s-0.6-0.1-0.9-0.2c-0.3-0.1-0.5-0.3-0.7-0.5c-0.2-0.2-0.4-0.5-0.5-0.7
			C180.7,129.8,180.7,129.5,180.7,129.1z M186.1,129.1c0-0.3,0.1-0.6,0.2-0.9c0.1-0.3,0.3-0.5,0.5-0.7c0.2-0.2,0.5-0.4,0.7-0.5
			c0.3-0.1,0.6-0.2,0.9-0.2c0.3,0,0.6,0.1,0.9,0.2c0.3,0.1,0.5,0.3,0.7,0.5c0.2,0.2,0.4,0.5,0.5,0.7c0.1,0.3,0.2,0.6,0.2,0.9
			c0,0.3-0.1,0.6-0.2,0.9c-0.1,0.3-0.3,0.5-0.5,0.7c-0.2,0.2-0.5,0.4-0.7,0.5c-0.3,0.1-0.6,0.2-0.9,0.2c-0.3,0-0.6-0.1-0.9-0.2
			c-0.3-0.1-0.5-0.3-0.7-0.5c-0.2-0.2-0.4-0.5-0.5-0.7C186.2,129.8,186.1,129.5,186.1,129.1z"/>
		<path class="st0" d="M201.5,117.9c0,0.2,0,0.4,0,0.6c0,0.2,0,0.4-0.1,0.6c0.6,0.2,1.2,0.4,1.9,0.5s1.4,0.2,2.1,0.2h0.1
			c0.3,0,0.6,0,0.8,0.1c0.2,0,0.3,0.1,0.4,0.2c0.1,0.1,0.1,0.2,0.2,0.4c0,0.2,0,0.4,0,0.6v1.3c0,0.3,0,0.6-0.1,0.7
			c0,0.2-0.1,0.3-0.2,0.4c-0.1,0.1-0.3,0.2-0.4,0.2c-0.2,0-0.4,0-0.7,0h-0.2c-1.2,0-2.3-0.1-3.1-0.4c-0.9-0.3-1.6-0.6-2.3-1.1
			c-0.4,0.5-1,0.8-1.6,1.1c-0.6,0.3-1.4,0.4-2.3,0.4h-3.7c-0.3,0-0.5,0-0.7,0c-0.2,0-0.3-0.1-0.4-0.2c-0.1-0.1-0.2-0.2-0.2-0.4
			c0-0.2-0.1-0.4-0.1-0.7v-1.3c0-0.2,0-0.4,0-0.6c0-0.2,0.1-0.3,0.2-0.4c0.1-0.1,0.2-0.2,0.4-0.2c0.2,0,0.5-0.1,0.8-0.1h2.1
			c0.4,0,0.7,0,1-0.1c0.3-0.1,0.5-0.2,0.7-0.4c0.2-0.2,0.3-0.5,0.4-0.8c0.1-0.3,0.1-0.8,0.1-1.3V97.6h4.8V117.9z"/>
		<path class="st0" d="M205.5,123.9c-0.3,0-0.5,0-0.7,0c-0.2,0-0.3-0.1-0.4-0.2c-0.1-0.1-0.2-0.2-0.2-0.4c0-0.2-0.1-0.4-0.1-0.7
			v-1.3c0-0.2,0-0.4,0-0.6c0-0.2,0.1-0.3,0.2-0.4c0.1-0.1,0.2-0.2,0.4-0.2c0.2,0,0.5-0.1,0.8-0.1h5.6c0.7,0,1.3-0.1,1.8-0.2
			c0.5-0.1,0.8-0.3,1.1-0.5c0.3-0.2,0.5-0.4,0.6-0.7c0.1-0.3,0.2-0.6,0.2-1c0-0.5-0.2-1-0.5-1.6c-0.3-0.5-0.8-1.1-1.4-1.6
			c-0.6-0.6-1.3-1.1-2.2-1.7c-0.9-0.6-1.9-1.2-3-1.9l7.9-13.3l3.5,2.2l-5.6,9.6c1,0.7,1.8,1.4,2.5,2.1c0.7,0.7,1.3,1.3,1.8,2
			c0.5,0.7,0.8,1.3,1.1,2c0.2,0.7,0.3,1.4,0.3,2.2c0,0.5,0,0.9-0.1,1.3c0.6,0.3,1.3,0.6,2.1,0.7c0.8,0.2,1.6,0.2,2.4,0.2h0.1
			c0.3,0,0.6,0,0.8,0.1c0.2,0,0.3,0.1,0.4,0.2c0.1,0.1,0.1,0.2,0.2,0.4c0,0.2,0,0.4,0,0.6v1.3c0,0.3,0,0.6-0.1,0.7
			c0,0.2-0.1,0.3-0.2,0.4c-0.1,0.1-0.3,0.2-0.4,0.2c-0.2,0-0.4,0-0.7,0h-0.2c-1.4,0-2.6-0.2-3.6-0.6s-1.8-0.8-2.5-1.4
			c-0.6,0.6-1.4,1.1-2.4,1.5c-1,0.4-2.2,0.5-3.6,0.5H205.5z"/>
		<path class="st0" d="M223.6,123.9c-0.3,0-0.5,0-0.7,0c-0.2,0-0.3-0.1-0.4-0.2c-0.1-0.1-0.2-0.2-0.2-0.4c0-0.2-0.1-0.4-0.1-0.7
			v-1.3c0-0.2,0-0.4,0-0.6c0-0.2,0.1-0.3,0.2-0.4c0.1-0.1,0.2-0.2,0.4-0.2c0.2,0,0.5-0.1,0.8-0.1h4.3V97.6h4.8v26.3H223.6z"/>
		<path class="st0" d="M237.5,97.6h4.8v26.3h-4.8V97.6z"/>
	</g>
</g>
</svg>
