<svg width="331" height="211" viewBox="0 0 331 211" fill="none" xmlns="http://www.w3.org/2000/svg">
<circle cx="164.83" cy="108.5" r="102.5" fill="#5F289E"/>
<g opacity="0.25">
<path opacity="0.0196" d="M298 162.131C298.14 152.855 264.551 144.87 222.977 144.296C181.404 143.721 147.59 150.775 147.45 160.05C147.311 169.326 180.9 177.311 222.473 177.886C264.047 178.461 297.861 171.407 298 162.131Z" fill="#0F0A26"/>
<path opacity="0.0392" d="M297.027 162.073C297.164 152.921 264.021 145.042 223.001 144.475C181.98 143.908 148.614 150.868 148.477 160.02C148.339 169.173 181.482 177.052 222.503 177.619C263.524 178.186 296.89 171.226 297.027 162.073Z" fill="#0F0A26"/>
<path opacity="0.0588" d="M296.053 162.016C296.189 152.987 263.492 145.213 223.024 144.654C182.555 144.095 149.639 150.961 149.503 159.99C149.368 169.02 182.064 176.793 222.533 177.352C263.002 177.911 295.918 171.045 296.053 162.016Z" fill="#0F0A26"/>
<path opacity="0.0784" d="M295.08 161.958C295.213 153.052 262.963 145.385 223.047 144.833C183.13 144.282 150.663 151.054 150.53 159.96C150.396 168.866 182.646 176.533 222.563 177.085C262.479 177.637 294.946 170.864 295.08 161.958Z" fill="#0F0A26"/>
<path opacity="0.098" d="M294.106 161.901C294.238 153.118 262.434 145.557 223.07 145.013C183.705 144.469 151.688 151.147 151.556 159.93C151.424 168.713 183.228 176.274 222.592 176.818C261.956 177.362 293.974 170.683 294.106 161.901Z" fill="#0F0A26"/>
<path opacity="0.1176" d="M293.132 161.843C293.262 153.183 261.904 145.728 223.093 145.192C184.281 144.655 152.712 151.241 152.582 159.9C152.452 168.56 183.81 176.015 222.622 176.551C261.434 177.088 293.002 170.502 293.132 161.843Z" fill="#0F0A26"/>
<path opacity="0.1373" d="M292.159 161.785C292.287 153.249 261.375 145.9 223.116 145.371C184.856 144.842 153.737 151.334 153.609 159.87C153.48 168.407 184.392 175.755 222.652 176.284C260.911 176.813 292.031 170.322 292.159 161.785Z" fill="#0F0A26"/>
<path opacity="0.1569" d="M291.185 161.727C291.312 153.314 260.846 146.072 223.139 145.55C185.431 145.029 154.761 151.427 154.635 159.84C154.509 168.253 184.974 175.496 222.682 176.017C260.389 176.538 291.059 170.141 291.185 161.727Z" fill="#0F0A26"/>
<path opacity="0.1765" d="M290.212 161.67C290.336 153.38 260.317 146.243 223.162 145.73C186.007 145.216 155.786 151.52 155.661 159.81C155.537 168.1 185.556 175.237 222.711 175.75C259.866 176.264 290.087 169.96 290.212 161.67Z" fill="#0F0A26"/>
<path opacity="0.1961" d="M289.238 161.612C289.361 153.445 259.788 146.415 223.185 145.909C186.582 145.403 156.81 151.613 156.688 159.78C156.565 167.947 186.138 174.977 222.741 175.483C259.344 175.989 289.116 169.779 289.238 161.612Z" fill="#0F0A26"/>
<path opacity="0.2157" d="M288.264 161.554C288.385 153.511 259.258 146.586 223.208 146.088C187.157 145.59 157.835 151.706 157.714 159.75C157.594 167.794 186.72 174.718 222.771 175.216C258.821 175.715 288.144 169.598 288.264 161.554Z" fill="#0F0A26"/>
<path opacity="0.2353" d="M287.291 161.497C287.41 153.576 258.729 146.758 223.231 146.267C187.733 145.777 158.859 151.8 158.741 159.72C158.622 167.64 187.302 174.459 222.801 174.949C258.299 175.44 287.172 169.417 287.291 161.497Z" fill="#0F0A26"/>
<path opacity="0.2549" d="M286.317 161.439C286.434 153.642 258.2 146.93 223.254 146.447C188.308 145.964 159.884 151.893 159.767 159.69C159.65 167.487 187.884 174.199 222.83 174.682C257.776 175.165 286.2 169.236 286.317 161.439Z" fill="#0F0A26"/>
<path opacity="0.2745" d="M285.344 161.381C285.459 153.707 257.671 147.101 223.277 146.626C188.883 146.15 160.908 151.986 160.793 159.66C160.678 167.334 188.466 173.94 222.86 174.415C257.254 174.891 285.228 169.055 285.344 161.381Z" fill="#0F0A26"/>
<path opacity="0.2941" d="M284.37 161.324C284.483 153.773 257.141 147.273 223.3 146.805C189.459 146.337 161.933 152.079 161.82 159.63C161.706 167.181 189.048 173.681 222.89 174.149C256.731 174.616 284.257 168.874 284.37 161.324Z" fill="#0F0A26"/>
<path opacity="0.3137" d="M283.397 161.266C283.508 153.839 256.612 147.445 223.323 146.984C190.034 146.524 162.958 152.172 162.846 159.6C162.735 167.027 189.63 173.421 222.92 173.882C256.209 174.342 283.285 168.694 283.397 161.266Z" fill="#0F0A26"/>
<path opacity="0.3333" d="M282.423 161.208C282.533 153.904 256.083 147.616 223.346 147.164C190.609 146.711 163.982 152.266 163.872 159.57C163.763 166.874 190.212 173.162 222.949 173.615C255.686 174.067 282.313 168.513 282.423 161.208Z" fill="#0F0A26"/>
<path opacity="0.3529" d="M281.449 161.151C281.557 153.97 255.554 147.788 223.369 147.343C191.185 146.898 165.007 152.359 164.899 159.54C164.791 166.721 190.794 172.903 222.979 173.348C255.163 173.792 281.342 168.332 281.449 161.151Z" fill="#0F0A26"/>
<path opacity="0.3725" d="M280.476 161.093C280.582 154.035 255.024 147.959 223.392 147.522C191.76 147.085 166.031 152.452 165.925 159.51C165.819 166.568 191.377 172.643 223.009 173.081C254.641 173.518 280.37 168.151 280.476 161.093Z" fill="#0F0A26"/>
<path opacity="0.3922" d="M279.502 161.035C279.606 154.101 254.495 148.131 223.415 147.701C192.335 147.272 167.056 152.545 166.952 159.48C166.847 166.414 191.958 172.384 223.038 172.814C254.118 173.243 279.398 167.97 279.502 161.035Z" fill="#0F0A26"/>
<path opacity="0.4118" d="M278.528 160.978C278.631 154.166 253.966 148.303 223.438 147.881C192.911 147.459 168.08 152.638 167.978 159.45C167.876 166.261 192.54 172.125 223.068 172.547C253.596 172.969 278.426 167.789 278.528 160.978Z" fill="#0F0A26"/>
<path opacity="0.4314" d="M277.555 160.92C277.655 154.232 253.437 148.474 223.461 148.06C193.486 147.646 169.105 152.732 169.004 159.42C168.904 166.108 193.123 171.866 223.098 172.28C253.073 172.694 277.455 167.608 277.555 160.92Z" fill="#0F0A26"/>
<path opacity="0.451" d="M276.581 160.862C276.68 154.297 252.907 148.646 223.484 148.239C194.061 147.832 170.129 152.825 170.031 159.39C169.932 165.954 193.705 171.606 223.128 172.013C252.551 172.419 276.483 167.427 276.581 160.862Z" fill="#0F0A26"/>
<path opacity="0.4706" d="M275.608 160.805C275.704 154.363 252.378 148.817 223.507 148.418C194.637 148.019 171.154 152.918 171.057 159.359C170.96 165.801 194.287 171.347 223.157 171.746C252.028 172.145 275.511 167.246 275.608 160.805Z" fill="#0F0A26"/>
<path opacity="0.4902" d="M274.634 160.747C274.729 154.428 251.849 148.989 223.53 148.598C195.212 148.206 172.178 153.011 172.083 159.33C171.989 165.648 194.869 171.087 223.187 171.479C251.506 171.87 274.539 167.065 274.634 160.747Z" fill="#0F0A26"/>
<path opacity="0.5098" d="M273.661 160.689C273.754 154.494 251.32 149.161 223.554 148.777C195.787 148.393 173.203 153.104 173.11 159.299C173.017 165.495 195.451 170.828 223.217 171.212C250.983 171.596 273.568 166.884 273.661 160.689Z" fill="#0F0A26"/>
<path opacity="0.5294" d="M272.687 160.632C272.778 154.56 250.79 149.332 223.576 148.956C196.362 148.58 174.227 153.197 174.136 159.269C174.045 165.341 196.032 170.569 223.246 170.945C250.461 171.321 272.596 166.704 272.687 160.632Z" fill="#0F0A26"/>
<path opacity="0.549" d="M271.713 160.574C271.803 154.625 250.261 149.504 223.6 149.135C196.938 148.767 175.252 153.291 175.163 159.239C175.073 165.188 196.615 170.309 223.276 170.678C249.938 171.046 271.624 166.523 271.713 160.574Z" fill="#0F0A26"/>
<path opacity="0.5686" d="M270.74 160.516C270.827 154.691 249.732 149.675 223.623 149.315C197.513 148.954 176.276 153.384 176.189 159.209C176.102 165.035 197.197 170.05 223.306 170.411C249.415 170.772 270.652 166.342 270.74 160.516Z" fill="#0F0A26"/>
<path opacity="0.5882" d="M269.766 160.459C269.852 154.756 249.203 149.847 223.646 149.494C198.088 149.141 177.301 153.477 177.215 159.179C177.13 164.882 197.779 169.791 223.336 170.144C248.893 170.497 269.68 166.161 269.766 160.459Z" fill="#0F0A26"/>
<path opacity="0.6078" d="M268.792 160.401C268.876 154.822 248.674 150.019 223.669 149.673C198.664 149.327 178.326 153.57 178.242 159.149C178.158 164.728 198.361 169.531 223.366 169.877C248.37 170.223 268.709 165.98 268.792 160.401Z" fill="#0F0A26"/>
<path opacity="0.6275" d="M267.819 160.343C267.901 154.887 248.144 150.19 223.692 149.852C199.239 149.515 179.35 153.663 179.268 159.119C179.186 164.575 198.943 169.272 223.395 169.61C247.848 169.948 267.737 165.799 267.819 160.343Z" fill="#0F0A26"/>
<path opacity="0.6471" d="M266.845 160.285C266.925 154.953 247.615 150.362 223.715 150.032C199.814 149.701 180.374 153.757 180.294 159.089C180.214 164.422 199.525 169.013 223.425 169.343C247.325 169.673 266.765 165.618 266.845 160.285Z" fill="#0F0A26"/>
<path opacity="0.6667" d="M265.872 160.228C265.95 155.018 247.086 150.534 223.738 150.211C200.39 149.888 181.399 153.85 181.321 159.059C181.243 164.269 200.107 168.753 223.455 169.076C246.803 169.399 265.793 165.437 265.872 160.228Z" fill="#0F0A26"/>
<path opacity="0.6863" d="M264.898 160.17C264.974 155.084 246.557 150.705 223.761 150.39C200.965 150.075 182.423 153.943 182.347 159.029C182.271 164.115 200.689 168.494 223.484 168.809C246.28 169.124 264.822 165.256 264.898 160.17Z" fill="#0F0A26"/>
<path opacity="0.7059" d="M263.924 160.112C263.999 155.149 246.027 150.877 223.784 150.569C201.54 150.262 183.448 154.036 183.374 158.999C183.299 163.962 201.271 168.235 223.514 168.542C245.758 168.85 263.85 165.075 263.924 160.112Z" fill="#0F0A26"/>
<path opacity="0.7255" d="M262.951 160.055C263.023 155.215 245.498 151.048 223.807 150.749C202.115 150.449 184.472 154.129 184.4 158.969C184.327 163.809 201.852 167.975 223.544 168.275C245.235 168.575 262.878 164.895 262.951 160.055Z" fill="#0F0A26"/>
<path opacity="0.7451" d="M261.977 159.997C262.048 155.281 244.969 151.22 223.83 150.928C202.691 150.636 185.497 154.222 185.426 158.939C185.356 163.656 202.435 167.716 223.574 168.008C244.713 168.3 261.906 164.714 261.977 159.997Z" fill="#0F0A26"/>
<path opacity="0.7647" d="M261.003 159.939C261.072 155.346 244.44 151.392 223.853 151.107C203.266 150.823 186.522 154.316 186.453 158.909C186.384 163.502 203.017 167.457 223.603 167.741C244.19 168.026 260.935 164.533 261.003 159.939Z" fill="#0F0A26"/>
<path opacity="0.7843" d="M260.03 159.882C260.097 155.412 243.91 151.563 223.876 151.286C203.842 151.01 187.546 154.409 187.479 158.879C187.412 163.349 203.599 167.197 223.633 167.474C243.667 167.751 259.963 164.352 260.03 159.882Z" fill="#0F0A26"/>
<path opacity="0.8039" d="M259.056 159.824C259.122 155.477 243.381 151.735 223.899 151.465C204.417 151.196 188.571 154.502 188.505 158.849C188.44 163.196 204.181 166.938 223.663 167.207C243.145 167.476 258.991 164.171 259.056 159.824Z" fill="#0F0A26"/>
<path opacity="0.8235" d="M258.083 159.766C258.146 155.543 242.852 151.907 223.922 151.645C204.992 151.383 189.595 154.595 189.532 158.819C189.468 163.043 204.763 166.679 223.693 166.94C242.622 167.202 258.019 163.99 258.083 159.766Z" fill="#0F0A26"/>
<path opacity="0.8431" d="M257.109 159.709C257.171 155.608 242.323 152.078 223.945 151.824C205.567 151.57 190.62 154.688 190.558 158.789C190.497 162.889 205.345 166.419 223.722 166.673C242.1 166.927 257.048 163.809 257.109 159.709Z" fill="#0F0A26"/>
<path opacity="0.8627" d="M256.136 159.651C256.195 155.674 241.793 152.25 223.968 152.003C206.143 151.757 191.644 154.781 191.584 158.759C191.525 162.736 205.927 166.16 223.752 166.406C241.577 166.653 256.076 163.628 256.136 159.651Z" fill="#0F0A26"/>
<path opacity="0.8824" d="M255.162 159.593C255.22 155.739 241.264 152.421 223.991 152.183C206.718 151.944 192.669 154.875 192.611 158.729C192.553 162.583 206.509 165.901 223.782 166.139C241.055 166.378 255.104 163.447 255.162 159.593Z" fill="#0F0A26"/>
<path opacity="0.902" d="M254.188 159.536C254.244 155.805 240.735 152.593 224.014 152.362C207.294 152.131 193.693 154.968 193.637 158.699C193.581 162.43 207.091 165.641 223.811 165.872C240.532 166.104 254.132 163.266 254.188 159.536Z" fill="#0F0A26"/>
<path opacity="0.9216" d="M253.215 159.478C253.269 155.87 240.206 152.765 224.037 152.541C207.869 152.318 194.718 155.061 194.664 158.669C194.61 162.276 207.673 165.382 223.841 165.605C240.01 165.829 253.161 163.086 253.215 159.478Z" fill="#0F0A26"/>
<path opacity="0.9412" d="M252.241 159.42C252.293 155.936 239.676 152.936 224.06 152.72C208.444 152.504 195.742 155.154 195.69 158.638C195.638 162.123 208.255 165.122 223.871 165.338C239.487 165.554 252.189 162.904 252.241 159.42Z" fill="#0F0A26"/>
<path opacity="0.9608" d="M251.267 159.362C251.318 156.001 239.147 153.108 224.083 152.9C209.019 152.691 196.767 155.247 196.716 158.608C196.666 161.97 208.837 164.863 223.9 165.071C238.964 165.28 251.217 162.724 251.267 159.362Z" fill="#0F0A26"/>
<path opacity="0.9804" d="M250.294 159.305C250.342 156.067 238.618 153.279 224.106 153.079C209.595 152.878 197.791 155.34 197.743 158.578C197.694 161.816 209.419 164.604 223.93 164.804C238.442 165.005 250.245 162.543 250.294 159.305Z" fill="#0F0A26"/>
<path d="M249.32 159.247C249.367 156.132 238.088 153.451 224.129 153.258C210.17 153.065 198.816 155.434 198.769 158.548C198.722 161.663 210.001 164.345 223.96 164.537C237.919 164.73 249.273 162.362 249.32 159.247Z" fill="#0F0A26"/>
</g>
<g opacity="0.25">
<path opacity="0.0196" d="M151.112 190.774C151.251 181.499 117.662 173.513 76.0891 172.939C34.5159 172.364 0.701328 179.418 0.562141 188.693C0.422953 197.969 34.0119 205.954 75.5851 206.529C117.158 207.104 150.973 200.05 151.112 190.774Z" fill="#0F0A26"/>
<path opacity="0.0392" d="M150.139 190.717C150.276 181.564 117.133 173.685 76.1122 173.118C35.0912 172.551 1.72586 179.511 1.58852 188.663C1.45118 197.816 34.5939 205.695 75.6149 206.262C116.636 206.829 150.001 199.869 150.139 190.717Z" fill="#0F0A26"/>
<path opacity="0.0588" d="M149.165 190.659C149.3 181.63 116.604 173.856 76.1353 173.297C35.6666 172.738 2.75038 179.604 2.61489 188.633C2.4794 197.663 35.1759 205.436 75.6446 205.995C116.113 206.555 149.029 199.688 149.165 190.659Z" fill="#0F0A26"/>
<path opacity="0.0784" d="M148.191 190.601C148.325 181.695 116.075 174.028 76.1582 173.476C36.2418 172.925 3.77479 179.697 3.64115 188.603C3.50751 197.509 35.7578 205.176 75.6742 205.728C115.591 206.28 148.058 199.507 148.191 190.601Z" fill="#0F0A26"/>
<path opacity="0.098" d="M147.218 190.543C147.35 181.761 115.546 174.2 76.1814 173.656C36.8172 173.112 4.79947 179.79 4.66768 188.573C4.53588 197.356 36.34 204.917 75.7041 205.461C115.068 206.005 147.086 199.326 147.218 190.543Z" fill="#0F0A26"/>
<path opacity="0.1176" d="M146.244 190.486C146.374 181.826 115.016 174.371 76.2043 173.835C37.3924 173.298 5.82384 179.884 5.6939 188.543C5.56396 197.203 36.9218 204.658 75.7337 205.194C114.546 205.731 146.114 199.146 146.244 190.486Z" fill="#0F0A26"/>
<path opacity="0.1373" d="M145.271 190.428C145.399 181.892 114.487 174.543 76.2273 174.014C37.9677 173.485 6.84837 179.977 6.72028 188.513C6.59218 197.05 37.5039 204.399 75.7635 204.927C114.023 205.456 145.142 198.965 145.271 190.428Z" fill="#0F0A26"/>
<path opacity="0.1569" d="M144.297 190.37C144.423 181.957 113.958 174.714 76.2505 174.193C38.5432 173.672 7.87305 180.07 7.74681 188.483C7.62056 196.896 38.086 204.139 75.7934 204.66C113.501 205.181 144.171 198.784 144.297 190.37Z" fill="#0F0A26"/>
<path opacity="0.1765" d="M143.323 190.313C143.448 182.023 113.429 174.886 76.2735 174.373C39.1184 173.859 8.89746 180.163 8.77306 188.453C8.64866 196.743 38.6679 203.88 75.823 204.393C112.978 204.907 143.199 198.603 143.323 190.313Z" fill="#0F0A26"/>
<path opacity="0.1961" d="M142.35 190.255C142.472 182.088 112.899 175.058 76.2966 174.552C39.6938 174.046 9.92213 180.256 9.79959 188.423C9.67704 196.59 39.2501 203.62 75.8528 204.126C112.456 204.632 142.227 198.422 142.35 190.255Z" fill="#0F0A26"/>
<path opacity="0.2157" d="M141.376 190.197C141.497 182.154 112.37 175.229 76.3196 174.731C40.2692 174.233 10.9467 180.35 10.826 188.393C10.7053 196.437 39.8321 203.361 75.8825 203.859C111.933 204.358 141.255 198.241 141.376 190.197Z" fill="#0F0A26"/>
<path opacity="0.2353" d="M140.403 190.14C140.521 182.219 111.841 175.401 76.3427 174.91C40.8445 174.42 11.9712 180.443 11.8523 188.363C11.7335 196.283 40.4141 203.102 75.9123 203.592C111.41 204.083 140.284 198.06 140.403 190.14Z" fill="#0F0A26"/>
<path opacity="0.2549" d="M139.429 190.082C139.546 182.285 111.312 175.573 76.3657 175.09C41.4198 174.607 12.9957 180.536 12.8787 188.333C12.7617 196.13 40.9961 202.842 75.942 203.325C110.888 203.809 139.312 197.879 139.429 190.082Z" fill="#0F0A26"/>
<path opacity="0.2745" d="M138.455 190.024C138.571 182.351 110.782 175.744 76.3888 175.269C41.9951 174.793 14.0202 180.629 13.9051 188.303C13.7899 195.977 41.5781 202.583 75.9718 203.059C110.365 203.534 138.34 197.698 138.455 190.024Z" fill="#0F0A26"/>
<path opacity="0.2941" d="M137.482 189.967C137.595 182.416 110.253 175.916 76.4118 175.448C42.5705 174.981 15.0448 180.722 14.9315 188.273C14.8182 195.824 42.1602 202.324 76.0015 202.792C109.843 203.259 137.369 197.517 137.482 189.967Z" fill="#0F0A26"/>
<path opacity="0.3137" d="M136.508 189.909C136.62 182.482 109.724 176.088 76.4347 175.627C43.1456 175.167 16.0692 180.815 15.9577 188.243C15.8463 195.67 42.742 202.064 76.0311 202.525C109.32 202.985 136.397 197.337 136.508 189.909Z" fill="#0F0A26"/>
<path opacity="0.3333" d="M135.535 189.851C135.644 182.547 109.195 176.259 76.458 175.807C43.7211 175.354 17.0939 180.909 16.9843 188.213C16.8746 195.517 43.3242 201.805 76.061 202.258C108.798 202.71 135.425 197.156 135.535 189.851Z" fill="#0F0A26"/>
<path opacity="0.3529" d="M134.561 189.794C134.669 182.613 108.665 176.431 76.4809 175.986C44.2963 175.541 18.1182 181.002 18.0105 188.183C17.9027 195.364 43.9061 201.546 76.0906 201.991C108.275 202.435 134.453 196.975 134.561 189.794Z" fill="#0F0A26"/>
<path opacity="0.3725" d="M133.587 189.736C133.693 182.678 108.136 176.602 76.5039 176.165C44.8717 175.728 19.1429 181.095 19.037 188.153C18.9311 195.211 44.4882 201.286 76.1204 201.724C107.753 202.161 133.481 196.794 133.587 189.736Z" fill="#0F0A26"/>
<path opacity="0.3922" d="M132.614 189.678C132.718 182.744 107.607 176.774 76.527 176.344C45.4471 175.915 20.1675 181.188 20.0634 188.123C19.9594 195.057 45.0703 201.027 76.1502 201.457C107.23 201.886 132.51 196.613 132.614 189.678Z" fill="#0F0A26"/>
<path opacity="0.4118" d="M131.64 189.621C131.742 182.809 107.078 176.946 76.5501 176.524C46.0224 176.102 21.192 181.281 21.0898 188.093C20.9876 194.904 45.6523 200.768 76.1799 201.19C106.708 201.612 131.538 196.432 131.64 189.621Z" fill="#0F0A26"/>
<path opacity="0.4314" d="M130.667 189.563C130.767 182.875 106.549 177.117 76.5731 176.703C46.5977 176.289 22.2165 181.374 22.1162 188.063C22.0158 194.751 46.2343 200.508 76.2097 200.923C106.185 201.337 130.566 196.251 130.667 189.563Z" fill="#0F0A26"/>
<path opacity="0.451" d="M129.693 189.505C129.792 182.94 106.019 177.289 76.5962 176.882C47.1731 176.476 23.241 181.468 23.1425 188.033C23.044 194.598 46.8163 200.249 76.2394 200.656C105.663 201.062 129.595 196.07 129.693 189.505Z" fill="#0F0A26"/>
<path opacity="0.4706" d="M128.72 189.448C128.816 183.006 105.49 177.46 76.6192 177.061C47.7484 176.662 24.2656 181.561 24.1689 188.003C24.0723 194.444 47.3984 199.99 76.2692 200.389C105.14 200.788 128.623 195.889 128.72 189.448Z" fill="#0F0A26"/>
<path opacity="0.4902" d="M127.746 189.39C127.841 183.071 104.961 177.632 76.6423 177.241C48.3237 176.849 25.2901 181.654 25.1953 187.972C25.1005 194.291 47.9804 199.73 76.299 200.122C104.618 200.513 127.651 195.708 127.746 189.39Z" fill="#0F0A26"/>
<path opacity="0.5098" d="M126.772 189.332C126.865 183.137 104.432 177.804 76.6654 177.42C48.8991 177.036 26.3147 181.747 26.2217 187.943C26.1287 194.138 48.5624 199.471 76.3287 199.855C104.095 200.239 126.679 195.528 126.772 189.332Z" fill="#0F0A26"/>
<path opacity="0.5294" d="M125.799 189.275C125.89 183.203 103.902 177.975 76.6884 177.599C49.4744 177.223 27.3392 181.84 27.2481 187.912C27.157 193.984 49.1444 199.212 76.3585 199.588C103.573 199.964 125.708 195.347 125.799 189.275Z" fill="#0F0A26"/>
<path opacity="0.549" d="M124.825 189.217C124.914 183.268 103.373 178.147 76.7114 177.778C50.0497 177.41 28.3637 181.934 28.2745 187.882C28.1852 193.831 49.7264 198.952 76.3881 199.321C103.05 199.689 124.736 195.166 124.825 189.217Z" fill="#0F0A26"/>
<path opacity="0.5686" d="M123.852 189.159C123.939 183.334 102.844 178.319 76.7346 177.958C50.6251 177.597 29.3884 182.027 29.301 187.852C29.2136 193.678 50.3086 198.693 76.418 199.054C102.527 199.415 123.764 194.985 123.852 189.159Z" fill="#0F0A26"/>
<path opacity="0.5882" d="M122.878 189.101C122.963 183.399 102.315 178.49 76.7575 178.137C51.2003 177.784 30.4128 182.12 30.3272 187.822C30.2417 193.525 50.8905 198.434 76.4476 198.787C102.005 199.14 122.792 194.804 122.878 189.101Z" fill="#0F0A26"/>
<path opacity="0.6078" d="M121.904 189.044C121.988 183.465 101.785 178.662 76.7805 178.316C51.7757 177.971 31.4373 182.213 31.3536 187.792C31.2699 193.371 51.4725 198.174 76.4774 198.52C101.482 198.866 121.821 194.623 121.904 189.044Z" fill="#0F0A26"/>
<path opacity="0.6275" d="M120.931 188.986C121.013 183.53 101.256 178.833 76.8036 178.495C52.351 178.157 32.4619 182.306 32.38 187.762C32.2981 193.218 52.0545 197.915 76.5071 198.253C100.96 198.591 120.849 194.442 120.931 188.986Z" fill="#0F0A26"/>
<path opacity="0.6471" d="M119.957 188.929C120.037 183.596 100.727 179.005 76.8266 178.675C52.9263 178.344 33.4864 182.4 33.4064 187.732C33.3263 193.065 52.6365 197.656 76.5369 197.986C100.437 198.316 119.877 194.261 119.957 188.929Z" fill="#0F0A26"/>
<path opacity="0.6667" d="M118.983 188.871C119.062 183.661 100.198 179.177 76.8496 178.854C53.5015 178.531 34.5108 182.493 34.4326 187.702C34.3544 192.912 53.2184 197.396 76.5665 197.719C99.9146 198.042 118.905 194.08 118.983 188.871Z" fill="#0F0A26"/>
<path opacity="0.6863" d="M118.01 188.813C118.086 183.727 99.6686 179.348 76.8728 179.033C54.077 178.718 35.5354 182.586 35.4591 187.672C35.3828 192.758 53.8006 197.137 76.5964 197.452C99.3922 197.767 117.934 193.899 118.01 188.813Z" fill="#0F0A26"/>
<path opacity="0.7059" d="M117.036 188.755C117.111 183.792 99.1394 179.52 76.8958 179.212C54.6523 178.905 36.56 182.679 36.4855 187.642C36.411 192.605 54.3826 196.878 76.6261 197.185C98.8697 197.493 116.962 193.719 117.036 188.755Z" fill="#0F0A26"/>
<path opacity="0.7255" d="M116.063 188.698C116.135 183.858 98.6099 179.691 76.9188 179.391C55.2276 179.092 37.5845 182.772 37.5119 187.612C37.4393 192.452 54.9646 196.618 76.6558 196.918C98.347 197.218 115.99 193.537 116.063 188.698Z" fill="#0F0A26"/>
<path opacity="0.7451" d="M115.089 188.64C115.16 183.924 98.0809 179.863 76.942 179.571C55.8031 179.279 38.6092 182.866 38.5384 187.582C38.4677 192.299 55.5468 196.359 76.6857 196.651C97.8246 196.943 115.018 193.357 115.089 188.64Z" fill="#0F0A26"/>
<path opacity="0.7647" d="M114.115 188.582C114.184 183.989 97.5515 180.035 76.9649 179.75C56.3782 179.466 39.6336 182.959 39.5647 187.552C39.4957 192.145 56.1286 196.1 76.7153 196.384C97.3019 196.669 114.047 193.176 114.115 188.582Z" fill="#0F0A26"/>
<path opacity="0.7843" d="M113.142 188.525C113.209 184.055 97.0223 180.206 76.9879 179.929C56.9535 179.652 40.6581 183.052 40.591 187.522C40.524 191.992 56.7106 195.84 76.745 196.117C96.7794 196.394 113.075 192.995 113.142 188.525Z" fill="#0F0A26"/>
<path opacity="0.8039" d="M112.168 188.467C112.234 184.12 96.4931 180.378 77.011 180.109C57.5289 179.839 41.6827 183.145 41.6174 187.492C41.5522 191.839 57.2927 195.581 76.7748 195.85C96.2569 196.12 112.103 192.814 112.168 188.467Z" fill="#0F0A26"/>
<path opacity="0.8235" d="M111.195 188.409C111.258 184.185 95.9639 180.549 77.0341 180.288C58.1042 180.026 42.7072 183.238 42.6438 187.462C42.5804 191.685 57.8747 195.322 76.8045 195.583C95.7344 195.845 111.131 192.633 111.195 188.409Z" fill="#0F0A26"/>
<path opacity="0.8431" d="M110.221 188.352C110.283 184.251 95.4345 180.721 77.057 180.467C58.6794 180.213 43.7316 183.331 43.67 187.432C43.6085 191.532 58.4566 195.062 76.8341 195.316C95.2117 195.57 110.16 192.452 110.221 188.352Z" fill="#0F0A26"/>
<path opacity="0.8627" d="M109.248 188.294C109.307 184.317 94.9054 180.893 77.0802 180.646C59.2549 180.4 44.7562 183.424 44.6966 187.402C44.6369 191.379 59.0387 194.803 76.864 195.049C94.6893 195.296 109.188 192.271 109.248 188.294Z" fill="#0F0A26"/>
<path opacity="0.8824" d="M108.274 188.236C108.332 184.382 94.3761 181.064 77.1031 180.826C59.8301 180.587 45.7806 183.518 45.7228 187.372C45.665 191.226 59.6206 194.544 76.8937 194.782C94.1667 195.021 108.216 192.09 108.274 188.236Z" fill="#0F0A26"/>
<path opacity="0.902" d="M107.3 188.179C107.356 184.448 93.8469 181.236 77.1261 181.005C60.4054 180.774 46.8052 183.611 46.7492 187.342C46.6932 191.072 60.2027 194.284 76.9234 194.515C93.6442 194.746 107.244 191.909 107.3 188.179Z" fill="#0F0A26"/>
<path opacity="0.9216" d="M106.327 188.121C106.381 184.513 93.3175 181.407 77.1491 181.184C60.9807 180.961 47.8297 183.704 47.7756 187.312C47.7214 190.919 60.7846 194.025 76.953 194.248C93.1214 194.472 106.272 191.728 106.327 188.121Z" fill="#0F0A26"/>
<path opacity="0.9412" d="M105.353 188.063C105.405 184.579 92.7884 181.579 77.1723 181.363C61.5562 181.147 48.8544 183.797 48.8021 187.281C48.7498 190.766 61.3668 193.766 76.9829 193.981C92.5991 194.197 105.301 191.548 105.353 188.063Z" fill="#0F0A26"/>
<path opacity="0.9608" d="M104.38 188.005C104.43 184.644 92.2592 181.751 77.1953 181.542C62.1315 181.334 49.8789 183.89 49.8285 187.251C49.778 190.613 61.9488 193.506 77.0127 193.714C92.0765 193.922 104.329 191.367 104.38 188.005Z" fill="#0F0A26"/>
<path opacity="0.9804" d="M103.406 187.948C103.454 184.71 91.7298 181.922 77.2183 181.722C62.7067 181.521 50.9033 183.983 50.8547 187.221C50.8061 190.459 62.5307 193.247 77.0423 193.447C91.5539 193.648 103.357 191.186 103.406 187.948Z" fill="#0F0A26"/>
<path d="M102.432 187.89C102.479 184.775 91.2006 182.094 77.2413 181.901C63.282 181.708 51.9278 184.076 51.8811 187.191C51.8344 190.306 63.1127 192.987 77.0721 193.18C91.0314 193.373 102.386 191.005 102.432 187.89Z" fill="#0F0A26"/>
</g>
<path d="M296.65 107.166C296.616 106.227 296.566 105.284 296.499 104.336C296.469 103.906 296.423 103.472 296.386 103.04C296.369 102.85 296.353 102.661 296.336 102.472C296.305 102.145 296.284 101.819 296.25 101.491C296.15 100.539 296.035 99.5836 295.904 98.6251C295.77 97.6482 295.62 96.6684 295.454 95.6861C295.449 95.6556 295.442 95.6246 295.437 95.5938C295.43 95.5532 295.422 95.5128 295.415 95.4719C295.258 94.5597 295.091 93.6451 294.907 92.7287C294.704 91.7127 294.483 90.6952 294.247 89.6761C294.163 89.3134 294.065 88.9496 293.977 88.5865C293.924 88.3691 293.869 88.1524 293.815 87.935C293.705 87.4933 293.603 87.0524 293.487 86.6106C293.215 85.5761 292.926 84.5412 292.622 83.5063C292.399 82.7466 292.158 81.987 291.917 81.2278C291.873 81.0874 291.832 80.9474 291.787 80.807C291.745 80.6763 291.708 80.5451 291.666 80.4144C291.338 79.4042 290.996 78.3944 290.639 77.3859C290.286 76.3894 289.919 75.3938 289.538 74.4003C289.467 74.2146 289.39 74.0302 289.318 73.845C289.259 73.6931 289.197 73.542 289.137 73.3899C288.894 72.7709 288.655 72.1515 288.401 71.5341C288.011 70.584 287.609 69.6363 287.194 68.6911C286.896 68.01 286.584 67.3326 286.273 66.6548C286.217 66.5322 286.163 66.4091 286.107 66.2869C286.048 66.1587 285.992 66.0295 285.933 65.9018C285.493 64.9567 285.04 64.0149 284.577 63.077C284.066 62.0427 283.54 61.0128 283.002 59.9882C282.919 59.8315 282.83 59.6773 282.747 59.5206C282.639 59.3179 282.526 59.1176 282.418 58.9152C281.981 58.1006 281.546 57.2848 281.091 56.4775C280.523 55.4663 279.913 54.4753 279.319 53.4767C279.015 52.9663 278.725 52.4512 278.414 51.944C278.291 51.7438 278.18 51.5374 278.056 51.3375C277.514 50.4627 276.916 49.6247 276.355 48.7612C275.543 47.5113 274.743 46.2557 273.893 45.0324C273.756 44.8346 273.633 44.6266 273.495 44.4297C272.258 42.6707 270.98 40.9437 269.669 39.2489C269.645 39.2181 269.623 39.1861 269.6 39.1552C269.595 39.1492 269.591 39.1433 269.586 39.1372C268.691 37.9829 267.779 36.8445 266.851 35.7236C266.108 34.8265 265.355 33.9413 264.591 33.0674C264.573 33.0467 264.556 33.025 264.537 33.0042C264.524 32.9882 264.51 32.9718 264.496 32.9558C263.717 32.064 262.926 31.1846 262.127 30.3181C261.338 29.4644 260.541 28.6232 259.734 27.7962C259.604 27.663 259.47 27.5358 259.34 27.4031C259.21 27.2711 259.077 27.1435 258.947 27.012C258.375 26.4361 257.805 25.8571 257.225 25.2953C256.373 24.47 255.512 23.6601 254.643 22.8666C254.377 22.6244 254.107 22.3946 253.839 22.1552C253.64 21.9765 253.44 21.8018 253.24 21.6252C252.809 21.2447 252.383 20.8549 251.948 20.4825C251.048 19.7113 250.14 18.9572 249.224 18.2218C248.824 17.9011 248.418 17.5972 248.016 17.2836C247.817 17.1282 247.618 16.9732 247.419 16.8198C247.111 16.5838 246.808 16.3377 246.499 16.1057C245.61 15.4388 244.715 14.7888 243.813 14.1573C243.166 13.7047 242.513 13.2718 241.86 12.838C241.736 12.7558 241.615 12.6699 241.491 12.5885C241.377 12.5139 241.266 12.4336 241.153 12.3599C240.292 11.7989 239.426 11.2547 238.556 10.728C237.697 10.2092 236.835 9.70719 235.968 9.22301C235.768 9.11104 235.568 9.00026 235.368 8.89019C234.718 8.53352 234.07 8.18966 233.425 7.8579C232.586 7.4265 231.752 7.01646 230.922 6.62681C230.38 6.37251 229.844 6.14109 229.307 5.90481C229.179 5.84835 229.049 5.78869 228.921 5.73295C228.764 5.66498 228.605 5.58776 228.449 5.52134C227.629 5.17345 226.814 4.84596 226.005 4.53863C225.177 4.2249 224.356 3.9324 223.54 3.66078C223.396 3.61286 223.255 3.5749 223.111 3.52805C222.991 3.48914 222.873 3.45558 222.753 3.4175C222.199 3.24196 221.643 3.06154 221.095 2.90485C220.247 2.66312 219.407 2.44464 218.573 2.24892C218.169 2.15392 217.772 2.08204 217.371 1.99782C217.193 1.96046 217.015 1.92143 216.838 1.88644C216.583 1.83568 216.324 1.77257 216.071 1.72631C215.171 1.56192 214.28 1.42516 213.399 1.31521C212.854 1.24724 212.32 1.21094 211.782 1.16386C211.595 1.14784 211.406 1.12495 211.22 1.11119C211.043 1.09791 210.862 1.07216 210.687 1.06125C209.717 1.00112 208.761 0.975141 207.819 0.982732C207.399 0.986172 206.996 1.02757 206.583 1.04417C206.265 1.05675 205.949 1.07062 205.634 1.09114C205.31 1.11261 204.977 1.11036 204.657 1.13989C203.459 1.25068 202.288 1.41911 201.143 1.64447C201.12 1.64898 201.1 1.65788 201.077 1.66238C200.81 1.71528 200.565 1.81112 200.302 1.87055C199.14 2.13209 197.983 2.40941 196.883 2.78956C196.79 2.82123 196.71 2.87544 196.618 2.90841C194.994 3.48641 193.429 4.17141 191.951 5.00383L167.586 18.7141C169.063 17.8816 170.629 17.1967 172.253 16.6187C173.44 16.1959 174.676 15.8642 175.936 15.5808C176.2 15.5215 176.445 15.426 176.711 15.3726C178.182 15.0797 179.71 14.904 181.269 14.8014C181.583 14.7807 181.9 14.767 182.218 14.7544C183.729 14.693 185.271 14.7036 186.854 14.8213C187.041 14.835 187.23 14.8575 187.417 14.874C189.068 15.0183 190.752 15.2545 192.473 15.5966C192.649 15.6316 192.828 15.6706 193.006 15.7079C194.763 16.0767 196.554 16.5458 198.376 17.1243C198.502 17.1644 198.627 17.2 198.753 17.2408C200.655 17.8584 202.59 18.5914 204.552 19.4413C204.684 19.4981 204.817 19.5603 204.949 19.6183C206.941 20.4953 208.958 21.4791 211.002 22.6C213.069 23.7337 215.111 24.9732 217.125 26.2983C217.249 26.3797 217.371 26.4656 217.494 26.5477C219.373 27.7959 221.226 29.1258 223.05 30.5269C223.252 30.6814 223.453 30.8385 223.653 30.9954C225.42 32.3733 227.16 33.8202 228.868 35.3293C229.072 35.5096 229.276 35.6885 229.479 35.8704C231.211 37.4228 232.911 39.0384 234.573 40.7129C234.708 40.8488 234.845 40.9816 234.98 41.1184C236.753 42.922 238.488 44.7865 240.172 46.7139C240.19 46.7346 240.208 46.7563 240.226 46.7771C241.947 48.7489 243.618 50.7803 245.234 52.8649C245.258 52.8961 245.28 52.9293 245.304 52.9606C246.759 54.8411 248.157 56.7737 249.52 58.7329C250.382 59.971 251.192 61.2438 252.014 62.5098C252.693 63.5551 253.393 64.585 254.044 65.6473C254.358 66.1596 254.653 66.6821 254.961 67.1981C256.027 68.9899 257.069 70.7943 258.052 72.625C258.161 72.8273 258.274 73.0277 258.382 73.2304C259.568 75.4662 260.692 77.7261 261.745 80.0047C261.799 80.1206 261.85 80.2372 261.902 80.3531C262.929 82.5909 263.887 84.8454 264.776 87.1094C264.833 87.2553 264.893 87.4008 264.95 87.5469C265.85 89.8663 266.678 92.1948 267.425 94.5262C267.467 94.6577 267.505 94.7897 267.547 94.9216C268.258 97.1672 268.892 99.4142 269.453 101.657C269.505 101.866 269.558 102.076 269.609 102.285C270.171 104.598 270.659 106.906 271.052 109.199C271.058 109.231 271.065 109.264 271.07 109.296C271.463 111.608 271.759 113.904 271.97 116.182C271.987 116.371 272.003 116.56 272.02 116.75C272.215 119.028 272.33 121.287 272.334 123.514C272.337 125.736 272.233 127.87 272.045 129.932C272.027 130.122 272.006 130.308 271.987 130.496C271.797 132.386 271.527 134.205 271.182 135.953C271.136 136.187 271.089 136.42 271.04 136.651C270.682 138.345 270.251 139.967 269.752 141.521C269.659 141.813 269.557 142.096 269.459 142.382C268.958 143.842 268.4 145.241 267.777 146.569C267.708 146.716 267.651 146.877 267.58 147.022C266.848 148.535 266.036 149.959 265.15 151.293C265.031 151.472 264.893 151.628 264.771 151.804C264.036 152.867 263.252 153.868 262.423 154.809C262.121 155.152 261.805 155.475 261.491 155.801C260.763 156.557 260.003 157.268 259.212 157.936C258.885 158.213 258.565 158.498 258.228 158.759C257.107 159.625 255.947 160.434 254.715 161.128C254.714 161.129 254.712 161.13 254.711 161.131L254.712 161.13C254.712 161.131 254.711 161.131 254.71 161.132L279.076 147.421C280.31 146.726 281.471 145.917 282.594 145.049C282.931 144.788 283.25 144.502 283.577 144.226C284.369 143.558 285.129 142.848 285.857 142.09C286.171 141.764 286.487 141.442 286.789 141.099C287.618 140.158 288.402 139.157 289.137 138.094C289.259 137.918 289.397 137.762 289.516 137.583C289.543 137.541 289.577 137.505 289.605 137.463C290.432 136.204 291.194 134.866 291.887 133.449C291.908 133.405 291.925 133.356 291.946 133.312C292.016 133.167 292.074 133.006 292.143 132.86C292.56 131.969 292.969 131.067 293.332 130.117C293.511 129.649 293.661 129.151 293.826 128.669C293.924 128.384 294.024 128.103 294.118 127.812C294.202 127.548 294.302 127.301 294.383 127.033C294.675 126.062 294.941 125.065 295.18 124.042C295.264 123.686 295.327 123.311 295.404 122.948C295.454 122.712 295.502 122.475 295.549 122.235C295.619 121.88 295.702 121.537 295.766 121.176C295.927 120.262 296.068 119.33 296.188 118.379C296.254 117.857 296.3 117.315 296.353 116.781C296.371 116.596 296.393 116.413 296.41 116.227C296.43 116.002 296.46 115.787 296.479 115.561C296.551 114.656 296.607 113.736 296.644 112.801C296.68 111.873 296.699 110.93 296.7 109.972C296.7 109.916 296.7 109.86 296.7 109.804C296.698 108.929 296.682 108.049 296.65 107.166Z" fill="url(#paint0_linear_10003_4979)"/>
<path d="M211.003 22.6004C244.793 41.1323 272.272 86.3447 272.334 123.515C272.397 160.685 245.02 175.765 211.229 157.233C177.438 138.701 150.004 93.5612 149.942 56.3911C149.879 19.2211 177.212 4.06867 211.003 22.6004Z" fill="url(#paint1_linear_10003_4979)"/>
<path opacity="0.19" d="M211.002 22.6004C191.926 12.1387 174.915 12.4217 163.723 21.3314C174.918 12.9932 191.576 12.9132 210.23 23.1438C244.021 41.6757 271.499 86.8881 271.562 124.058C271.589 140.239 266.409 152.223 257.771 159.081C266.859 152.33 272.362 140.159 272.334 123.515C272.272 86.3447 244.793 41.132 211.002 22.6004Z" fill="white"/>
<path d="M211.028 35.073C238.558 50.1714 260.946 87.0079 260.997 117.292C261.048 147.576 238.743 159.862 211.212 144.764C183.682 129.665 161.33 92.8878 161.279 62.6037C161.228 32.3198 183.497 19.9745 211.028 35.073Z" fill="url(#paint2_linear_10003_4979)"/>
<path d="M211.057 49.482C231.355 60.6144 247.862 87.774 247.899 110.102C247.937 132.431 231.491 141.49 211.193 130.357C190.894 119.225 174.414 92.1091 174.377 69.7804C174.339 47.4521 190.758 38.3497 211.057 49.482Z" fill="url(#paint3_linear_10003_4979)"/>
<path d="M211.08 61.3134C225.44 69.1889 237.118 88.4032 237.145 104.199C237.171 119.996 225.537 126.405 211.177 118.529C196.817 110.654 185.158 91.4702 185.131 75.6737C185.104 59.8773 196.72 53.4378 211.08 61.3134Z" fill="url(#paint4_linear_10003_4979)"/>
<path d="M211.104 73.2866C219.455 77.8662 226.246 89.0397 226.261 98.2256C226.277 107.412 219.511 111.138 211.161 106.559C202.81 101.979 196.03 90.8235 196.015 81.6376C195.999 72.4517 202.754 68.7068 211.104 73.2866Z" fill="url(#paint5_linear_10003_4979)"/>
<path d="M211.124 82.7937C214.703 84.7567 217.613 89.5459 217.62 93.4831C217.627 97.4203 214.727 99.0177 211.148 97.0547C207.569 95.0916 204.663 90.3101 204.656 86.3728C204.649 82.4357 207.544 80.8306 211.124 82.7937Z" fill="url(#paint6_linear_10003_4979)"/>
<g opacity="0.47">
<path opacity="0.0196" d="M206.926 119.08C214.957 102.398 218.207 87.4285 214.186 85.6455C210.165 83.8625 200.395 95.941 192.364 112.624C184.334 129.306 181.083 144.275 185.104 146.058C189.126 147.841 198.896 135.763 206.926 119.08Z" fill="#0F0A26"/>
<path opacity="0.0392" d="M206.999 118.692C214.923 102.231 218.13 87.4607 214.162 85.7014C210.194 83.9421 200.554 95.8601 192.63 112.321C184.706 128.782 181.499 143.552 185.467 145.312C189.435 147.071 199.075 135.153 206.999 118.692Z" fill="#0F0A26"/>
<path opacity="0.0588" d="M207.071 118.304C214.888 102.064 218.052 87.4928 214.138 85.7572C210.223 84.0215 200.713 95.7791 192.896 112.019C185.078 128.258 181.915 142.829 185.829 144.565C189.743 146.301 199.254 134.543 207.071 118.304Z" fill="#0F0A26"/>
<path opacity="0.0784" d="M207.143 117.916C214.854 101.898 217.975 87.5251 214.114 85.8132C210.253 84.1013 200.872 95.6985 193.162 111.716C185.451 127.734 182.33 142.107 186.191 143.819C190.052 145.53 199.433 133.933 207.143 117.916Z" fill="#0F0A26"/>
<path opacity="0.098" d="M207.216 117.527C214.82 101.731 217.897 87.5573 214.09 85.8691C210.282 84.1809 201.031 95.6176 193.428 111.414C185.824 127.21 182.746 141.384 186.554 143.072C190.361 144.76 199.612 133.323 207.216 117.527Z" fill="#0F0A26"/>
<path opacity="0.1176" d="M207.288 117.139C214.785 101.564 217.82 87.5895 214.066 85.9249C210.311 84.2604 201.191 95.5366 193.693 111.111C186.196 126.686 183.162 140.661 186.916 142.325C190.67 143.99 199.791 132.714 207.288 117.139Z" fill="#0F0A26"/>
<path opacity="0.1373" d="M207.36 116.751C214.751 101.398 217.742 87.6218 214.041 85.9809C210.341 84.3401 201.35 95.4558 193.959 110.809C186.569 126.162 183.577 139.938 187.278 141.579C190.979 143.219 199.97 132.104 207.36 116.751Z" fill="#0F0A26"/>
<path opacity="0.1569" d="M207.433 116.363C214.717 101.231 217.665 87.6541 214.017 86.0369C210.37 84.4198 201.509 95.375 194.225 110.506C186.941 125.638 183.993 139.215 187.64 140.832C191.288 142.449 200.149 131.494 207.433 116.363Z" fill="#0F0A26"/>
<path opacity="0.1765" d="M207.505 115.974C214.682 101.065 217.587 87.6863 213.993 86.0928C210.399 84.4993 201.668 95.2941 194.491 110.204C187.314 125.113 184.409 138.492 188.003 140.085C191.597 141.679 200.328 130.884 207.505 115.974Z" fill="#0F0A26"/>
<path opacity="0.1961" d="M207.578 115.586C214.648 100.898 217.51 87.7184 213.969 86.1486C210.429 84.5788 201.827 95.2132 194.756 109.901C187.686 124.589 184.824 137.769 188.365 139.339C191.905 140.908 200.507 130.274 207.578 115.586Z" fill="#0F0A26"/>
<path opacity="0.2157" d="M207.65 115.198C214.614 100.731 217.432 87.7507 213.945 86.2046C210.458 84.6585 201.986 95.1324 195.022 109.599C188.059 124.065 185.24 137.046 188.727 138.592C192.214 140.138 200.686 129.664 207.65 115.198Z" fill="#0F0A26"/>
<path opacity="0.2353" d="M207.722 114.81C214.579 100.565 217.355 87.7831 213.921 86.2606C210.487 84.7382 202.145 95.0516 195.288 109.296C188.431 123.541 185.656 136.323 189.089 137.845C192.523 139.368 200.865 129.054 207.722 114.81Z" fill="#0F0A26"/>
<path opacity="0.2549" d="M207.795 114.421C214.545 100.398 217.277 87.8152 213.897 86.3164C210.517 84.8176 202.304 94.9707 195.554 108.994C188.803 123.017 186.071 135.6 189.452 137.099C192.832 138.598 201.044 128.445 207.795 114.421Z" fill="#0F0A26"/>
<path opacity="0.2745" d="M207.867 114.033C214.511 100.232 217.2 87.8475 213.873 86.3725C210.546 84.8974 202.464 94.89 195.82 108.692C189.176 122.493 186.487 134.877 189.814 136.352C193.141 137.827 201.223 127.835 207.867 114.033Z" fill="#0F0A26"/>
<path opacity="0.2941" d="M207.939 113.645C214.476 100.065 217.122 87.8796 213.849 86.4282C210.576 84.9769 202.623 94.809 196.086 108.389C189.549 121.969 186.903 134.154 190.176 135.605C193.45 137.057 201.402 127.225 207.939 113.645Z" fill="#0F0A26"/>
<path opacity="0.3137" d="M208.012 113.257C214.442 99.8984 217.045 87.912 213.825 86.4843C210.605 85.0566 202.782 94.7283 196.352 108.087C189.921 121.445 187.319 133.431 190.539 134.859C193.758 136.287 201.582 126.615 208.012 113.257Z" fill="#0F0A26"/>
<path opacity="0.3333" d="M208.084 112.868C214.408 99.7316 216.967 87.9441 213.801 86.5401C210.634 85.136 202.941 94.6472 196.617 107.784C190.294 120.921 187.734 132.708 190.901 134.112C194.067 135.516 201.76 126.005 208.084 112.868Z" fill="#0F0A26"/>
<path opacity="0.3529" d="M208.157 112.48C214.374 99.565 216.89 87.9764 213.777 86.5961C210.664 85.2157 203.1 94.5664 196.883 107.481C190.666 120.397 188.15 131.985 191.263 133.366C194.376 134.746 201.94 125.395 208.157 112.48Z" fill="#0F0A26"/>
<path opacity="0.3725" d="M208.229 112.092C214.339 99.3985 216.812 88.0086 213.753 86.652C210.693 85.2953 203.259 94.4856 197.149 107.179C191.039 119.873 188.566 131.262 191.625 132.619C194.685 133.976 202.119 124.785 208.229 112.092Z" fill="#0F0A26"/>
<path opacity="0.3922" d="M208.301 111.704C214.305 99.2319 216.735 88.0409 213.729 86.708C210.722 85.375 203.418 94.4048 197.415 106.877C191.411 119.348 188.981 130.539 191.988 131.872C194.994 133.205 202.298 124.176 208.301 111.704Z" fill="#0F0A26"/>
<path opacity="0.4118" d="M208.374 111.315C214.271 99.0652 216.657 88.0731 213.704 86.7639C210.751 85.4546 203.577 94.3239 197.68 106.574C191.784 118.824 189.397 129.816 192.35 131.126C195.303 132.435 202.477 123.566 208.374 111.315Z" fill="#0F0A26"/>
<path opacity="0.4314" d="M208.446 110.927C214.236 98.8985 216.58 88.1053 213.68 86.8197C210.781 85.5341 203.737 94.243 197.946 106.272C192.156 118.3 189.813 129.093 192.712 130.379C195.611 131.665 202.656 122.956 208.446 110.927Z" fill="#0F0A26"/>
<path opacity="0.451" d="M208.518 110.539C214.202 98.7319 216.502 88.1375 213.656 86.8755C210.81 85.6136 203.896 94.1621 198.212 105.969C192.528 117.776 190.228 128.37 193.074 129.632C195.92 130.894 202.835 122.346 208.518 110.539Z" fill="#0F0A26"/>
<path opacity="0.4706" d="M208.591 110.151C214.168 98.5653 216.425 88.1698 213.632 86.9315C210.84 85.6933 204.055 94.0813 198.478 105.667C192.901 117.252 190.644 127.647 193.437 128.886C196.229 130.124 203.014 121.736 208.591 110.151Z" fill="#0F0A26"/>
<path opacity="0.4902" d="M208.663 109.762C214.133 98.3986 216.347 88.2019 213.608 86.9874C210.869 85.7729 204.214 94.0005 198.744 105.364C193.274 116.728 191.06 126.925 193.799 128.139C196.538 129.354 203.193 121.126 208.663 109.762Z" fill="#0F0A26"/>
<path opacity="0.5098" d="M208.735 109.374C214.099 98.2321 216.27 88.2342 213.584 87.0434C210.898 85.8526 204.373 93.9197 199.009 105.062C193.646 116.204 191.475 126.202 194.161 127.393C196.847 128.583 203.372 120.516 208.735 109.374Z" fill="#0F0A26"/>
<path opacity="0.5294" d="M208.808 108.986C214.065 98.0655 216.192 88.2666 213.56 87.0994C210.928 85.9323 204.532 93.8389 199.275 104.759C194.019 115.68 191.891 125.479 194.523 126.646C197.156 127.813 203.551 119.906 208.808 108.986Z" fill="#0F0A26"/>
<path opacity="0.549" d="M208.88 108.598C214.03 97.8987 216.115 88.2986 213.536 87.1552C210.957 86.0117 204.691 93.7578 199.541 104.457C194.391 115.155 192.307 124.756 194.886 125.899C197.464 127.043 203.73 119.296 208.88 108.598Z" fill="#0F0A26"/>
<path opacity="0.5686" d="M208.953 108.209C213.996 97.7321 216.037 88.3309 213.512 87.2111C210.986 86.0913 204.85 93.677 199.807 104.154C194.763 114.632 192.722 124.033 195.248 125.153C197.773 126.272 203.909 118.687 208.953 108.209Z" fill="#0F0A26"/>
<path opacity="0.5882" d="M209.025 107.821C213.962 97.5655 215.96 88.3631 213.488 87.267C211.016 86.1709 205.009 93.5961 200.073 103.852C195.136 114.107 193.138 123.31 195.61 124.406C198.082 125.502 204.088 118.077 209.025 107.821Z" fill="#0F0A26"/>
<path opacity="0.6078" d="M209.097 107.433C213.928 97.399 215.882 88.3955 213.464 87.323C211.045 86.2506 205.169 93.5154 200.339 103.549C195.509 113.583 193.554 122.587 195.972 123.659C198.391 124.732 204.267 117.467 209.097 107.433Z" fill="#0F0A26"/>
<path opacity="0.6275" d="M209.17 107.045C213.893 97.2323 215.805 88.4276 213.439 87.3789C211.074 86.3302 205.328 93.4345 200.604 103.247C195.881 113.059 193.969 121.864 196.334 122.913C198.7 123.961 204.446 116.857 209.17 107.045Z" fill="#0F0A26"/>
<path opacity="0.6471" d="M209.242 106.656C213.859 97.0657 215.727 88.4598 213.415 87.4348C211.104 86.4097 205.487 93.3536 200.87 102.944C196.253 112.535 194.385 121.141 196.697 122.166C199.009 123.191 204.625 116.247 209.242 106.656Z" fill="#0F0A26"/>
<path opacity="0.6667" d="M209.314 106.268C213.825 96.8991 215.65 88.4922 213.391 87.4908C211.133 86.4894 205.646 93.2728 201.136 102.642C196.626 112.011 194.801 120.418 197.059 121.419C199.317 122.421 204.804 115.637 209.314 106.268Z" fill="#0F0A26"/>
<path opacity="0.6863" d="M209.387 105.88C213.79 96.7324 215.572 88.5243 213.367 87.5467C211.162 86.569 205.805 93.192 201.402 102.34C196.998 111.487 195.216 119.695 197.421 120.673C199.626 121.65 204.983 115.027 209.387 105.88Z" fill="#0F0A26"/>
<path opacity="0.7059" d="M209.459 105.492C213.756 96.5656 215.495 88.5564 213.343 87.6024C211.192 86.6484 205.964 93.111 201.668 102.037C197.371 110.963 195.632 118.972 197.784 119.926C199.935 120.88 205.162 114.417 209.459 105.492Z" fill="#0F0A26"/>
<path opacity="0.7255" d="M209.531 105.103C213.721 96.3991 215.417 88.5887 213.319 87.6584C211.221 86.7281 206.123 93.0302 201.933 101.734C197.743 110.439 196.048 118.249 198.146 119.179C200.244 120.11 205.341 113.808 209.531 105.103Z" fill="#0F0A26"/>
<path opacity="0.7451" d="M209.604 104.715C213.687 96.2325 215.34 88.621 213.295 87.7143C211.25 86.8077 206.283 92.9493 202.199 101.432C198.116 109.915 196.463 117.526 198.508 118.433C200.553 119.339 205.52 113.198 209.604 104.715Z" fill="#0F0A26"/>
<path opacity="0.7647" d="M209.676 104.327C213.653 96.0659 215.262 88.6533 213.271 87.7703C211.28 86.8874 206.442 92.8685 202.465 101.13C198.488 109.391 196.879 116.803 198.87 117.686C200.862 118.569 205.7 112.588 209.676 104.327Z" fill="#0F0A26"/>
<path opacity="0.7843" d="M209.749 103.939C213.619 95.8993 215.185 88.6855 213.247 87.8262C211.309 86.967 206.601 92.7876 202.731 100.827C198.861 108.866 197.295 116.08 199.233 116.939C201.17 117.799 205.879 111.978 209.749 103.939Z" fill="#0F0A26"/>
<path opacity="0.8039" d="M209.821 103.551C213.584 95.7327 215.107 88.7177 213.223 87.8822C211.338 87.0466 206.76 92.7068 202.997 100.525C199.233 108.342 197.71 115.357 199.595 116.193C201.479 117.029 206.058 111.368 209.821 103.551Z" fill="#0F0A26"/>
<path opacity="0.8235" d="M209.893 103.162C213.55 95.566 215.03 88.7499 213.199 87.938C211.368 87.1261 206.919 92.6259 203.263 100.222C199.606 107.818 198.126 114.634 199.957 115.446C201.788 116.258 206.237 110.758 209.893 103.162Z" fill="#0F0A26"/>
<path opacity="0.8431" d="M209.966 102.774C213.516 95.3993 214.952 88.7821 213.175 87.9939C211.397 87.2057 207.078 92.545 203.528 99.9195C199.978 107.294 198.542 113.911 200.319 114.7C202.097 115.488 206.416 110.148 209.966 102.774Z" fill="#0F0A26"/>
<path opacity="0.8627" d="M210.038 102.385C213.481 95.2325 214.875 88.8141 213.151 88.0496C211.426 87.2851 207.237 92.4639 203.794 99.6169C200.351 106.77 198.957 113.188 200.681 113.953C202.406 114.717 206.595 109.538 210.038 102.385Z" fill="#0F0A26"/>
<path opacity="0.8824" d="M210.11 101.997C213.447 95.0661 214.797 88.8466 213.127 88.1058C211.456 87.365 207.397 92.3834 204.06 99.3147C200.723 106.246 199.373 112.466 201.044 113.206C202.715 113.947 206.774 108.929 210.11 101.997Z" fill="#0F0A26"/>
<path opacity="0.902" d="M210.183 101.609C213.412 94.8994 214.72 88.8788 213.102 88.1617C211.485 87.4445 207.556 92.3025 204.326 99.0122C201.096 105.722 199.789 111.742 201.406 112.46C203.023 113.177 206.953 108.319 210.183 101.609Z" fill="#0F0A26"/>
<path opacity="0.9216" d="M210.255 101.221C213.378 94.7328 214.642 88.911 213.078 88.2176C211.515 87.5241 207.715 92.2217 204.592 98.7098C201.468 105.198 200.204 111.02 201.768 111.713C203.332 112.407 207.132 107.709 210.255 101.221Z" fill="#0F0A26"/>
<path opacity="0.9412" d="M210.327 100.833C213.344 94.566 214.565 88.9431 213.054 88.2733C211.544 87.6036 207.874 92.1406 204.857 98.4071C201.841 104.674 200.62 110.296 202.13 110.966C203.641 111.636 207.311 107.099 210.327 100.833Z" fill="#0F0A26"/>
<path opacity="0.9608" d="M210.4 100.444C213.31 94.3995 214.487 88.9754 213.03 88.3294C211.573 87.6833 208.033 92.0598 205.123 98.1047C202.213 104.149 201.036 109.574 202.493 110.22C203.95 110.866 207.49 106.489 210.4 100.444Z" fill="#0F0A26"/>
<path opacity="0.9804" d="M210.472 100.056C213.275 94.2328 214.41 89.0075 213.006 88.3851C211.602 87.7627 208.192 91.9789 205.389 97.8021C202.586 103.625 201.451 108.851 202.855 109.473C204.259 110.095 207.669 105.879 210.472 100.056Z" fill="#0F0A26"/>
<path d="M210.544 99.6679C213.241 94.0662 214.332 89.0399 212.982 88.4412C211.632 87.8424 208.351 91.8981 205.655 97.4997C202.958 103.101 201.867 108.128 203.217 108.726C204.567 109.325 207.848 105.269 210.544 99.6679Z" fill="#0F0A26"/>
</g>
<path d="M193.174 98.8241C193.174 98.8241 208.432 89.0371 210.486 90.2887C212.515 91.5254 209.404 93.6649 206.67 95.4819C203.936 97.2989 192.144 104.121 192.144 104.121L193.174 98.8241Z" fill="url(#paint7_linear_10003_4979)"/>
<path d="M61.506 170.699C61.506 170.699 47.1975 174.06 46.2517 185.407C45.3059 196.754 57.5536 203.735 72.5216 197.658C87.4896 191.58 99.3066 162.535 99.3066 162.535L61.506 170.699Z" fill="url(#paint8_linear_10003_4979)"/>
<path d="M60.0703 171.991C60.0703 171.991 47.8529 179.89 38.4697 172.927C29.0865 165.964 31.945 152.571 46.7005 146.032C61.4561 139.493 91.7959 150.644 91.7959 150.644L60.0703 171.991Z" fill="url(#paint9_linear_10003_4979)"/>
<path d="M62.1792 168.863C62.1792 168.863 38.881 169.635 45.5077 146.274C52.1344 122.914 111.959 129.488 111.959 129.488C111.959 129.488 78.4194 150.63 70.6443 157.079C62.8694 163.529 62.1792 168.863 62.1792 168.863Z" fill="url(#paint10_linear_10003_4979)"/>
<path d="M183.518 124.958C180.46 127.566 172.43 131.923 162.022 137.022C136.511 149.531 96.5763 166.604 79.1264 173.956C73.7215 176.238 67.4826 175.852 62.4174 172.888L62.0776 172.681L61.4908 172.325V171.703V171.317C61.4908 165.626 64.3632 160.32 69.2121 157.06C84.3459 146.922 118.566 124.217 142.873 109.722C153.899 103.141 162.918 98.2502 167.118 97.0053C183.271 92.2034 196.15 114.198 183.518 124.958Z" fill="url(#paint11_linear_10003_4979)"/>
<path d="M197.939 99.224C197.537 101.905 195.028 115.154 183.518 124.958C180.46 127.566 172.43 131.923 162.022 137.022C162.022 125.938 155.505 115.803 145.182 110.833L142.873 109.722C153.899 103.141 162.918 98.2503 167.118 97.0054C182.261 92.5036 195.667 97.7714 197.691 98.6429C197.826 98.7009 197.978 98.9625 197.939 99.224Z" fill="url(#paint12_linear_10003_4979)"/>
<path d="M61.4908 172.325C61.4908 172.325 49.4372 192.597 73.7317 199.119C98.0262 205.641 122.83 152.981 122.83 152.981C122.83 152.981 86.7159 169.77 76.9596 172.868C67.2033 175.966 61.4908 172.325 61.4908 172.325Z" fill="url(#paint13_linear_10003_4979)"/>
<defs>
<linearGradient id="paint0_linear_10003_4979" x1="267.572" y1="151.895" x2="209.542" y2="-18.2421" gradientUnits="userSpaceOnUse">
<stop stop-color="#858AC2"/>
<stop offset="0.6016" stop-color="#D9DAEC"/>
<stop offset="1" stop-color="white"/>
</linearGradient>
<linearGradient id="paint1_linear_10003_4979" x1="269.103" y1="115.761" x2="134.796" y2="50.7755" gradientUnits="userSpaceOnUse">
<stop stop-color="#F9FCFF"/>
<stop offset="1" stop-color="#E5E5F2"/>
</linearGradient>
<linearGradient id="paint2_linear_10003_4979" x1="171.209" y1="148.4" x2="229.863" y2="55.1605" gradientUnits="userSpaceOnUse">
<stop stop-color="#5F289E"/>
<stop offset="0.2674" stop-color="#5F289E"/>
<stop offset="0.58" stop-color="#5F289E"/>
<stop offset="1" stop-color="#F5AFAF"/>
</linearGradient>
<linearGradient id="paint3_linear_10003_4979" x1="245.959" y1="105.445" x2="165.279" y2="66.4071" gradientUnits="userSpaceOnUse">
<stop stop-color="#F9FCFF"/>
<stop offset="1" stop-color="#E5E5F2"/>
</linearGradient>
<linearGradient id="paint4_linear_10003_4979" x1="171.206" y1="148.399" x2="229.861" y2="55.1591" gradientUnits="userSpaceOnUse">
<stop stop-color="#5F289E"/>
<stop offset="0.2674" stop-color="#5F289E"/>
<stop offset="0.58" stop-color="#5F289E"/>
<stop offset="1" stop-color="#F5AFAF"/>
</linearGradient>
<linearGradient id="paint5_linear_10003_4979" x1="225.463" y1="96.3084" x2="192.271" y2="80.2514" gradientUnits="userSpaceOnUse">
<stop stop-color="#F9FCFF"/>
<stop offset="1" stop-color="#E5E5F2"/>
</linearGradient>
<linearGradient id="paint6_linear_10003_4979" x1="171.205" y1="148.398" x2="229.859" y2="55.1582" gradientUnits="userSpaceOnUse">
<stop stop-color="#701616"/>
<stop offset="0.2674" stop-color="#5F289E"/>
<stop offset="0.58" stop-color="#5F289E"/>
<stop offset="1" stop-color="#F5AFAF"/>
</linearGradient>
<linearGradient id="paint7_linear_10003_4979" x1="199.584" y1="94.4143" x2="201.655" y2="97.8389" gradientUnits="userSpaceOnUse">
<stop stop-color="#F9FCFF"/>
<stop offset="1" stop-color="#B2B5D8"/>
</linearGradient>
<linearGradient id="paint8_linear_10003_4979" x1="74.4316" y1="171.754" x2="51.3344" y2="210.07" gradientUnits="userSpaceOnUse">
<stop stop-color="#5F289E"/>
<stop offset="0.2674" stop-color="#8947D5"/>
<stop offset="0.58" stop-color="#9165C4"/>
<stop offset="1" stop-color="#B27EED"/>
</linearGradient>
<linearGradient id="paint9_linear_10003_4979" x1="67.9532" y1="162.104" x2="22.7031" y2="153.662" gradientUnits="userSpaceOnUse">
<stop stop-color="#5F289E"/>
<stop offset="0.2674" stop-color="#8947D5"/>
<stop offset="0.58" stop-color="#9165C4"/>
<stop offset="1" stop-color="#B27EED"/>
</linearGradient>
<linearGradient id="paint10_linear_10003_4979" x1="86.0689" y1="153.918" x2="66.1777" y2="128.258" gradientUnits="userSpaceOnUse">
<stop stop-color="#5F289E"/>
<stop offset="0.2674" stop-color="#8947D5"/>
<stop offset="0.58" stop-color="#9165C4"/>
<stop offset="1" stop-color="#B27EED"/>
</linearGradient>
<linearGradient id="paint11_linear_10003_4979" x1="115.463" y1="128.154" x2="131.319" y2="149.666" gradientUnits="userSpaceOnUse">
<stop stop-color="#F9FCFF"/>
<stop offset="1" stop-color="#B2B5D8"/>
</linearGradient>
<linearGradient id="paint12_linear_10003_4979" x1="185.004" y1="127.232" x2="169.331" y2="100.539" gradientUnits="userSpaceOnUse">
<stop stop-color="#5F289E"/>
<stop offset="0.2674" stop-color="#8947D5"/>
<stop offset="0.58" stop-color="#9165C4"/>
<stop offset="1" stop-color="#B27EED"/>
</linearGradient>
<linearGradient id="paint13_linear_10003_4979" x1="88.7686" y1="160.119" x2="94.8449" y2="190.816" gradientUnits="userSpaceOnUse">
<stop stop-color="#5F289E"/>
<stop offset="0.2674" stop-color="#8947D5"/>
<stop offset="0.58" stop-color="#9165C4"/>
<stop offset="1" stop-color="#B27EED"/>
</linearGradient>
</defs>
</svg>
