<svg width="33" height="32" viewBox="0 0 33 32" fill="none" xmlns="http://www.w3.org/2000/svg">
<path opacity="0.4" fill-rule="evenodd" clip-rule="evenodd" d="M29.8334 16C29.8334 23.3638 23.8639 29.3333 16.5001 29.3333C9.13628 29.3333 3.16675 23.3638 3.16675 16C3.16675 8.63616 9.13628 2.66663 16.5001 2.66663C18.9816 2.66663 21.3047 3.34451 23.2944 4.5252C22.3056 5.55907 21.8841 6.97261 22.2048 8.20168L22.6381 9.86245L24.2989 10.2958C25.5279 10.6164 26.9414 10.1951 27.9752 9.20627C29.1557 11.1959 29.8334 13.5188 29.8334 16ZM23.1667 16C23.1667 19.6819 20.182 22.6666 16.5001 22.6666C12.8182 22.6666 9.83342 19.6819 9.83342 16C9.83342 12.3181 12.8182 9.33329 16.5001 9.33329C20.182 9.33329 23.1667 12.3181 23.1667 16Z" fill="#1A337F"/>
<path fill-rule="evenodd" clip-rule="evenodd" d="M16.5001 3.6665C9.68857 3.6665 4.16675 9.18833 4.16675 15.9998C4.16675 22.8113 9.68857 28.3332 16.5001 28.3332C23.3116 28.3332 28.8334 22.8113 28.8334 15.9998C28.8334 15.1538 28.7484 14.3286 28.5867 13.5321C28.4768 12.9909 28.8265 12.463 29.3678 12.3532C29.909 12.2433 30.4368 12.593 30.5467 13.1342C30.7348 14.061 30.8334 15.0194 30.8334 15.9998C30.8334 23.9159 24.4162 30.3332 16.5001 30.3332C8.584 30.3332 2.16675 23.9159 2.16675 15.9998C2.16675 8.08376 8.584 1.6665 16.5001 1.6665C17.4805 1.6665 18.4389 1.76509 19.3657 1.95321C19.9069 2.06307 20.2566 2.59091 20.1468 3.13215C20.0369 3.6734 19.5091 4.0231 18.9678 3.91323C18.1713 3.75155 17.3461 3.6665 16.5001 3.6665ZM16.5001 10.3332C13.3705 10.3332 10.8334 12.8702 10.8334 15.9998C10.8334 19.1295 13.3705 21.6665 16.5001 21.6665C19.6297 21.6665 22.1667 19.1295 22.1667 15.9998C22.1667 15.4476 22.6145 14.9998 23.1667 14.9998C23.719 14.9998 24.1667 15.4476 24.1667 15.9998C24.1667 20.234 20.7343 23.6665 16.5001 23.6665C12.2659 23.6665 8.83342 20.234 8.83342 15.9998C8.83342 11.7657 12.2659 8.33317 16.5001 8.33317C17.0524 8.33317 17.5001 8.78089 17.5001 9.33317C17.5001 9.88546 17.0524 10.3332 16.5001 10.3332ZM27.0337 2.85426C26.86 2.18841 26.3242 1.78034 25.7442 1.68769C25.1832 1.59807 24.6068 1.79649 24.1904 2.21293L22.6578 3.74545C21.4066 4.99667 20.8056 6.80197 21.2367 8.45414L21.5253 9.5605L15.793 15.2929C15.4025 15.6834 15.4025 16.3165 15.793 16.7071C16.1835 17.0976 16.8167 17.0976 17.2072 16.7071L22.9395 10.9747L24.0459 11.2634C25.6981 11.6945 27.5034 11.0934 28.7546 9.8422L30.2871 8.30968C30.7036 7.89324 30.902 7.31682 30.8124 6.7558C30.7197 6.17581 30.3116 5.64006 29.6458 5.46633L27.5742 4.92582L27.0337 2.85426ZM24.5508 9.32817L23.4572 9.04283L23.1719 7.94922C22.9464 7.08517 23.2441 5.98765 24.0721 5.15966L25.2587 3.97305L25.787 5.99791C25.8784 6.34816 26.1519 6.62167 26.5021 6.71306L28.527 7.24137L27.3404 8.42798C26.5124 9.25597 25.4149 9.55361 24.5508 9.32817Z" fill="#1A337F"/>
</svg>
