<svg width="33" height="32" viewBox="0 0 33 32" fill="none" xmlns="http://www.w3.org/2000/svg">
<g opacity="0.4">
<path d="M23.6676 10.6667C23.6676 10.6667 25.4165 9.19512 25.0273 6.9729C24.6382 4.75067 22.5001 4 22.5001 4C22.5001 4 20.7511 5.47155 21.1403 7.69377C21.5295 9.91599 23.6676 10.6667 23.6676 10.6667Z" fill="#1A337F"/>
<path d="M24.4376 17.2004C24.4376 17.2004 26.7509 17.8748 28.4594 16.1857C30.1679 14.4965 29.563 12.133 29.563 12.133C29.563 12.133 27.2496 11.4585 25.5411 13.1476C23.8327 14.8368 24.4376 17.2004 24.4376 17.2004Z" fill="#1A337F"/>
<path d="M24.6451 24.2528C22.6451 23.4853 22.3338 21.3333 22.3338 21.3333C22.3338 21.3333 24.0225 19.9488 26.0225 20.7163C28.0225 21.4837 28.3338 23.6357 28.3338 23.6357C28.3338 23.6357 26.6451 25.0202 24.6451 24.2528Z" fill="#1A337F"/>
<path d="M10.3338 21.3332C10.3338 21.3332 10.0225 23.4852 8.0225 24.2526C6.0225 25.0201 4.33382 23.6356 4.33382 23.6356C4.33382 23.6356 4.64514 21.4836 6.64514 20.7161C8.64514 19.9487 10.3338 21.3332 10.3338 21.3332Z" fill="#1A337F"/>
<path d="M4.20802 16.1857C5.91649 17.8748 8.22986 17.2004 8.22986 17.2004C8.22986 17.2004 8.83477 14.8368 7.12629 13.1476C5.41782 11.4585 3.10445 12.133 3.10445 12.133C3.10445 12.133 2.49954 14.4965 4.20802 16.1857Z" fill="#1A337F"/>
<path d="M9.00006 10.6667C9.00006 10.6667 7.25114 9.19512 7.64032 6.9729C8.02949 4.75067 10.1676 4 10.1676 4C10.1676 4 11.9165 5.47155 11.5273 7.69377C11.1382 9.91599 9.00006 10.6667 9.00006 10.6667Z" fill="#1A337F"/>
</g>
<path fill-rule="evenodd" clip-rule="evenodd" d="M7.81943 10.8565C7.20394 10.1089 6.33599 8.6768 6.66303 6.80501C7.14289 4.03199 9.72882 3.09876 9.84879 3.05877C10.182 2.93878 10.5552 3.00545 10.8218 3.23209C10.9151 3.31208 13.0079 5.11188 12.528 7.85823C12.1536 10.0216 10.4974 11.0652 9.73035 11.4385C9.46938 12.3628 9.33031 13.3326 9.33031 14.3223C9.33031 19.0271 12.3403 22.8607 16.1003 23.0102C16.1792 23.0043 16.2594 23.0013 16.341 23.0013C16.4193 23.0013 16.4964 23.0041 16.5721 23.0095C20.3247 22.8493 23.3262 19.0074 23.3262 14.3223C23.3262 13.333 23.1972 12.3636 22.9306 11.4397C22.1581 11.0555 20.533 10.0112 20.1526 7.87254C19.6728 5.11285 21.7655 3.31305 21.8588 3.24639C22.1254 3.01975 22.4986 2.95308 22.8318 3.07307L22.8363 3.07472C22.9952 3.13387 25.5298 4.07686 26.0176 6.81931C26.347 8.71361 25.4642 10.1556 24.8481 10.8953C24.9658 11.3159 25.0615 11.7444 25.1348 12.1789C27.1515 10.4736 29.6276 11.1218 29.8324 11.1754L29.8428 11.1781C30.176 11.2714 30.4426 11.5514 30.5359 11.8847L30.5379 11.8935C30.5861 12.1037 31.219 14.8673 29.163 16.8975C27.9793 18.0681 26.5832 18.3361 25.5574 18.3373C25.2095 18.3369 24.9062 18.3052 24.672 18.269C24.5254 18.704 24.3554 19.125 24.1638 19.5298C24.8236 19.4405 25.5777 19.4821 26.3774 19.791C28.7776 20.7183 29.254 23.1461 29.3167 23.4657C29.3198 23.4816 29.3219 23.4922 29.3232 23.4973C29.3765 23.8439 29.2432 24.1905 28.9633 24.4172L28.9614 24.4187C28.8759 24.4872 27.6161 25.4971 25.8842 25.4971V25.4837C25.3777 25.4837 24.8445 25.4038 24.2846 25.1905C22.9123 24.6603 22.1689 23.6395 21.7721 22.8028C20.976 23.527 20.0757 24.0971 19.1031 24.4751C20.193 25.8338 20.6215 27.6578 20.6464 27.7741C20.7664 28.3074 20.4332 28.8407 19.9 28.974C19.3668 29.094 18.8203 28.7607 18.7003 28.2274C18.5004 27.3875 17.6606 25.0011 16.341 25.0011L16.3334 25.0011C15.0183 25.0117 14.1414 27.5489 13.9817 28.2274C13.8751 28.694 13.4619 29.0006 13.0087 29.0006C12.942 29.0006 12.862 29.0006 12.7821 28.974C12.2489 28.854 11.9023 28.3207 12.0356 27.7741C12.0605 27.6498 12.4869 25.8367 13.5708 24.4818C12.5951 24.1053 11.6919 23.5355 10.8932 22.8107C10.493 23.6464 9.74647 24.6577 8.38323 25.1771C7.8234 25.3904 7.27688 25.4704 6.78369 25.4704V25.4837C5.03753 25.4837 3.77124 24.4705 3.70459 24.4038C3.438 24.1772 3.30472 23.8306 3.34471 23.4839C3.35804 23.3773 3.77124 20.7376 6.2905 19.7777C7.08099 19.4749 7.83036 19.4334 8.48841 19.5207C8.29866 19.1187 8.13013 18.7008 7.98464 18.2692C7.7519 18.3047 7.45262 18.3353 7.11004 18.3357C6.09748 18.3346 4.68815 18.0666 3.50442 16.8959C1.44845 14.8658 2.08136 12.1021 2.12949 11.8919L2.1315 11.8831C2.2248 11.5365 2.47805 11.2699 2.82461 11.1766L2.84608 11.1713C3.11995 11.103 5.5476 10.4977 7.52351 12.1682C7.59885 11.724 7.69766 11.2861 7.81943 10.8565ZM7.11004 18.3357L7.11669 18.3357H7.10338L7.11004 18.3357ZM25.5574 18.3373L25.5641 18.3373H25.5507L25.5574 18.3373ZM8.6358 7.15161C8.80909 6.16505 9.46222 5.56513 9.9554 5.24517C10.302 5.72511 10.7285 6.53838 10.5552 7.52494C10.382 8.51149 9.72883 9.11142 9.23564 9.43138C8.88908 8.95143 8.46252 8.13816 8.6358 7.15161ZM4.01095 13.003C3.98429 13.6429 4.10425 14.6695 4.91734 15.4694C5.71711 16.2693 6.71682 16.3626 7.3433 16.3226C7.36996 15.6827 7.25001 14.6562 6.43691 13.8563C5.63715 13.0564 4.63743 12.963 4.01095 13.003ZM5.51742 23.1907C6.02393 23.4306 6.81036 23.6572 7.67678 23.324C8.52986 23.004 8.95639 22.2974 9.16967 21.7908C8.66315 21.5508 7.87672 21.3242 7.0103 21.6575C6.15722 21.9908 5.71736 22.6841 5.51742 23.1907ZM22.7252 5.24616C22.3653 5.72611 21.9521 6.52605 22.1254 7.52594C22.2987 8.51249 22.9518 9.11241 23.445 9.43238C23.8049 8.95243 24.2181 8.15249 24.0448 7.15261C23.8715 6.16605 23.2184 5.56613 22.7252 5.24616ZM25.3375 16.3375C25.9639 16.3642 26.9636 16.2708 27.7634 15.4843C28.5765 14.671 28.6965 13.6578 28.6831 13.0179C28.0567 12.9912 27.0569 13.0845 26.2572 13.8711C25.4441 14.671 25.3241 15.6976 25.3508 16.3375H25.3375ZM27.1638 23.1907C26.6706 23.4307 25.8709 23.6573 25.0044 23.324C24.1514 22.9907 23.7248 22.2974 23.5116 21.7908C24.0181 21.5508 24.8045 21.3242 25.6709 21.6575C26.524 21.9908 26.9505 22.6841 27.1638 23.1907Z" fill="#1A337F"/>
<path d="M14.9974 19.0002H17.668C18.2128 19.0002 18.6646 18.5469 18.6646 18.0002C18.6646 17.4535 18.2128 17.0002 17.668 17.0002H17.3359V11.3335C17.3359 10.9869 17.1498 10.6668 16.8575 10.4802C16.5652 10.2935 16.1932 10.2802 15.8876 10.4402L14.5589 11.1069C14.054 11.3602 13.8547 11.9602 14.1071 12.4536C14.333 12.9069 14.8645 13.1069 15.3295 12.9469V17.0002H14.9974C14.4526 17.0002 14.0008 17.4535 14.0008 18.0002C14.0008 18.5469 14.4526 19.0002 14.9974 19.0002Z" fill="#1A337F"/>
</svg>
