<svg width="33" height="32" viewBox="0 0 33 32" fill="none" xmlns="http://www.w3.org/2000/svg">
<path opacity="0.4" d="M21.0475 25.7111C23.1425 24.1605 24.7922 22.5542 26.0565 20.951L18.6896 12.5931C18.388 12.2509 17.8832 12.1773 17.4964 12.419L14.5816 14.2408C13.5559 14.8818 12.2246 14.7376 11.36 13.8916C10.218 12.7742 10.3332 10.9036 11.6038 9.93474L16.1666 6.45545L14.7877 5.42402C12.913 4.01615 9.79228 3.1323 6.21675 5.32554C1.52425 8.20391 0.462456 17.6998 11.2862 25.7111C13.3478 27.237 14.3786 28 16.1668 28C17.9551 28 18.9859 27.237 21.0475 25.7111Z" fill="#1A337F"/>
<path fill-rule="evenodd" clip-rule="evenodd" d="M15.3882 4.62447C15.3879 4.62428 15.3884 4.62465 15.3882 4.62447L16.1666 5.20679L16.9454 4.62447C16.9451 4.6247 16.9458 4.62423 16.9454 4.62447C19.0996 3.00725 22.6657 2.03551 26.6398 4.47319C31.121 7.22199 32.3299 14.6113 26.8417 21.5704C25.5166 23.2505 23.8008 24.9174 21.6424 26.515C21.5957 26.5495 21.5495 26.5837 21.5036 26.6177C19.5685 28.0509 18.2869 29.0001 16.1668 29.0001C14.0467 29.0001 12.7651 28.0509 10.83 26.6177C10.7841 26.5837 10.7379 26.5495 10.6912 26.515C5.11844 22.3902 2.48699 17.792 1.94173 13.7265C1.39908 9.68046 2.94552 6.15902 5.69385 4.47319C9.66802 2.03543 13.234 3.00715 15.3882 4.62447ZM14.5073 6.46318L14.1872 6.22371C12.5918 5.02563 9.91602 4.2296 6.73959 6.17802C4.79541 7.37057 3.46471 10.0363 3.92398 13.4606C4.38063 16.8655 6.63016 21.0209 11.8811 24.9074C13.9907 26.4688 14.7606 27.0001 16.1668 27.0001C17.573 27.0001 18.3429 26.4688 20.4525 24.9074C22.1998 23.6142 23.6157 22.2899 24.7434 20.9737L17.9775 13.2976L15.1116 15.0888C13.6944 15.9746 11.8551 15.7752 10.6606 14.6064C9.08279 13.0626 9.24197 10.4782 10.9974 9.13962L14.5073 6.46318ZM25.9888 19.362C30.1484 13.3475 28.5245 7.97559 25.594 6.17802C22.4176 4.2296 19.7418 5.02563 18.1464 6.22371L18.1448 6.22496L16.7691 7.25358L12.2101 10.73C11.4244 11.3291 11.3531 12.4859 12.0594 13.1769C12.594 13.7001 13.4173 13.7893 14.0516 13.3928L16.9664 11.5711C17.7681 11.07 18.8146 11.2227 19.4397 11.9319L25.9888 19.362Z" fill="#1A337F"/>
</svg>
