<svg width="40" height="41" viewBox="0 0 40 41" fill="none" xmlns="http://www.w3.org/2000/svg">
<path d="M0 20.5C0 9.45431 8.95431 0.5 20 0.5C31.0457 0.5 40 9.45431 40 20.5C40 31.5457 31.0457 40.5 20 40.5C8.95431 40.5 0 31.5457 0 20.5Z" fill="#FFFAEB"/>
<path d="M19.1605 23.8333C19.1605 23.373 19.5336 22.9999 19.9938 22.9999H20.0013C20.4615 22.9999 20.8346 23.373 20.8346 23.8333C20.8346 24.2935 20.4615 24.6666 20.0013 24.6666H19.9938C19.5336 24.6666 19.1605 24.2935 19.1605 23.8333Z" fill="#B54708"/>
<path d="M19.3753 21.3333C19.3753 21.6785 19.6551 21.9583 20.0003 21.9583C20.3455 21.9583 20.6253 21.6785 20.6253 21.3333V17.9999C20.6253 17.6548 20.3455 17.3749 20.0003 17.3749C19.6551 17.3749 19.3753 17.6548 19.3753 17.9999V21.3333Z" fill="#B54708"/>
<path fill-rule="evenodd" clip-rule="evenodd" d="M18.6353 12.1791C19.5224 11.8847 20.4783 11.8847 21.3653 12.1791C22.2487 12.4723 22.9423 13.1678 23.6391 14.1449C24.3336 15.1188 25.101 16.4767 26.0902 18.227L26.129 18.2958C27.1184 20.0464 27.8857 21.4042 28.364 22.5053C28.8445 23.6119 29.0838 24.5672 28.8929 25.4851C28.7006 26.4092 28.2265 27.2495 27.536 27.8847C26.8472 28.5183 25.9093 28.7856 24.7283 28.914C23.554 29.0416 22.018 29.0416 20.041 29.0416H19.9597C17.9827 29.0416 16.4466 29.0416 15.2723 28.914C14.0914 28.7856 13.1535 28.5183 12.4647 27.8847C11.7742 27.2495 11.3001 26.4092 11.1078 25.4851C10.9168 24.5672 11.1562 23.6119 11.6367 22.5053C12.1149 21.4042 12.8823 20.0464 13.8716 18.2957L13.9105 18.227C14.8997 16.4767 15.6671 15.1188 16.3615 14.1449C17.0583 13.1678 17.7519 12.4723 18.6353 12.1791ZM20.9715 13.3655C20.3402 13.1559 19.6605 13.1559 19.0291 13.3655C18.5325 13.5303 18.0332 13.9537 17.3793 14.8707C16.7276 15.7845 15.992 17.0845 14.9792 18.8766C13.9665 20.6685 13.2322 21.9695 12.7832 23.0033C12.3335 24.0388 12.2208 24.6982 12.3316 25.2304C12.4713 25.9017 12.8149 26.5085 13.3109 26.9647C13.7005 27.323 14.3074 27.5517 15.4074 27.6713C16.5061 27.7907 17.9742 27.7916 20.0003 27.7916C22.0265 27.7916 23.4945 27.7907 24.5932 27.6713C25.6932 27.5517 26.3002 27.323 26.6897 26.9647C27.1857 26.5085 27.5294 25.9017 27.6691 25.2304C27.7798 24.6982 27.6671 24.0388 27.2174 23.0033C26.7685 21.9695 26.0342 20.6685 25.0215 18.8766C24.0087 17.0845 23.273 15.7845 22.6214 14.8707C21.9675 13.9537 21.4682 13.5303 20.9715 13.3655Z" fill="#B54708"/>
</svg>
