<svg width="48" height="48" viewBox="0 0 48 48" fill="none" xmlns="http://www.w3.org/2000/svg">
<rect width="48" height="48" rx="24" fill="#FFEDED"/>
<path d="M21.9413 21.0581C21.6972 20.814 21.3015 20.814 21.0574 21.058C20.8133 21.3021 20.8133 21.6978 21.0574 21.9419L23.1155 24.0003L21.0579 26.0581C20.8139 26.3022 20.8139 26.6979 21.058 26.942C21.3021 27.186 21.6978 27.186 21.9418 26.9419L23.9993 24.8842L26.0568 26.9419C26.3009 27.186 26.6966 27.186 26.9407 26.942C27.1848 26.6979 27.1848 26.3022 26.9408 26.0581L24.8832 24.0003L26.9413 21.9419C27.1854 21.6978 27.1854 21.3021 26.9413 21.058C26.6972 20.814 26.3014 20.814 26.0574 21.0581L23.9993 23.1163L21.9413 21.0581Z" fill="#FB2C36"/>
<path fill-rule="evenodd" clip-rule="evenodd" d="M23.9993 32.9583C19.0518 32.9583 15.041 28.9475 15.041 24C15.041 19.0524 19.0518 15.0417 23.9993 15.0417C28.9469 15.0417 32.9577 19.0524 32.9577 24C32.9577 28.9475 28.9469 32.9583 23.9993 32.9583ZM16.291 24C16.291 28.2572 19.7422 31.7083 23.9993 31.7083C28.2565 31.7083 31.7077 28.2572 31.7077 24C31.7077 19.7428 28.2565 16.2917 23.9993 16.2917C19.7422 16.2917 16.291 19.7428 16.291 24Z" fill="#FB2C36"/>
</svg>
