<svg width="32" height="24" viewBox="0 0 32 24" fill="none" xmlns="http://www.w3.org/2000/svg">
<mask id="mask0_8317_293" style="mask-type:luminance" maskUnits="userSpaceOnUse" x="0" y="0" width="32" height="24">
<path d="M0.00146484 0H31.9983V24H0.00146484V0Z" fill="white"/>
</mask>
<g mask="url(#mask0_8317_293)">
<path fill-rule="evenodd" clip-rule="evenodd" d="M-2 0H34V24H-2V0Z" fill="#165D31"/>
<path fill-rule="evenodd" clip-rule="evenodd" d="M7.07015 6.80155C7.03265 7.36405 6.9764 8.34843 7.45921 8.45155C8.03577 8.5078 7.71702 7.47655 7.92796 7.28905C7.96546 7.1953 8.03577 7.1953 8.04046 7.31249V8.18905C8.04046 8.4703 8.22796 8.55468 8.36859 8.61093C8.51859 8.60155 8.62171 8.61093 8.67796 8.75155L8.75296 10.2656C8.75296 10.2656 9.09984 10.3687 9.11859 9.41718C9.13265 8.85468 9.00609 8.39062 9.08109 8.2828C9.08109 8.17499 9.22171 8.1703 9.31546 8.22187C9.46546 8.32499 9.53109 8.45624 9.76546 8.40937C10.1217 8.30624 10.3373 8.1328 10.342 7.86093C10.335 7.59375 10.2794 7.33008 10.178 7.0828C10.1967 7.03593 10.1123 6.90937 10.1311 6.86249C10.192 6.96562 10.2905 6.95624 10.3092 6.86249C10.2483 6.66562 10.1545 6.47343 10.0045 6.39374C9.87796 6.28124 9.69046 6.29999 9.62952 6.53437C9.59202 6.80155 9.72327 7.11562 9.91546 7.37812C9.95765 7.47655 10.0139 7.6453 9.99046 7.7953C9.88734 7.85624 9.78421 7.82812 9.69515 7.73905C9.69515 7.73905 9.4139 7.52812 9.4139 7.47655C9.4889 6.99843 9.42796 6.94218 9.38577 6.80624C9.35765 6.62343 9.26859 6.56249 9.19827 6.44062C9.12796 6.36562 9.03421 6.36562 8.98734 6.44062C8.86077 6.65624 8.92171 7.1203 9.01077 7.33124C9.0764 7.52343 9.17484 7.6453 9.12796 7.6453C9.09046 7.75312 9.01077 7.72499 8.94984 7.59843C8.88124 7.33208 8.84814 7.05783 8.8514 6.7828C8.82796 6.56718 8.79984 6.1078 8.65452 5.98593C8.57015 5.87343 8.44359 5.92968 8.39671 6.0328C8.38433 6.24221 8.38904 6.45228 8.41077 6.66093C8.50452 7.0078 8.53734 7.31718 8.58421 7.66874C8.59827 8.14218 8.31234 7.87499 8.3264 7.63593C8.38789 7.33539 8.38309 7.02505 8.31234 6.72655C8.26546 6.60468 8.2139 6.57655 8.09671 6.5953C8.00765 6.5953 7.77796 6.84374 7.71234 7.26562C7.71234 7.26562 7.65609 7.48124 7.63265 7.67343C7.59984 7.88905 7.45921 8.04843 7.35609 7.6453C7.27171 7.34999 7.21546 6.6328 7.07484 6.80155H7.07015Z" fill="white"/>
<path fill-rule="evenodd" clip-rule="evenodd" d="M8.64062 9.10314L7.14062 9.82501C7.15469 9.48282 7.84844 8.86876 8.32656 8.86407C8.63125 8.86876 8.55625 8.98126 8.63594 9.10314H8.64062Z" fill="white"/>
<path fill-rule="evenodd" clip-rule="evenodd" d="M8.37321 9.5719C7.58571 11.611 10.2248 11.8969 10.5201 9.65628C10.5482 9.56253 10.6607 9.47346 10.6795 9.62346C10.6185 11.6532 8.63571 11.7891 8.29821 11.1516C8.21882 10.9322 8.17913 10.7005 8.18102 10.4672C8.13415 10.0688 7.92321 10.2235 7.8904 10.6172C7.85759 10.8375 7.86696 10.8985 7.86696 11.1094C7.97009 12.7125 10.5248 12.0235 10.942 10.7016C11.1623 9.97034 10.9045 9.43128 11.0216 9.43128C11.2748 9.70315 11.631 9.46878 11.7107 9.37503C11.7435 9.32815 11.8279 9.29534 11.8841 9.35628C12.081 9.4969 12.4279 9.43128 12.5029 9.18284C12.5451 8.9344 12.5779 8.68128 12.5873 8.42346C12.4232 8.47034 12.306 8.50315 12.292 8.57346L12.2591 8.78909C12.2451 8.8594 12.1091 8.8594 12.0998 8.77034C12.0388 8.48909 11.7857 8.45628 11.631 8.88753C11.5326 8.9719 11.3451 8.99065 11.3263 8.86409C11.3498 8.57346 11.2326 8.53596 10.9982 8.6719L10.7732 6.97503C10.867 6.97503 10.9607 7.04534 11.0498 6.93284C10.956 6.62815 10.7451 6.0094 10.6279 5.96253C10.5763 5.8969 10.5295 5.93909 10.4545 5.95784C10.3326 5.99534 10.2201 6.09846 10.2576 6.30471C10.3982 7.18596 10.492 7.85628 10.6373 8.74221C10.6607 8.84065 10.5763 8.97659 10.4638 8.96253C10.2763 8.83596 10.2295 8.57815 9.90134 8.58753C9.66696 8.58753 9.40446 8.84534 9.37165 9.08909C9.32946 9.28596 9.3154 9.4969 9.37165 9.66565C9.53571 9.86253 9.73259 9.84378 9.90602 9.80159C10.0466 9.74065 10.1638 9.60003 10.2154 9.63284C10.2482 9.67503 10.2201 10.1438 9.54509 10.5C9.13727 10.6875 8.80915 10.725 8.63571 10.3922C8.5279 10.1813 8.64509 9.38909 8.37321 9.5719Z" fill="white"/>
<path fill-rule="evenodd" clip-rule="evenodd" d="M11.7343 7.50003C11.889 7.44378 12.639 6.58128 12.639 6.58128L12.5265 6.48753C12.4843 6.45471 12.489 6.41721 12.5265 6.3844C12.714 6.2719 12.653 6.03753 12.5593 5.92503C12.4956 5.894 12.4256 5.87827 12.3548 5.87908C12.284 5.8799 12.2144 5.89723 12.1515 5.92971C12.0202 6.05628 11.9921 6.25784 12.0952 6.37971C12.1937 6.42659 12.2921 6.52971 12.2265 6.58596C11.9171 6.91409 11.078 7.48128 11.1765 7.50003C11.1952 7.52815 11.7155 7.52815 11.7296 7.50003H11.7343ZM7.18741 10.5469C6.90616 10.9969 6.88272 11.6672 7.03741 11.8688C7.12178 11.9625 7.25772 12.0047 7.35616 11.9719C7.53428 11.8969 7.61397 11.536 7.57178 11.4094C7.51085 11.3157 7.46397 11.3016 7.40303 11.3766C7.28116 11.6297 7.2296 11.4563 7.21553 11.3157C7.2021 11.0775 7.21467 10.8386 7.25303 10.6032C7.28585 10.4063 7.25303 10.4625 7.18741 10.5469ZM19.239 9.82971C18.9671 9.23909 18.5874 8.65784 18.4702 8.43753C18.1049 7.86005 17.7171 7.29711 17.3077 6.75003C17.0171 6.40315 17.7858 6.89534 17.214 6.20159L16.7968 5.85003C16.703 5.7844 16.478 5.66253 16.4405 5.8594C16.4218 6.03753 16.4312 6.13128 16.4593 6.27659C16.4827 6.37034 16.6233 6.5344 16.6937 6.62815C17.6547 7.90102 18.4987 9.2581 19.2155 10.6828C19.3374 10.6219 19.3093 9.92815 19.239 9.82971Z" fill="white"/>
<path fill-rule="evenodd" clip-rule="evenodd" d="M18.0437 11.7891C17.9875 11.85 18.175 12.1078 18.4187 12.1078C18.8219 12.061 19.1781 11.836 19.5062 11.236C19.6396 11.0364 19.7246 10.8085 19.7547 10.5703C19.7944 9.43241 19.7031 8.29369 19.4828 7.17659C19.4687 7.08284 19.4828 6.97034 19.4922 6.94222C19.5203 6.9094 19.6094 6.94222 19.6562 6.86253C19.7265 6.79222 19.4687 6.20628 19.3281 5.98597C19.2812 5.88284 19.2578 5.81722 19.1734 5.99534C19.0716 6.19189 19.0231 6.4117 19.0328 6.63284C19.225 7.96878 19.2859 9.13597 19.4078 10.4719C19.4219 10.6032 19.4031 10.7907 19.314 10.8657C18.9603 11.2595 18.5275 11.5741 18.0437 11.7891ZM23.5047 11.7844C23.214 11.9532 23.214 12.1453 23.4484 12.15C23.8515 12.1032 24.3297 12.0703 24.6578 11.5735C24.7737 11.3394 24.8407 11.0842 24.8547 10.8235C24.9137 9.70306 24.8397 8.5796 24.6344 7.47659C24.625 7.38284 24.5828 7.16253 24.5969 7.1344C24.625 7.06878 24.7562 7.13909 24.8031 7.06409C24.8687 6.99378 24.4609 6.46878 24.3156 6.24378C24.2687 6.14065 24.25 6.07503 24.1609 6.25315C24.0665 6.45151 24.037 6.67457 24.0765 6.89065C24.2922 8.34378 24.4515 9.43128 24.4844 10.7157C24.4656 10.8375 24.4609 10.9032 24.4047 11.0578C24.2781 11.2172 24.1375 11.4235 24.0062 11.5219C23.875 11.6157 23.5937 11.7094 23.5047 11.7844Z" fill="white"/>
<path fill-rule="evenodd" clip-rule="evenodd" d="M23.7206 10.4859C23.7206 10.1437 23.7252 9.8531 23.7159 9.59528C23.7128 9.37694 23.665 9.16155 23.5752 8.96247C23.4909 8.77028 23.5424 8.6156 23.5002 8.40935C23.4627 8.2031 23.4721 7.89372 23.4159 7.65466C23.3971 7.56091 23.3502 7.25622 23.3643 7.22341C23.3877 7.15778 23.4768 7.22341 23.5237 7.14841C23.5893 7.0781 23.2893 6.30466 23.1393 6.08435C23.0877 5.98591 22.9846 6.01872 22.8674 6.1781C22.7502 6.28591 22.7924 6.52497 22.8393 6.75466C23.1252 8.26872 23.3456 9.64216 23.2987 11.0812C23.2799 11.2031 23.7206 10.7156 23.7206 10.4859ZM21.5784 8.61091C21.3956 8.60153 21.0159 8.24997 20.9034 8.04841C20.885 7.99915 20.8771 7.94656 20.8803 7.89407C20.8836 7.84158 20.8978 7.79035 20.9221 7.74372C20.9924 7.69685 21.0956 7.64997 21.1752 7.69685C21.1752 7.69685 21.2549 7.80935 21.2409 7.82341C21.3346 7.87028 21.3815 7.84685 21.3909 7.80466C21.3956 7.73435 21.3627 7.69216 21.3627 7.61716C21.4049 7.40153 21.644 7.36872 21.7377 7.50466C21.8034 7.58903 21.8315 7.76247 21.8362 7.87966C21.8362 7.9406 21.7424 7.87028 21.6815 7.87966C21.6299 7.89841 21.6159 7.96403 21.6112 8.02028C21.6018 8.17497 21.5831 8.42341 21.5784 8.60622V8.61091ZM18.2127 10.8609C18.2596 10.4015 18.194 9.58122 18.1893 9.30935C18.1642 8.61014 18.1064 7.9125 18.0159 7.21872C17.9596 6.82497 18.1752 7.26091 18.1471 7.03122C18.0768 6.64216 17.8612 6.37497 17.6034 6.02341C17.5237 5.90622 17.5237 5.88278 17.3971 6.05153C17.2565 6.3656 17.3784 6.58591 17.4159 6.83435C17.5987 7.6406 17.7065 8.38122 17.7581 9.11716C17.812 9.88165 17.8183 10.6488 17.7768 11.414C17.9174 11.4187 18.1331 11.1937 18.2127 10.8609Z" fill="white"/>
<path fill-rule="evenodd" clip-rule="evenodd" d="M24.344 10.125C24.0205 9.58123 23.5377 8.99998 23.4065 8.77967C22.9718 8.17267 22.5153 7.58166 22.0377 7.0078C21.6393 6.58592 22.2252 6.93748 21.9627 6.60936C21.7424 6.3703 21.6815 6.29061 21.4893 6.1453C21.3955 6.08436 21.3393 5.96717 21.3018 6.16873C21.2868 6.34332 21.2837 6.51872 21.2924 6.69373C21.2924 6.77342 21.3768 6.92811 21.4518 7.02186C22.4221 8.21717 23.4861 9.43592 24.3393 10.9687C24.4611 10.9078 24.419 10.2187 24.3393 10.125H24.344Z" fill="white"/>
<path fill-rule="evenodd" clip-rule="evenodd" d="M9.7468 9.12656C9.72336 9.16875 9.6718 9.22031 9.69055 9.27188C9.72336 9.31875 9.75617 9.33281 9.81242 9.33281C9.86398 9.33281 9.93898 9.34688 9.95305 9.31875C9.98117 9.28594 9.99992 9.225 9.98117 9.16406C9.92492 9.02344 9.77492 9.07969 9.7468 9.12656Z" fill="#165D31"/>
<path fill-rule="evenodd" clip-rule="evenodd" d="M20.6029 16.9922C21.0342 17.0109 21.3154 17.0156 21.6951 17.0578L22.1451 17.0109C22.642 16.964 22.6607 17.7187 22.6607 17.7187C22.6607 18.164 22.4873 18.1875 22.267 18.2344C22.1404 18.2531 22.0795 18.1594 22.0092 18.0656C21.9032 18.0996 21.7903 18.106 21.6811 18.0844C21.4982 18.075 21.3201 18.075 21.142 18.0609C20.9545 18.0469 20.8514 18.0844 20.6592 18.0656C20.6217 18.1265 20.5654 18.2109 20.4529 18.1875C20.3592 18.1734 20.242 17.9062 20.2748 17.6953C20.3451 17.5453 20.3217 17.5969 20.3217 17.5312C18.5592 17.4844 16.7826 17.4047 15.0576 17.4281C13.7076 17.4328 12.3764 17.489 11.0404 17.5453C10.3279 17.5359 9.78418 17.4234 9.40918 16.875C9.44668 16.875 11.2279 16.9734 11.7482 16.9406C12.7092 16.9312 13.5904 16.8515 14.5701 16.8234C16.5014 16.8562 18.4186 16.8562 20.3498 16.9922C20.1623 16.8656 20.1623 16.5703 20.4436 16.4953C20.467 16.4765 20.4811 16.6406 20.5232 16.6359C20.7529 16.6219 20.6498 16.9312 20.6029 16.9922ZM12.8404 6.34217C12.5498 7.17655 13.0092 8.0953 13.3279 8.00623C13.5623 8.09998 13.7029 7.65936 13.7967 7.18123C13.867 7.0453 13.9139 7.03123 13.9467 7.10155C13.9373 7.73905 13.9936 7.88436 14.1576 8.07655C14.5232 8.3578 14.8279 8.11405 14.8514 8.09061L15.1326 7.80467C15.1982 7.73436 15.2826 7.73436 15.3717 7.79061C15.4607 7.8703 15.4467 8.00623 15.6342 8.09998C15.7936 8.16561 16.1264 8.11873 16.2061 7.9828C16.3092 7.79998 16.3373 7.73905 16.3842 7.67342C16.4592 7.57498 16.5857 7.61717 16.5857 7.64998C16.5717 7.70623 16.4967 7.7578 16.5482 7.86092C16.642 7.92655 16.6607 7.88436 16.7123 7.8703C16.8998 7.77655 17.0404 7.37342 17.0404 7.37342C17.0451 7.22342 16.9607 7.2328 16.9045 7.2703L16.7592 7.36873C16.6654 7.3828 16.492 7.44373 16.4029 7.3078C16.3139 7.14842 16.3139 6.91873 16.2482 6.75467C16.2482 6.7453 16.1264 6.49686 16.2389 6.4828C16.2951 6.49217 16.4123 6.52498 16.4311 6.42655C16.4873 6.32811 16.3092 6.05155 16.1826 5.91092C16.0748 5.79373 15.9248 5.77967 15.7795 5.90155C15.6764 5.9953 15.6904 6.09842 15.6717 6.19686C15.6539 6.2674 15.6531 6.34116 15.6694 6.41206C15.6857 6.48296 15.7186 6.54897 15.7654 6.60467C15.8686 6.80154 16.0514 7.05936 15.9904 7.42498C15.9904 7.42498 15.8826 7.59373 15.6951 7.5703C15.6154 7.55623 15.4889 7.52342 15.4232 7.01717C15.3717 6.64217 15.4326 6.1078 15.2732 5.85936C15.2123 5.70467 15.1701 5.55936 15.0295 5.81717C14.992 5.9203 14.8279 6.07498 14.9451 6.38905C15.056 6.67206 15.0884 6.97977 15.0389 7.27967C14.9686 7.3828 14.9545 7.41561 14.8654 7.51405C14.7436 7.65467 14.6076 7.61717 14.5045 7.56561C14.4107 7.50467 14.3357 7.47186 14.2889 7.26092C14.2982 6.93279 14.317 6.39373 14.2561 6.28123C14.167 6.10311 14.0217 6.16873 13.9607 6.22498C13.6819 6.53475 13.4952 6.91629 13.4217 7.32655C13.3373 7.59842 13.2482 7.51873 13.1873 7.41092C13.0373 7.2703 13.0232 6.15936 12.8404 6.34217Z" fill="white"/>
<path fill-rule="evenodd" clip-rule="evenodd" d="M13.722 8.16095C13.858 8.0672 13.797 8.00158 13.9939 8.19845C14.248 8.64807 14.3956 9.15002 14.4252 9.66564C14.4158 9.78751 14.5002 9.86251 14.5423 9.83439C14.5611 9.55314 15.2502 9.15939 15.883 9.10314C15.9767 9.0797 15.9298 8.89689 15.9439 8.80314C15.9064 8.45158 16.1408 8.13283 16.4689 8.10939C16.9189 8.17501 17.0689 8.41408 17.0783 8.77501C17.0267 9.47814 16.2955 9.59533 15.8877 9.65158C15.8267 9.67501 15.7986 9.70314 15.8877 9.73595L17.6033 9.74533L17.6923 9.7922C17.7017 9.83908 17.6642 9.80158 17.5986 9.91408C17.5042 10.0799 17.4452 10.2634 17.4252 10.4531C16.9142 10.6219 16.3845 10.6875 15.8502 10.7578C15.6627 10.8516 15.5689 10.9781 15.6064 11.1188C15.672 11.2735 16.0845 11.4328 16.0845 11.4375C16.1642 11.4844 16.2533 11.6016 16.0611 11.8406C15.2267 11.8031 14.5752 11.4469 14.3502 10.9453C14.2845 10.8938 14.2095 10.9453 14.1627 11.011C13.8345 11.4328 13.5158 11.8078 12.958 12.0141C12.6298 12.0985 12.2877 11.9625 12.1283 11.7469C12.0205 11.6203 12.0252 11.4844 11.9877 11.4563C11.8048 11.536 10.258 12.1922 10.4548 11.8828C10.8298 11.4844 11.4861 11.1844 12.058 10.7906C12.1002 10.6547 12.1752 10.2047 12.4002 10.0594C12.4142 10.0594 12.3673 10.3219 12.372 10.4344C12.372 10.5281 12.3627 10.561 12.3814 10.5375C12.4236 10.5141 13.1173 9.96564 13.1783 9.79689C13.2439 9.70314 13.1923 9.45939 13.1923 9.45001C13.0611 9.11251 12.8783 9.08439 12.8127 8.91564C12.7517 8.69533 12.7798 8.4422 12.9064 8.3672C13.0189 8.26876 13.1502 8.27814 13.2767 8.39064C13.4173 8.5172 13.5392 8.76564 13.5767 8.94845C13.5533 9.01876 13.3892 8.90158 13.3423 8.93439C13.4326 9.03807 13.4926 9.16455 13.5158 9.30001C13.6095 9.68439 13.5814 9.83439 13.4877 10.0828C13.1783 10.7344 12.7845 10.9266 12.4377 11.1703C12.4283 11.1703 12.4236 11.3344 12.5502 11.4235C12.597 11.4703 12.7798 11.4938 12.9908 11.4235C13.4414 11.1732 13.8058 10.7924 14.0361 10.3313C14.0759 9.98034 14.0375 9.62494 13.9236 9.29064C13.7877 8.97658 13.6283 8.53126 13.6283 8.52189C13.6236 8.32501 13.6377 8.25939 13.722 8.16095ZM9.2314 6.35158C9.42828 6.44533 9.80328 6.40314 9.78453 6.08439L9.77515 5.93908C9.73765 5.84533 9.62515 5.86876 9.60171 5.96251C9.59234 5.99533 9.61578 6.04689 9.58765 6.06095C9.5689 6.0797 9.50796 6.07033 9.50796 5.98126C9.50796 5.95314 9.48922 5.92501 9.47515 5.90626C9.46578 5.89689 9.4564 5.89689 9.43297 5.89689C9.40484 5.89689 9.40484 5.90158 9.39078 5.92501C9.38609 5.94845 9.37671 5.97189 9.37671 6.00001C9.37671 6.03283 9.35797 6.0422 9.33922 6.04689C9.31109 6.04689 9.31578 6.04689 9.29234 6.03751C9.28297 6.02345 9.2689 6.01876 9.2689 5.99064L9.25484 5.91564C9.24546 5.90158 9.22671 5.8922 9.20796 5.88751C9.10015 5.88751 9.09078 6.01408 9.10015 6.06095C9.09078 6.07033 9.08609 6.29064 9.2314 6.35158Z" fill="white"/>
<path fill-rule="evenodd" clip-rule="evenodd" d="M15.0204 8.79846C15.2173 8.89221 15.6907 8.84065 15.5735 8.53596L15.5641 8.38596C15.5219 8.29221 15.4141 8.31565 15.3907 8.41408C15.3813 8.44221 15.4048 8.49377 15.3719 8.50783C15.3579 8.52658 15.2923 8.51721 15.2969 8.43283C15.2969 8.40471 15.2782 8.3719 15.2641 8.35315C15.2501 8.34846 15.2454 8.34377 15.2173 8.34377C15.1938 8.34377 15.1938 8.35315 15.1798 8.37658C15.1704 8.40002 15.1657 8.42346 15.1657 8.45158C15.161 8.47971 15.1469 8.48908 15.1235 8.49846C15.1001 8.49846 15.1048 8.49846 15.086 8.4844C15.0719 8.47033 15.0579 8.46565 15.0579 8.44221L15.0438 8.36721C15.0344 8.35315 15.0157 8.34377 14.9969 8.33908C14.8891 8.33908 14.8798 8.46096 14.8844 8.50783C14.8798 8.51721 14.8751 8.74221 15.0251 8.79846H15.0204ZM18.3954 7.78596C18.5923 7.87971 18.9626 7.83752 18.9485 7.52346L18.9391 7.37346C18.8969 7.27971 18.7891 7.30315 18.7657 7.3969C18.7563 7.42971 18.7798 7.48127 18.7469 7.50002C18.7329 7.51408 18.6673 7.50471 18.6719 7.41565C18.6719 7.38752 18.6532 7.3594 18.6391 7.34065C18.6251 7.33127 18.6204 7.33127 18.5923 7.33127C18.5688 7.33127 18.5688 7.34065 18.5548 7.36408L18.5407 7.4344C18.536 7.46721 18.5219 7.48127 18.4985 7.48127C18.4751 7.48127 18.4798 7.48127 18.461 7.4719C18.4469 7.45783 18.4329 7.45315 18.4329 7.42971C18.4329 7.40627 18.4282 7.36877 18.4188 7.35002C18.4094 7.33596 18.3907 7.33127 18.3719 7.32658C18.2641 7.32658 18.2548 7.44846 18.2594 7.49533C18.2548 7.50471 18.2501 7.72502 18.4001 7.78596H18.3954ZM20.1438 10.3313C19.8016 10.7203 19.9516 11.3625 20.0313 11.5031C20.1438 11.7281 20.2329 11.8735 20.4532 11.986C20.6548 12.1313 20.8141 12.0422 20.8985 11.9391C21.1001 11.7281 21.1048 11.1891 21.1985 11.086C21.2641 10.8891 21.4329 10.9219 21.5126 11.011C21.5871 11.1168 21.6871 11.2022 21.8032 11.2594C21.9907 11.4235 22.2157 11.4563 22.4407 11.3063C22.5907 11.2172 22.6891 11.1094 22.7782 10.8891C22.8719 10.6266 22.8251 9.40783 22.8016 8.68596L22.6048 7.67815C22.6048 7.66877 22.5813 7.20002 22.5579 7.09221C22.5579 7.04533 22.5438 7.03127 22.5907 7.03596C22.6423 7.08283 22.6469 7.08283 22.6844 7.0969C22.7313 7.10627 22.7782 7.01721 22.7454 6.94221L22.2766 6.07033C22.2391 6.03283 22.1876 5.99533 22.1266 6.07971C22.0907 6.11226 22.0621 6.15207 22.0427 6.19652C22.0233 6.24097 22.0135 6.28903 22.0141 6.33752C22.0282 6.54377 22.061 6.75471 22.0751 6.96096L22.2626 8.02033C22.3235 8.77033 22.3376 9.38908 22.3985 10.1438C22.3891 10.4625 22.2907 10.7391 22.1969 10.7813C22.1969 10.7813 22.0563 10.861 21.9626 10.7719C21.8923 10.7438 21.6157 10.3078 21.6157 10.3078C21.4751 10.1813 21.3813 10.2141 21.2829 10.3078C21.0016 10.5797 20.8798 11.0766 20.6876 11.4235C20.6407 11.5031 20.5001 11.5641 20.3501 11.4188C19.9657 10.8891 20.1907 10.1391 20.1438 10.3313ZM18.4844 5.93908C18.6626 6.0094 18.7844 6.37033 18.7469 6.54846C18.7094 6.7594 18.6157 6.99377 18.5501 6.96565C18.4751 6.93752 18.5969 6.75002 18.5266 6.55315C18.4891 6.4219 18.2454 6.18752 18.2735 6.1219C18.2266 5.97658 18.3766 5.91096 18.4844 5.9344V5.93908Z" fill="white"/>
<path fill-rule="evenodd" clip-rule="evenodd" d="M20.7156 10.5469C20.7485 10.1156 20.6875 9.85313 20.6781 9.60001C20.6688 9.34688 20.3922 7.41563 20.336 7.22813C20.2656 6.8625 20.6031 7.18126 20.5656 6.96563C20.4485 6.70313 20.1625 6.31407 20.0735 6.08438C20.0172 5.99063 20.0406 5.89688 19.9188 6.06094C19.8138 6.34859 19.7769 6.65664 19.811 6.96094C20.1016 8.47501 20.3969 9.73126 20.35 11.1703C20.4906 11.1703 20.6453 10.8563 20.7156 10.5469ZM23.7344 6.54844C23.8985 6.62813 23.9922 7.07813 23.9735 7.20469C23.9406 7.43907 23.8563 7.69219 23.7953 7.65938C23.725 7.63125 23.8094 7.3125 23.7766 7.21407C23.7391 7.07344 23.5188 6.82032 23.5422 6.74532C23.4953 6.58594 23.636 6.52032 23.7344 6.54844ZM11.7485 9.73126C11.9031 9.79219 11.9969 10.1203 11.9828 10.2141C11.9453 10.3875 11.8656 10.575 11.8047 10.5469C11.7438 10.5281 11.8188 10.2938 11.7906 10.2188C11.7766 10.0453 11.561 9.95157 11.5656 9.87657C11.5281 9.73594 11.6594 9.71251 11.7531 9.73126H11.7485Z" fill="white"/>
<path fill-rule="evenodd" clip-rule="evenodd" d="M15.4795 10.2281C15.6764 10.2375 15.7748 10.3969 15.592 10.4625C15.4045 10.5234 15.2311 10.575 15.2264 10.8375C15.2967 11.2125 15.1326 11.0812 15.0389 11.0344C14.9264 10.95 14.6076 10.7531 14.5607 10.3312C14.5561 10.2328 14.6357 10.1437 14.7623 10.1437C14.9498 10.1953 15.2311 10.2 15.4795 10.2281Z" fill="#165D31"/>
<path fill-rule="evenodd" clip-rule="evenodd" d="M7.62823 5.83125C7.85323 5.89687 7.86729 6.23437 7.85323 6.33281C7.82042 6.51094 7.74073 6.70312 7.68448 6.67969C7.61885 6.65625 7.68448 6.4125 7.65167 6.3375C7.61885 6.23437 7.42667 6.0375 7.44542 5.98125C7.40323 5.86406 7.53917 5.80781 7.62823 5.83125ZM12.1235 7.40625C11.9454 7.5 11.8798 7.78125 11.9876 7.95C12.0907 8.09062 12.2501 8.03906 12.2689 8.03906C12.4423 8.05781 12.5454 7.71562 12.5454 7.71562C12.5454 7.71562 12.5501 7.62187 12.3485 7.80469C12.2595 7.81875 12.2548 7.78594 12.2314 7.73906C12.2099 7.64982 12.2181 7.55601 12.2548 7.47187C12.2876 7.3875 12.222 7.35 12.1235 7.40625ZM13.436 5.7C13.3423 5.76093 13.1689 5.94375 13.1642 6.15C13.1595 6.26718 13.136 6.26718 13.211 6.3375C13.272 6.42187 13.3235 6.41719 13.436 6.35625C13.4641 6.3386 13.4881 6.31532 13.5067 6.28789C13.5253 6.26045 13.5379 6.22946 13.5439 6.19687C13.572 6.06562 13.4032 6.2625 13.3845 6.1125C13.347 5.97187 13.4548 5.91562 13.5579 5.78437C13.5579 5.69062 13.5579 5.62968 13.4314 5.7H13.436ZM14.486 5.8875C14.4447 6.05819 14.4196 6.2324 14.411 6.40781C14.3829 6.53906 14.5517 6.59531 14.622 6.42656C14.7345 6.12187 14.7345 5.99062 14.7439 5.86406C14.711 5.6625 14.5751 5.66718 14.486 5.8875ZM21.1423 9.27656C21.161 9.25312 22.0798 8.60156 22.0798 8.60156C22.1735 8.56875 22.1501 8.93906 22.1079 8.93437C21.823 9.20897 21.4953 9.43537 21.1376 9.60468C21.0907 9.6375 21.0485 9.35625 21.1376 9.27656H21.1423ZM21.972 9.26718C22.136 9.34687 22.2017 9.82031 22.1829 9.94687C22.1829 10.2 22.0282 10.3969 21.9626 10.3687C21.897 10.3359 21.972 10.0547 21.9392 9.95625C21.9017 9.81562 21.7657 9.55781 21.7892 9.48281C21.7423 9.32344 21.8735 9.23906 21.9767 9.26718H21.972ZM16.5345 11.3016C16.6105 11.2128 16.6989 11.1355 16.797 11.0719C16.8907 11.025 16.9751 11.1094 16.9704 11.1047C16.9845 11.1984 16.9142 11.2781 16.9376 11.4C16.9564 11.4469 16.9704 11.5031 17.0595 11.4844C17.2048 11.3672 17.3407 11.3578 17.4814 11.3531C17.5985 11.3578 17.6032 11.55 17.5282 11.55C17.261 11.6062 17.1439 11.6812 16.9517 11.7516C16.8579 11.8078 16.7829 11.7375 16.7829 11.7328C16.7829 11.7281 16.7314 11.6812 16.7642 11.5594C16.7735 11.4656 16.736 11.4094 16.6517 11.4187C16.5954 11.4562 16.5392 11.475 16.511 11.4047C16.497 11.3578 16.4923 11.3297 16.5345 11.3016ZM22.9376 11.5547C22.9751 11.6016 23.0032 11.6484 22.9329 11.7328L22.7595 11.8828C22.7314 11.9297 22.7126 12.0141 22.8064 12.0375C22.9751 12.0844 23.3689 11.8266 23.3689 11.8219C23.4345 11.775 23.4157 11.6812 23.4064 11.6812C23.3689 11.6391 23.2845 11.6672 23.2282 11.6578C23.2001 11.6578 23.111 11.6484 23.1532 11.5641C23.1847 11.5226 23.21 11.4768 23.2282 11.4281C23.2517 11.3719 23.2282 11.3344 23.1345 11.3016C23.036 11.2828 22.9939 11.2922 22.886 11.3016C22.8298 11.3109 22.811 11.3391 22.797 11.4094C22.8017 11.5172 22.8673 11.5125 22.9376 11.55V11.5547Z" fill="white"/>
<path fill-rule="evenodd" clip-rule="evenodd" d="M16.5672 8.89216C16.5437 8.93903 16.4594 8.93903 16.3797 8.89216C16.3 8.84528 16.2531 8.77028 16.2812 8.7281C16.3094 8.68591 16.389 8.68591 16.4687 8.7281C16.5484 8.77028 16.5906 8.84997 16.5672 8.89216ZM12.3953 6.37966C12.3484 6.39372 12.2828 6.35154 12.2547 6.28591C12.2265 6.22029 12.2406 6.16403 12.2875 6.14997C12.3344 6.13591 12.3953 6.18278 12.4281 6.24372C12.4609 6.30466 12.4422 6.37028 12.3906 6.38435L12.3953 6.37966Z" fill="#165D31"/>
<path fill-rule="evenodd" clip-rule="evenodd" d="M20.6499 17.5781C21.0905 17.5969 21.503 17.5781 21.939 17.6016C22.0187 17.6719 21.9624 17.8359 21.9109 17.8266L21.5452 17.8125C21.5405 17.6719 21.1843 17.6953 21.1937 17.8172C21.0015 17.8406 20.828 17.8125 20.6312 17.8031C20.5749 17.7328 20.5843 17.6063 20.6499 17.5781Z" fill="#165D31"/>
</g>
</svg>
