<svg width="24" height="25" viewBox="0 0 24 25" fill="none" xmlns="http://www.w3.org/2000/svg">
<path d="M20.8473 4.54257C20.3799 4.03918 19.647 3.85063 18.9468 3.78314C18.2111 3.71223 17.33 3.75939 16.3813 3.88382C14.4788 4.13337 12.1802 4.71102 9.97221 5.42176C7.76281 6.13295 5.60914 6.98865 3.99626 7.80847C3.19355 8.21648 2.49734 8.62932 1.99121 9.02586C1.73919 9.22331 1.50922 9.436 1.33623 9.66237C1.17123 9.87829 0.997637 10.1855 1.00002 10.5558C1.00629 11.5279 1.66829 12.2149 2.37327 12.676C3.09284 13.1467 4.02998 13.5014 4.96161 13.7792C5.90324 14.06 6.89346 14.2776 7.74473 14.454C7.80052 14.4655 7.91203 14.4886 8.04867 14.5168C8.56323 14.6231 8.82051 14.6763 9.06237 14.6039C9.30422 14.5315 9.49015 14.3456 9.86202 13.9737L13.5429 10.2929C13.9334 9.90237 14.5666 9.90237 14.9571 10.2929C15.3476 10.6834 15.3476 11.3166 14.9571 11.7071L11.5245 15.1397C11.1454 15.5188 10.9559 15.7083 10.8842 15.9543C10.8124 16.2003 10.8703 16.4614 10.986 16.9837C11.4344 19.0084 11.8238 20.6815 12.2123 21.8071C12.4392 22.4645 12.6945 23.0336 13.0178 23.4533C13.3552 23.8913 13.8142 24.2222 14.4183 24.2489C14.7944 24.2655 15.1071 24.0938 15.3215 23.9344C15.5475 23.7666 15.76 23.5414 15.9571 23.2953C16.3531 22.8005 16.7692 22.1159 17.1832 21.3247C18.0152 19.7347 18.8962 17.6028 19.6417 15.4096C20.3868 13.2173 21.0077 10.9306 21.3068 9.0301C21.456 8.0823 21.5298 7.20207 21.4888 6.46477C21.4499 5.76556 21.3009 5.03106 20.8473 4.54257Z" fill="white"/>
</svg>
