<svg width="237" height="244" viewBox="0 0 237 244" fill="none" xmlns="http://www.w3.org/2000/svg">
<path d="M36.9362 56.2811C38.7528 56.2811 40.5693 55.8775 42.184 54.8685H42.3859C46.0189 52.6486 48.0373 48.6126 47.6336 44.7784L80.5331 25.809L142.093 61.3261V86.5513H150.974V55.8775L80.5331 15.3153L43.1932 36.9081C39.9638 34.6883 35.5233 34.2847 31.6884 36.3027H31.4867C26.4407 39.3297 24.6241 45.7874 27.6517 50.8324C29.6701 54.4649 33.3032 56.2811 36.9362 56.2811Z" fill="url(#paint0_linear_8017_36289)"/>
<path d="M99.9095 223.575C96.0746 221.355 91.6341 221.759 88.4047 224.18L53.4869 204.605V116.822H44.6061V207.027V209.65L84.1661 231.849C83.7625 235.885 85.7809 239.921 89.6158 241.939H89.8176C91.4323 242.948 93.2489 243.351 95.0654 243.351C98.6985 243.351 102.331 241.333 104.35 237.903C106.772 232.858 104.955 226.4 99.9095 223.575Z" fill="url(#paint1_linear_8017_36289)"/>
<path d="M201.03 185.838C196.993 188.259 194.975 192.497 195.58 196.735L156.828 219.741L80.9368 175.95L76.4963 183.618L157.029 230.032L200.223 204.404C202.039 205.816 204.461 206.422 206.681 206.422C208.7 206.422 210.516 206.018 212.333 204.807C217.581 201.578 219.397 194.919 216.168 189.672C213.14 184.425 206.278 182.609 201.03 185.838Z" fill="url(#paint2_linear_8017_36289)"/>
<path d="M236.15 80.0937V79.8919C236.15 74.0396 231.306 69.3982 225.452 69.3982C219.599 69.3982 214.957 74.2414 214.957 80.0937V80.2955C214.957 84.5333 217.581 88.1658 221.214 89.7802L221.819 137.204L145.928 180.995L150.369 188.663L230.902 142.249L230.296 89.5784C233.728 88.1658 236.15 84.3315 236.15 80.0937Z" fill="url(#paint3_linear_8017_36289)"/>
<path d="M134.827 20.1586C136.644 21.1676 138.46 21.773 140.277 21.773C142.497 21.773 144.717 21.1676 146.332 19.755L183.066 40.9442V119.243L165.91 129.333L157.635 144.872L120.9 159.805L98.4965 144.267L91.4322 123.885L76.6981 109.355L70.4412 115.611L83.7624 128.526L91.0286 149.715L119.891 169.492L164.094 151.733L172.773 135.589L192.149 124.087V35.6973L150.974 12.0865C151.378 8.05047 149.36 4.01443 145.726 1.99641L145.525 1.79461C140.479 -1.03061 134.02 0.583801 130.992 5.62885C127.965 10.6739 129.781 17.3334 134.827 20.1586Z" fill="url(#paint4_linear_8017_36289)"/>
<path d="M15.3396 152.339V106.732L87.7992 64.7568L95.6708 69.1964L97.6892 88.973L111.616 102.696L130.589 110.364L139.47 123.885L148.552 130.746L153.8 123.683L145.928 117.831L136.442 103.301L116.662 95.2288L106.166 84.937L103.946 63.9496L87.5974 54.6667L6.25697 101.888V152.541C2.6239 154.155 0 157.989 0 162.227V162.429C0 168.281 4.84407 173.124 10.6973 173.124C16.5506 173.124 21.3948 168.281 21.3948 162.429V162.227C21.3948 157.586 18.9727 153.953 15.3396 152.339Z" fill="url(#paint5_linear_8017_36289)"/>
<defs>
<linearGradient id="paint0_linear_8017_36289" x1="47.3672" y1="16.4163" x2="229.48" y2="178.885" gradientUnits="userSpaceOnUse">
<stop stop-color="#11CEC8"/>
<stop offset="0.0270988" stop-color="#10CAC8"/>
<stop offset="0.5039" stop-color="#0080C0"/>
<stop offset="0.9951" stop-color="#61269D"/>
</linearGradient>
<linearGradient id="paint1_linear_8017_36289" x1="-24.9698" y1="97.4997" x2="157.143" y2="259.968" gradientUnits="userSpaceOnUse">
<stop stop-color="#11CEC8"/>
<stop offset="0.0270988" stop-color="#10CAC8"/>
<stop offset="0.5039" stop-color="#0080C0"/>
<stop offset="0.9951" stop-color="#61269D"/>
</linearGradient>
<linearGradient id="paint2_linear_8017_36289" x1="6.83967" y1="61.844" x2="188.953" y2="224.313" gradientUnits="userSpaceOnUse">
<stop stop-color="#11CEC8"/>
<stop offset="0.0270988" stop-color="#10CAC8"/>
<stop offset="0.5039" stop-color="#0080C0"/>
<stop offset="0.9951" stop-color="#61269D"/>
</linearGradient>
<linearGradient id="paint3_linear_8017_36289" x1="54.5637" y1="8.34952" x2="236.676" y2="170.818" gradientUnits="userSpaceOnUse">
<stop stop-color="#11CEC8"/>
<stop offset="0.0270988" stop-color="#10CAC8"/>
<stop offset="0.5039" stop-color="#0080C0"/>
<stop offset="0.9951" stop-color="#61269D"/>
</linearGradient>
<linearGradient id="paint4_linear_8017_36289" x1="51.2081" y1="12.1109" x2="233.321" y2="174.579" gradientUnits="userSpaceOnUse">
<stop stop-color="#11CEC8"/>
<stop offset="0.0270988" stop-color="#10CAC8"/>
<stop offset="0.5039" stop-color="#0080C0"/>
<stop offset="0.9951" stop-color="#61269D"/>
</linearGradient>
<linearGradient id="paint5_linear_8017_36289" x1="0.383489" y1="69.0808" x2="182.496" y2="231.549" gradientUnits="userSpaceOnUse">
<stop stop-color="#11CEC8"/>
<stop offset="0.0270988" stop-color="#10CAC8"/>
<stop offset="0.5039" stop-color="#0080C0"/>
<stop offset="0.9951" stop-color="#61269D"/>
</linearGradient>
</defs>
</svg>
