<svg width="20" height="21" viewBox="0 0 20 21" fill="none" xmlns="http://www.w3.org/2000/svg">
<g clip-path="url(#clip0_8331_13)">
<path d="M13.3311 13.8334L9.99777 10.5M9.99777 10.5L6.66444 13.8334M9.99777 10.5V18M16.9894 15.825C17.8022 15.3819 18.4443 14.6808 18.8143 13.8322C19.1844 12.9837 19.2613 12.0361 19.0329 11.1389C18.8046 10.2418 18.284 9.44629 17.5533 8.8779C16.8226 8.30951 15.9235 8.00064 14.9978 8.00003H13.9478C13.6955 7.0244 13.2254 6.11864 12.5727 5.35085C11.92 4.58307 11.1018 3.97324 10.1795 3.5672C9.25723 3.16116 8.25489 2.96949 7.24787 3.0066C6.24084 3.0437 5.25533 3.30861 4.36542 3.78142C3.47551 4.25422 2.70436 4.92261 2.10995 5.73635C1.51555 6.55008 1.11334 7.48797 0.933586 8.47952C0.753828 9.47107 0.801191 10.4905 1.07211 11.4611C1.34304 12.4317 1.83047 13.3282 2.49777 14.0834" stroke="#1A1A1A" stroke-width="1.66667" stroke-linecap="round" stroke-linejoin="round"/>
</g>
<defs>
<clipPath id="clip0_8331_13">
<rect width="20" height="20" fill="white" transform="translate(-0.00244141 0.5)"/>
</clipPath>
</defs>
</svg>
