<svg width="226" height="208" viewBox="0 0 226 208" fill="none" xmlns="http://www.w3.org/2000/svg">
<path d="M115.258 206.028C172.013 206.028 218.022 160.019 218.022 103.264C218.022 46.509 172.013 0.5 115.258 0.5C58.5034 0.5 12.4944 46.509 12.4944 103.264C12.4944 160.019 58.5034 206.028 115.258 206.028Z" fill="#5F289E"/>
<path d="M116.931 32.8966L181.79 32.8947C186.949 33.0056 190.743 37.7696 189.696 42.8223L157.074 200.251C156.159 204.665 151.871 207.529 147.442 206.684L78.921 193.234C74.2575 192.343 71.3045 187.712 72.4648 183.108L108.749 39.1321C109.689 35.4006 113.084 32.8138 116.931 32.8966Z" fill="#606C9C"/>
<path d="M184.321 43.0358L171.139 102.988L164.637 132.558L154.266 176.652L154.003 177.763L152.868 182.91C152.601 184.192 151.471 185.12 150.169 185.12C149.998 185.12 149.814 185.108 149.643 185.068L147.175 184.619H147.171L140.88 183.476L87.7483 173.69L83.1777 172.857C82.1346 172.654 81.5772 171.997 81.3382 171.623C81.0993 171.245 80.7331 170.465 80.9839 169.457L83.7112 158.823L85.8651 150.426L99.0436 99.0544L101.504 89.4631L114.069 40.4721C114.384 39.2419 115.483 38.3818 116.749 38.3818L116.932 38.3858L181.717 39.7116C182.82 39.7514 183.477 40.3805 183.776 40.7547C184.078 41.1328 184.552 41.9291 184.321 43.0358Z" fill="white"/>
<path d="M122.311 38.736L87.637 173.908L83.1778 173.096C82.1347 172.893 81.5774 172.236 81.3384 171.862C81.0995 171.484 80.7333 170.703 80.9841 169.696L114.07 40.7107C114.384 39.4804 115.483 38.6205 116.749 38.6205L116.932 38.6245L122.311 38.736Z" fill="#D6E0FD"/>
<path d="M156.424 207.752C160.852 208.598 165.14 205.734 166.055 201.319L198.681 45.1862C199.728 40.1335 195.084 35.4963 190.434 34.3496L181.79 32.8947C186.949 33.0056 190.743 37.7696 189.696 42.8223L157.073 200.251C156.159 204.665 151.871 207.529 147.442 206.684L156.424 207.752Z" fill="#464F7A"/>
<path d="M117.502 188.921C118.157 186.286 116.545 183.618 113.902 182.96C111.259 182.303 108.585 183.905 107.93 186.54C107.274 189.174 108.886 191.843 111.529 192.5C114.172 193.158 116.846 191.555 117.502 188.921Z" fill="white"/>
<path d="M76.8146 157.037C76.8146 157.037 72.2936 148.069 73.2477 132.389C74.7002 108.521 86.3164 87.5485 92.6273 88.0026C101.77 88.6605 105.704 127.578 105.97 130.473C106.237 133.367 104.668 146.506 104.668 146.506C104.668 146.506 97.0004 151.658 94.526 152.814C92.0517 153.97 76.8146 157.037 76.8146 157.037Z" fill="black"/>
<path d="M22.3799 79.3029L14.1572 94.4498C13.3367 99.0409 12.9702 104.347 13.0879 109.714C10.3378 110.302 8.19344 110.585 7.37133 110.317C1.65286 108.438 -2.7763 92.5337 3.50978 88.0332C8.41962 84.5157 22.3799 79.3029 22.3799 79.3029Z" fill="#FBA986"/>
<path d="M97.2267 153.496C97.2267 153.496 33.4097 148.481 22.4395 139.795C16.4364 135.044 13.5149 122.226 13.238 109.714C13.1205 104.348 13.4868 99.0414 14.3073 94.4503C14.3073 94.4503 15.2309 84.7542 17.4326 82.6362C27.6633 72.7946 64.1186 72.2029 73.6395 74.5626C79.6516 76.052 91.7573 94.3984 91.7573 94.3984L108.006 97.6449C119.372 117.893 115.414 136.469 97.2267 153.496Z" fill="#FBA986"/>
<path d="M35.345 79.9567C36.9454 89.8391 41.4287 98.5326 49.6609 105.087C57.4927 111.323 64.3512 118.981 74.1169 121.184C70.7193 122.178 67.1152 121.086 63.6388 120.417C60.1624 119.748 56.1185 119.669 53.5858 122.143C50.9786 124.689 51.0567 128.954 52.2059 132.413C53.0821 135.05 54.4693 137.54 54.8962 140.286C55.3229 143.032 54.4643 146.272 51.9711 147.499C49.6771 148.629 46.9457 147.689 44.59 146.694C38.8115 144.255 33.1574 141.521 27.6566 138.507C24.2292 136.629 20.6195 134.364 19.2645 130.698C18.0926 127.528 18.8849 123.971 20.118 120.824C21.3511 117.677 23.0232 114.665 23.6646 111.346C24.3057 108.028 23.6705 104.176 21.0193 102.079C19.1365 100.591 16.2347 99.8531 15.7185 97.5091C15.3632 95.895 16.4558 94.2591 17.8525 93.3752C19.2492 92.4914 20.912 92.1617 22.4932 91.6806C26.8031 90.3696 33.64 89.5954 36.5692 86.173" fill="#EF9672"/>
<path d="M171.139 102.988L164.637 132.558L154.266 176.652L97.1245 162.454L96.6986 162.343L83.7113 158.823L77.3967 157.111C80.6017 155.085 83.4126 152.835 85.8651 150.426C101.643 134.939 102.695 112.75 99.0436 99.0544C97.654 93.8427 95.5836 89.8613 93.3861 87.9422C93.374 87.9302 93.3622 87.9184 93.3463 87.9065C93.5692 87.9502 96.6947 88.5435 101.504 89.4632C104.606 90.0605 108.404 90.793 112.58 91.6012C115.825 92.2259 154.716 99.8105 171.139 102.988Z" fill="#B27EED"/>
<path d="M99.0726 162.927L77.3991 157.111C109.039 137.089 102.263 95.689 93.3878 87.9395C95.373 88.3234 107.2 90.4457 116.497 92.2486C121.07 102.579 129.209 142.752 99.0726 162.927Z" fill="#8947D5"/>
<path d="M19.4758 139.462C19.4758 139.462 12.2597 142.175 16.1511 149.147C18.5049 153.365 22.3964 155.951 29.5529 155.004C33.5238 154.479 43.6996 147.056 44.987 143.327C46.7911 138.101 44.2172 130.878 39.504 132.43C34.791 133.983 19.4758 139.462 19.4758 139.462Z" fill="#FBA986"/>
<path d="M44.9853 143.329C43.7021 147.057 33.5244 154.479 29.5528 155.004C23.5954 155.791 19.9051 154.135 17.4753 151.122C19.7556 152.55 22.7916 153.171 26.8967 152.627C30.8671 152.097 41.0401 144.676 42.3281 140.947C43.3131 138.094 42.9931 134.644 41.7366 132.354C44.9705 133.308 46.4781 138.999 44.9853 143.329Z" fill="#EF9672"/>
<path d="M26.7048 155.812C21.6027 155.812 17.9428 153.716 15.5647 149.455C14.3049 147.198 14.0119 145.109 14.6937 143.248C15.7997 140.228 19.0622 138.971 19.2006 138.919C19.2036 138.918 19.2067 138.917 19.2095 138.916C19.3627 138.861 34.5859 133.417 39.2522 131.88C40.9184 131.331 42.5233 131.726 43.7708 132.99C45.9957 135.247 46.7494 139.881 45.4866 143.539C44.1079 147.532 33.5924 155.081 29.5666 155.613C28.5662 155.745 27.6126 155.812 26.7048 155.812ZM19.6184 140.038C19.5039 140.083 16.7101 141.202 15.8126 143.666C15.2594 145.184 15.5271 146.936 16.6079 148.873C19.1779 153.479 23.2456 155.244 29.4098 154.429C33.0972 153.941 43.105 146.777 44.3575 143.148C45.466 139.938 44.8213 135.757 42.9203 133.829C41.9824 132.877 40.8739 132.603 39.6259 133.014C35.0109 134.534 20.0076 139.899 19.6184 140.038Z" fill="#E27E5A"/>
<path d="M13.7972 124.273C13.7972 124.273 8.44357 127.054 9.08889 132.173C9.73422 137.291 12.6252 142.095 17.2168 141.53C19.5351 141.245 39.0337 135.605 41.0928 133.857C46.3482 129.393 44.1478 118.523 38.2036 118.312C34.4758 118.18 13.7972 124.273 13.7972 124.273Z" fill="#FBA986"/>
<path d="M41.0916 133.855C39.0359 135.605 19.5349 141.246 17.2173 141.532C14.7698 141.831 12.8094 140.612 11.4114 138.63C12.3438 139.093 13.3987 139.294 14.56 139.15C16.8777 138.864 36.3786 133.223 38.4356 131.479C42.0646 128.395 42.1374 122.258 39.8813 118.683C44.5138 120.641 45.8186 129.84 41.0916 133.855Z" fill="#EF9672"/>
<path d="M16.4098 142.191C11.7948 142.191 9.05093 137.178 8.43142 132.264C7.74204 126.795 13.2232 123.881 13.457 123.76C13.4909 123.742 13.5265 123.728 13.5634 123.717C14.4117 123.467 34.3861 117.59 38.1597 117.732C40.7113 117.822 42.872 119.711 43.9396 122.785C45.1538 126.28 44.8817 131.384 41.4145 134.328C39.1809 136.225 19.4999 141.86 17.2248 142.14C16.9468 142.174 16.6751 142.191 16.4098 142.191ZM13.9623 124.844C13.4599 125.125 9.0625 127.72 9.61661 132.115C10.1998 136.742 12.7842 141.482 17.079 140.954C19.4249 140.666 38.7381 135.034 40.6412 133.418C43.5447 130.952 43.9308 126.399 42.8115 123.177C41.9119 120.587 40.1571 118.998 38.1174 118.926C35.2512 118.812 21.1023 122.742 13.9623 124.844Z" fill="#E27E5A"/>
<path d="M9.24804 109.313C9.24804 109.313 3.65252 112.155 4.27129 117.281C4.89007 122.406 7.84749 127.193 12.6279 126.58C15.0415 126.271 35.3757 120.417 37.5347 118.642C43.0454 114.114 40.8681 103.237 34.6889 103.087C30.8136 102.993 9.24804 109.313 9.24804 109.313Z" fill="#FBA986"/>
<path d="M37.5365 118.644C35.3739 120.415 15.0417 126.269 12.6279 126.58C10.0457 126.913 7.99137 125.667 6.55582 123.639C7.56066 124.144 8.70106 124.359 9.97049 124.198C12.3855 123.892 32.7177 118.039 34.8791 116.262C38.656 113.156 38.8194 107.072 36.5583 103.499C41.2505 105.529 42.4425 114.608 37.5365 118.644Z" fill="#EF9672"/>
<path d="M11.7326 127.248C10.2766 127.248 8.93613 126.778 7.73699 125.844C5.59413 124.176 4.05269 121.007 3.61323 117.369C2.95218 111.892 8.66886 108.92 8.91269 108.797C8.94547 108.78 8.97974 108.766 9.01519 108.756C9.89959 108.497 30.7013 102.411 34.6384 102.507C37.3041 102.572 39.5352 104.467 40.6066 107.577C41.8063 111.059 41.455 116.157 37.8485 119.12C35.5102 121.042 15.0057 126.886 12.6387 127.189C12.3321 127.228 12.0298 127.248 11.7326 127.248ZM9.4094 109.885C8.89964 110.163 4.26685 112.816 4.79916 117.226C5.20094 120.555 6.57376 123.424 8.47072 124.902C9.65442 125.823 11.0056 126.194 12.4871 126.004C14.9314 125.691 35.0921 119.84 37.0905 118.198C40.1152 115.712 40.5808 111.169 39.4773 107.966C38.5753 105.347 36.7554 103.753 34.6093 103.701C30.9822 103.609 10.6569 109.521 9.4094 109.885Z" fill="#E27E5A"/>
<path d="M34.6873 103.086C32.5215 104.308 20.6678 108.126 13.2382 109.714C13.1207 104.348 13.4871 99.0415 14.3075 94.4504C14.3075 94.4504 27.0728 90.2256 30.6392 90.1157C36.5505 89.9331 38.961 100.682 34.6873 103.086Z" fill="#FBA986"/>
<path d="M34.6867 103.087C31.72 104.758 10.5593 111.315 7.52341 110.315C6.13755 109.861 5.00249 108.887 4.12698 107.626C4.36829 107.749 4.6142 107.85 4.86604 107.934C7.90177 108.934 29.0638 102.381 32.0293 100.706C34.8763 99.1069 34.7578 93.8025 32.6149 90.4906C37.0356 92.4005 38.4462 100.973 34.6867 103.087Z" fill="#EF9672"/>
<path d="M8.33203 111.024C7.88605 111.024 7.52757 110.984 7.27098 110.9C4.35806 109.944 1.64433 105.928 0.518312 100.908C-0.723536 95.3714 0.297019 90.3963 3.2485 87.5997C3.48803 87.3727 3.86609 87.3833 4.09287 87.6224C4.31979 87.8619 4.30971 88.2398 4.07018 88.4667C1.42704 90.9712 0.535073 95.5246 1.68393 100.647C2.70493 105.199 5.15555 108.949 7.64355 109.765C10.403 110.672 31.4591 104.2 34.3309 102.583C36.2602 101.497 36.543 98.3223 35.8255 95.7471C35.165 93.378 33.3901 90.6422 30.5922 90.7291C27.1518 90.8353 14.5561 94.9905 14.4295 95.0325C14.1162 95.1356 13.7782 94.9658 13.6748 94.653C13.5714 94.3397 13.7411 94.0019 14.0544 93.8983C14.5788 93.725 26.943 89.6469 30.5554 89.5352C33.4253 89.4499 35.9539 91.7586 36.9761 95.4266C37.7927 98.3569 37.4967 102.172 34.917 103.624C32.2552 105.122 13.7915 111.023 8.33203 111.024Z" fill="#E27E5A"/>
<path d="M33.0106 84.4314C37.8459 72.1441 24.8575 59.4783 24.5978 52.1102C24.3384 44.7458 29.8232 28.4849 40.42 30.2193C41.5865 30.4118 42.5532 30.6374 43.3473 30.9153C49.7697 33.1166 45.0472 38.2221 45.4595 49.9281C45.5016 51.1634 45.7021 52.348 46.0394 53.4833C49.2711 64.4492 65.0715 70.9079 73.6398 74.5627C82.6417 78.3982 90.5284 92.5922 90.5284 92.5922L33.0106 84.4314Z" fill="#FBA986"/>
<path d="M46.0393 53.4832C42.9678 52.8333 38.6341 51.4308 37.8852 48.9821C36.8778 45.7019 39.8558 35.1128 43.3472 30.9153C49.7695 33.1166 45.047 38.2221 45.4594 49.928C45.5015 51.1632 45.702 52.3478 46.0393 53.4832Z" fill="#EF9672"/>
<path d="M73.6379 75.1585C73.5597 75.1585 73.4802 75.1431 73.4038 75.1105L72.7093 74.8147C63.1404 70.7439 45.329 63.1665 44.863 49.9485C44.7098 45.6033 45.2495 42.1891 45.6832 39.4454C46.5777 33.787 46.8787 31.8807 40.3224 30.8082C37.587 30.3615 35.0302 31.1642 32.722 33.1964C27.5363 37.7626 25.018 47.1034 25.1936 52.0905C25.2826 54.6135 27.036 57.965 28.8923 61.5133C29.0451 61.8055 28.9322 62.1665 28.64 62.3193C28.3471 62.4722 27.9869 62.3592 27.8341 62.067C25.913 58.3951 24.0986 54.9268 24 52.1325C23.8156 46.9085 26.47 37.1097 31.9327 32.2997C34.5224 30.0198 37.4104 29.1223 40.5152 29.6291C48.244 30.8937 47.7535 33.9975 46.8627 39.6318C46.4372 42.3245 45.9074 45.676 46.0565 49.9063C46.4956 62.3645 63.8523 69.7486 73.1768 73.7154L73.8722 74.0115C74.1755 74.1408 74.3166 74.4917 74.1874 74.7952C74.0907 75.0222 73.87 75.1585 73.6379 75.1585Z" fill="#E27E5A"/>
<path d="M49.6604 105.685C49.5548 105.685 49.4482 105.657 49.3513 105.598C36.0136 97.5068 34.3205 79.1899 34.1166 75.6002L34.112 75.5213C34.0869 75.1937 34.3314 74.9052 34.6588 74.8786C34.9823 74.8517 35.2736 75.0931 35.3021 75.4204L35.3091 75.5324C35.5069 79.0173 37.1445 96.7957 49.9707 104.577C50.2528 104.748 50.3427 105.115 50.1715 105.397C50.0594 105.582 49.8623 105.685 49.6604 105.685Z" fill="#E27E5A"/>
<path d="M173.245 56.9468L155.576 58.7425L157.089 70.3682L155.464 72.6495L138.257 60.2553L73.085 67.7763L66.3166 19.4818L67.5827 15.1462L79.5428 20.0235L161.432 53.4153L174.786 54.339L173.245 56.9468Z" fill="#F57F35"/>
<path d="M167.491 16.789L174.787 54.3403L155.311 56.2138C156.115 63.0769 156.944 69.9274 157.089 70.3688C157.31 71.0426 145.059 62.3003 138.991 57.9422L74.9975 64.7052L67.5836 15.1477L167.491 16.789Z" fill="#FFCD3B"/>
<path d="M96.4088 36.5253L91.561 42.1892L93.616 49.5718L86.575 46.507L80.2678 50.4949L80.2822 50.2661L80.7628 42.935L74.8124 38.017L82.1592 36.4117L84.788 29.3838L84.921 29.6015L88.832 35.9506L96.4088 36.5253Z" fill="#F57F35"/>
<path d="M98.1367 34.8657L93.2888 40.5296L95.3438 47.9122L88.3029 44.8474L81.9956 48.8351L82.01 48.6063L82.4907 41.2753L76.5403 36.3573L83.8871 34.7521L86.5159 27.724L86.6489 27.9417L90.5598 34.291L98.1367 34.8657Z" fill="white"/>
<path d="M98.1367 34.8656L93.2888 40.5295L95.3437 47.9121L88.3029 44.8473L81.9955 48.8352L82.0098 48.6064C83.3193 47.3908 84.6318 46.1744 85.9414 44.9588C86.9449 44.0283 88.2464 43.0304 89.5742 43.4952C90.0956 43.6772 90.5249 44.0691 91.0239 44.3169C91.5198 44.5653 92.1905 44.631 92.5437 44.2232C92.9762 43.729 92.6562 42.9548 92.451 42.3106C92.0401 41.0098 92.2232 39.5557 92.9386 38.4363C93.3292 37.8257 93.8781 37.0521 93.4303 36.449C93.1515 36.08 92.6169 36.0189 92.1733 36.1032C91.7267 36.1883 91.3033 36.3787 90.8483 36.3771C90.1582 36.3765 89.5149 35.9265 89.1014 35.3561C88.6849 34.7864 88.461 34.1089 88.2441 33.4455C87.7584 31.9665 87.2087 30.4939 86.7905 28.9981C86.6831 28.6027 86.6253 28.2616 86.6487 27.9417L90.5596 34.2908L98.1367 34.8656Z" fill="#EAEEF6"/>
<path d="M120.163 34.8657L115.315 40.5296L117.37 47.9122L110.329 44.8474L104.021 48.8351L104.036 48.6063L104.517 41.2753L98.5662 36.3573L105.913 34.7521L108.542 27.724L108.675 27.9417L112.586 34.291L120.163 34.8657Z" fill="#F57F35"/>
<path d="M121.891 33.206L117.043 38.8699L119.098 46.2525L112.057 43.1875L105.749 47.1755L105.764 46.9466L106.244 39.6157L100.294 34.6976L107.641 33.0924L110.27 26.0643L110.403 26.2821L114.314 32.6313L121.891 33.206Z" fill="white"/>
<path d="M121.891 33.2061L117.043 38.87L119.098 46.2525L112.057 43.1877L105.749 47.1757L105.764 46.9468C107.073 45.7312 108.386 44.5149 109.695 43.2993C110.699 42.3687 112 41.3709 113.328 41.8357C113.849 42.0177 114.279 42.4095 114.778 42.6574C115.274 42.9058 115.944 42.9715 116.298 42.5636C116.73 42.0694 116.41 41.2952 116.205 40.6511C115.794 39.3502 115.977 37.8963 116.693 36.7768C117.083 36.1662 117.632 35.3926 117.184 34.7895C116.905 34.4206 116.371 34.3594 115.927 34.4436C115.481 34.5288 115.057 34.7192 114.602 34.7176C113.912 34.717 113.269 34.267 112.855 33.6966C112.439 33.1269 112.215 32.4494 111.998 31.786C111.512 30.307 110.963 28.8343 110.545 27.3386C110.437 26.9432 110.379 26.602 110.403 26.2821L114.314 32.6312L121.891 33.2061Z" fill="#EAEEF6"/>
<path d="M143.916 33.206L139.069 38.8699L141.124 46.2525L134.083 43.1875L127.775 47.1755L127.79 46.9466L128.27 39.6157L122.32 34.6976L129.667 33.0924L132.295 26.0643L132.429 26.2821L136.339 32.6313L143.916 33.206Z" fill="#F57F35"/>
<path d="M145.644 31.5464L140.796 37.2101L142.851 44.5928L135.81 41.5279L129.503 45.5158L129.518 45.2869L129.998 37.956L124.048 33.0378L131.395 31.4328L134.023 24.4047L134.156 24.6224L138.067 30.9716L145.644 31.5464Z" fill="white"/>
<path d="M145.644 31.5464L140.796 37.2103L142.851 44.5929L135.81 41.5279L129.503 45.5159L129.517 45.287C130.827 44.0714 132.139 42.8551 133.449 41.6395C134.452 40.709 135.754 39.7111 137.082 40.1759C137.603 40.3579 138.032 40.7497 138.531 40.9976C139.027 41.246 139.698 41.3117 140.051 40.9038C140.484 40.4098 140.164 39.6354 139.958 38.9913C139.548 37.6904 139.731 36.2365 140.446 35.117C140.837 34.5064 141.386 33.7328 140.938 33.1297C140.659 32.7608 140.124 32.6996 139.681 32.7838C139.234 32.869 138.811 33.0594 138.356 33.0578C137.666 33.0572 137.022 32.6072 136.609 32.0368C136.192 31.4671 135.968 30.7896 135.752 30.1262C135.266 28.6472 134.716 27.1745 134.298 25.6788C134.191 25.2834 134.133 24.9422 134.156 24.6223L138.067 30.9714L145.644 31.5464Z" fill="#EAEEF6"/>
<path d="M167.67 31.5464L162.822 37.2101L164.877 44.5928L157.836 41.5279L151.529 45.5158L151.543 45.2869L152.024 37.956L146.074 33.0378L153.421 31.4328L156.049 24.4047L156.182 24.6224L160.093 30.9716L167.67 31.5464Z" fill="#F57F35"/>
<path d="M169.398 29.8867L164.55 35.5504L166.605 42.933L159.564 39.8682L153.257 43.8561L153.271 43.6273L153.752 36.2963L147.802 31.3782L155.148 29.7731L157.777 22.745L157.91 22.9627L161.821 29.3118L169.398 29.8867Z" fill="white"/>
<path d="M169.398 29.8867L164.55 35.5506L166.605 42.9332L159.564 39.8684L153.257 43.8563L153.271 43.6275C154.581 42.4119 155.893 41.1955 157.203 39.9799C158.206 39.0494 159.508 38.0515 160.836 38.5164C161.357 38.6983 161.786 39.0902 162.285 39.338C162.781 39.5865 163.452 39.6522 163.805 39.2443C164.237 38.7502 163.917 37.9759 163.712 37.3318C163.301 36.0309 163.484 34.5768 164.2 33.4575C164.59 32.8468 165.139 32.0732 164.692 31.4702C164.413 31.1013 163.878 31.0401 163.435 31.1243C162.988 31.2094 162.565 31.3999 162.109 31.3982C161.419 31.3976 160.776 30.9477 160.363 30.3772C159.946 29.8075 159.722 29.13 159.505 28.4666C159.02 26.9876 158.47 25.515 158.052 24.0192C157.944 23.6238 157.887 23.2827 157.91 22.9628L161.821 29.3119L169.398 29.8867Z" fill="#EAEEF6"/>
<path d="M63.6442 173.076L28.3075 164.473C25.3774 163.759 22.3804 165.367 21.3539 168.202L14.1963 187.974C12.9183 191.504 15.2139 195.316 18.932 195.837L56.2121 201.062C59.0648 201.462 61.79 199.747 62.6631 197.002L67.8771 180.608C68.9151 177.345 66.9711 173.886 63.6442 173.076Z" fill="#9165C4"/>
<path d="M54.9643 162.311L37.2183 174.393L53.4356 177.958L54.9643 162.311Z" fill="#9165C4"/>
<path d="M50.9674 188.228C52.0168 183.648 44.4039 174.907 44.4039 174.907C44.4039 174.907 32.6214 178.905 31.4355 184.082C30.5887 187.778 32.8836 191.285 36.4216 191.891C37.9442 192.152 39.4405 191.827 40.6959 191.092C41.5171 192.19 42.702 192.966 44.1113 193.208C47.197 193.736 50.2181 191.499 50.9674 188.228Z" fill="white"/>
<path d="M224.86 145.124C222.368 155.147 212.47 161.619 200.919 158.369C191.114 155.61 186.574 146.246 189.067 136.223C191.559 126.2 201.593 120.068 211.476 122.526C221.361 124.984 227.353 135.102 224.86 145.124Z" fill="#F57F35"/>
<path d="M221.488 144.297C223.98 134.275 218.112 124.189 208.383 121.769C198.653 119.35 188.745 125.513 186.253 135.536C183.761 145.558 189.628 155.644 199.358 158.063C209.088 160.483 218.995 154.319 221.488 144.297Z" fill="#FFCD3B"/>
<path d="M197.589 142.224C196.708 141.891 195.78 142.599 195.865 143.538C196.092 146.027 197.859 148.213 200.422 148.851C202.985 149.488 205.571 148.384 206.936 146.291C207.451 145.502 206.963 144.441 206.029 144.323C203.133 143.956 200.32 143.256 197.589 142.224Z" fill="white"/>
<path d="M204.207 133.631C203.771 135.383 200.587 136.899 198.784 137.628C198.039 137.93 197.185 137.718 196.669 137.103C196.347 136.718 195.966 136.244 195.589 135.721C194.5 134.224 193.426 132.33 193.749 131.031C194.187 129.273 195.964 128.203 197.722 128.64C198.465 128.825 199.085 129.248 199.519 129.81C199.528 129.821 199.537 129.833 199.546 129.845C199.558 129.863 199.571 129.878 199.584 129.895C199.77 129.805 199.963 129.731 200.164 129.677C200.686 129.534 201.252 129.518 201.817 129.659C203.574 130.096 204.644 131.874 204.207 133.631Z" fill="#9165C4"/>
<path d="M204.207 133.631C203.771 135.383 200.587 136.899 198.784 137.629C198.039 137.931 197.185 137.718 196.669 137.103C196.347 136.718 195.966 136.244 195.589 135.721C196.404 136.142 197.336 136.338 198.252 136.254C199.671 136.124 201.014 135.326 201.805 134.143C202.221 133.524 202.489 132.792 202.477 132.047C202.463 131.303 202.145 130.549 201.558 130.091C201.168 129.786 200.654 129.634 200.164 129.677C200.686 129.534 201.252 129.519 201.816 129.659C203.574 130.096 204.644 131.874 204.207 133.631Z" fill="#9165C4"/>
<path d="M217.165 136.854C216.729 138.605 213.545 140.121 211.741 140.851C210.997 141.153 210.143 140.941 209.626 140.325C209.305 139.94 208.923 139.466 208.547 138.943C207.458 137.447 206.384 135.553 206.707 134.253C207.144 132.495 208.922 131.426 210.68 131.863C211.423 132.048 212.043 132.471 212.477 133.032C212.486 133.044 212.495 133.056 212.504 133.068C212.516 133.085 212.529 133.1 212.542 133.118C212.727 133.027 212.921 132.953 213.121 132.9C213.644 132.756 214.209 132.741 214.774 132.881C216.532 133.318 217.602 135.096 217.165 136.854Z" fill="#9165C4"/>
<path d="M217.165 136.854C216.729 138.605 213.545 140.121 211.741 140.851C210.997 141.153 210.143 140.941 209.626 140.325C209.305 139.94 208.923 139.466 208.547 138.943C209.361 139.364 210.294 139.56 211.21 139.476C212.629 139.347 213.972 138.548 214.763 137.365C215.178 136.746 215.447 136.014 215.435 135.27C215.421 134.525 215.102 133.771 214.516 133.314C214.126 133.008 213.612 132.856 213.121 132.9C213.644 132.756 214.209 132.741 214.774 132.881C216.532 133.318 217.602 135.096 217.165 136.854Z" fill="#9165C4"/>
</svg>
