<svg width="316" height="216" viewBox="0 0 316 216" fill="none" xmlns="http://www.w3.org/2000/svg">
<circle cx="150.5" cy="106.5" r="102.5" fill="#5F289E"/>
<path d="M90.3417 126.567L98.9032 121.591L98.8829 128.899L90.321 133.875L90.3417 126.567Z" fill="#E8EBF5"/>
<path d="M76.3807 118.506L84.9422 113.531L98.9032 121.591L90.3417 126.567L76.3807 118.506Z" fill="#E1E2F0"/>
<path d="M76.4262 102.464L76.3807 118.506L90.3417 126.567L90.321 133.875L70 122.142L70.0662 98.7917L76.4262 102.464Z" fill="#ADB0D6"/>
<path d="M70.0662 98.7918L78.6282 93.8164L84.9877 97.4881L76.4262 102.464L70.0662 98.7918Z" fill="#E1E2F0"/>
<path d="M76.4262 102.464L84.9877 97.4882L84.9422 113.531L76.3807 118.506L76.4262 102.464Z" fill="#E8EBF5"/>
<path d="M76.6626 18.956L85.2246 13.9802L85.1791 30.0223L76.6171 34.9976L76.6626 18.956Z" fill="#E8EBF5"/>
<path d="M70.3238 7.97582L78.8854 3L99.2063 14.7328L90.6443 19.7077L70.3238 7.97582Z" fill="#E1E2F0"/>
<path d="M90.6443 19.7077L99.2063 14.7328L99.1856 22.0408L90.6236 27.0162L90.6443 19.7077Z" fill="#E8EBF5"/>
<path d="M90.6443 19.7077L90.6236 27.0161L76.6626 18.956L76.6171 34.9976L70.2571 31.3259L70.3238 7.97583L90.6443 19.7077Z" fill="#ADB0D6"/>
<path d="M201.873 190.959L210.435 185.984L224.396 194.044L215.834 199.02L201.873 190.959Z" fill="#E1E2F0"/>
<path d="M99.026 66.5946L107.588 61.6192C118.126 55.4948 135.157 50.2177 154.931 61.6344L146.369 66.6102C126.594 55.193 109.564 60.4706 99.026 66.5946Z" fill="#D7DAFF"/>
<path d="M215.88 182.978L224.442 178.002L230.801 181.674L222.24 186.65L215.88 182.978Z" fill="#E1E2F0"/>
<path d="M222.24 186.65L222.174 210L201.853 198.268L201.873 190.959L215.834 199.02L215.88 182.978L222.24 186.65Z" fill="#ADB0D6"/>
<path d="M222.24 186.649L230.801 181.674L230.735 205.024L222.174 210L222.24 186.649Z" fill="#E8EBF5"/>
<path d="M202.033 146.405L193.471 151.381C200.149 147.501 204.219 143.28 204.729 142.752L213.291 137.776C212.781 138.305 208.711 142.525 202.033 146.405Z" fill="#D7DAFF"/>
<path d="M146.369 66.6097C178.673 85.2599 203.426 139.877 204.729 142.752C203.414 144.115 178.433 170.016 146.128 151.366C113.824 132.715 89.0707 78.0986 87.768 75.2241C89.0826 73.8606 114.065 47.959 146.369 66.6097Z" fill="#AEB2F4"/>
<path d="M146.369 66.6097L154.931 61.6339C187.235 80.2846 211.988 134.901 213.291 137.776L204.729 142.751C203.426 139.877 178.673 85.2604 146.369 66.6097Z" fill="#D7DAFF"/>
<path d="M202.176 84.1007L210.738 79.1254L231.059 90.8577L222.497 95.8335L202.176 84.1007Z" fill="#E1E2F0"/>
<path d="M222.497 95.8335L231.059 90.8577L230.993 114.208L222.431 119.184L222.497 95.8335Z" fill="#E8EBF5"/>
<path d="M222.497 95.8336L222.431 119.184L216.071 115.511L216.117 99.4694L202.156 91.4093L202.176 84.1008L222.497 95.8336Z" fill="#ADB0D6"/>
<path d="M172.541 124.168C172.541 140.935 160.77 147.731 146.248 139.347C131.727 130.963 119.956 110.575 119.956 93.8077C119.956 77.0411 131.727 70.2446 146.248 78.6286C160.77 87.0125 172.541 107.401 172.541 124.168Z" fill="#9467C8"/>
<path d="M164.45 119.497C164.45 131.104 156.301 135.809 146.248 130.005C136.195 124.201 128.046 110.086 128.046 98.4785C128.046 86.8709 136.195 82.1665 146.248 87.9703C156.302 93.7746 164.45 107.889 164.45 119.497Z" fill="#3B4951"/>
<path d="M161.533 111.793C164.313 110.188 164.313 104.982 161.532 100.166C158.752 95.3492 154.243 92.7462 151.462 94.3517C148.682 95.9572 148.682 101.163 151.463 105.98C154.244 110.796 158.752 113.399 161.533 111.793Z" fill="white"/>
</svg>
